<?xml version="1.0" encoding="utf-8"?>
<!-- Generator: Adobe Illustrator 28.1.0, SVG Export Plug-In . SVG Version: 6.00 Build 0)  -->
<svg version="1.1" id="Capa_1" xmlns="http://www.w3.org/2000/svg" xmlns:xlink="http://www.w3.org/1999/xlink" x="0px" y="0px"
	 viewBox="0 0 738.3 610.2" style="enable-background:new 0 0 738.3 610.2;" xml:space="preserve">
<style type="text/css">
	.st0{fill:#F4F8FC;}
	.st1{fill:#0073FF;}
	.st2{font-family:'Graphik-Semibold';}
	.st3{font-size:13px;}
	.st4{font-family:'Graphik-Medium';}
	.st5{font-size:12px;}
	.st6{font-family:'Graphik-Light';}
	.st7{enable-background:new    ;}
	.st8{fill:none;}
	.st9{font-family:'Graphik-Bold';}
	.st10{font-size:14px;}
	.st11{font-size:24px;}
</style>
<rect x="260.2" y="0.2" class="st0" width="478.1" height="609.9"/>
<text transform="matrix(1 0 0 1 329.8099 289.17)" class="st1 st2 st3">Responsable | Confiable | Curioso | Impaciente | Leal</text>
<g>
	<g>
		<g>
			<text transform="matrix(1 0 0 1 16.68 426.2944)" class="st1 st4 st5">Edad:</text>
			<text transform="matrix(1 0 0 1 53.1039 426.2944)" class="st6 st5">19</text>
		</g>
		<g>
			<text transform="matrix(1 0 0 1 16.68 447.2852)" class="st1 st4 st5">Ocupación:</text>
			<text transform="matrix(1 0 0 1 87.2073 447.2852)" class="st6 st5">Estudiante Superior </text>
		</g>
		<g>
			<text transform="matrix(1 0 0 1 16.68 468.2755)" class="st1 st4 st5">Familia: </text>
			<text transform="matrix(1 0 0 1 67.6472 468.2747)" class="st7"><tspan x="0" y="0" class="st6 st5">Vive con sus padres, sin hijo</tspan><tspan x="151.7" y="0" class="st6 st5">s</tspan></text>
		</g>
		<g>
			<text transform="matrix(1 0 0 1 16.68 489.2657)" class="st1 st4 st5">Vive en: </text>
			<text transform="matrix(1 0 0 1 68.9434 489.2661)" class="st6 st5">Lince</text>
		</g>
		<g>
			<text transform="matrix(1 0 0 1 17.68 510.2561)" class="st1 st4 st5">Estudia en:</text>
			<text transform="matrix(1 0 0 1 84.4992 510.2557)" class="st6 st5">La Molina </text>
		</g>
		<g>
			<text transform="matrix(1 0 0 1 16.68 531.2464)" class="st1 st4 st5">Carácter:</text>
			<rect x="74.2" y="521.1" class="st8" width="163" height="71.7"/>
			<text transform="matrix(1 0 0 1 74.1753 531.3994)" class="st7"><tspan x="0" y="0" class="st6 st5">Responsable, confiable.</tspan><tspan x="0" y="14.4" class="st6 st5">Organizado pero un poco  </tspan><tspan x="0" y="28.8" class="st6 st5">desordenado e inmaduro, </tspan><tspan x="0" y="43.2" class="st6 st5">curioso, impaciente. Quiere </tspan><tspan x="0" y="57.6" class="st6 st5">ayudar a todos.</tspan></text>
		</g>
	</g>
	<g>
		<path class="st1" d="M53.5,379.8L53.5,379.8l-5.5-1.6l-3.9-3.7v-1c1.9-1.9,3-4.5,3-7.2v-6.1c0-5.7-4.6-10.2-10.2-10.2
			s-10.2,4.6-10.2,10.2c0,0,0,0,0,0v6.1c0,2.7,1.1,5.3,3,7.2v1l-3.9,3.7l-5.4,1.6h-0.1c-2.4,0.8-3.7,3.3-3.1,5.7l2.6,13.3
			c0.1,0.7,0.7,1.2,1.4,1.2h31.3c0.7,0,1.3-0.5,1.4-1.2l2.8-13.3C57.3,383.1,55.9,380.6,53.5,379.8z M45.2,379.7L41,386l-2.3-2.3
			l4.2-6.2L45.2,379.7z M36.9,352.9c2.3,0,4.5,1.1,5.9,2.9c-1.4,1.8-3.6,2.9-5.9,2.9h-7.2C30.4,355.4,33.4,352.9,36.9,352.9z
			 M29.5,366.3v-4.6h7.3c2.7,0,5.3-1.1,7.2-2.9c0.1,0.5,0.1,1,0.1,1.5v6.1c0,4-3.3,7.3-7.3,7.3S29.5,370.4,29.5,366.3z M30.8,377.5
			l4.2,6.2l-2.3,2.3l-4.2-6.3L30.8,377.5z M35.4,397.1h-13l-2.4-12.2c-0.2-0.9,0.3-1.9,1.2-2.2l4.8-1.4l5.2,7.9
			c0.4,0.7,1.4,0.9,2,0.4c0.1-0.1,0.2-0.1,0.2-0.2l1.9-1.9V397.1L35.4,397.1z M33.4,375.9c2.3,0.8,4.7,0.8,7,0l-3.5,5.3L33.4,375.9z
			 M53.8,384.9l-2.5,12.1h-13v-9.6l1.9,1.9c0.6,0.6,1.5,0.6,2.1,0c0.1-0.1,0.1-0.1,0.2-0.2l5.2-7.9l4.9,1.4
			C53.5,382.9,54,384,53.8,384.9L53.8,384.9z"/>
		<path class="st1" d="M48.6,391.2h-2.9c-0.8,0-1.5,0.7-1.5,1.5s0.7,1.5,1.5,1.5h2.9c0.8-0.1,1.4-0.8,1.3-1.6
			C49.9,391.9,49.3,391.3,48.6,391.2L48.6,391.2z"/>
	</g>
</g>
<g>
	<path class="st1" d="M407.3,347.3l4.7-4.7c0.4-0.4,0.4-1.1,0-1.5c-0.2-0.2-0.5-0.3-0.7-0.3h-2.1v-2c0-0.6-0.5-1.1-1.1-1
		c-0.3,0-0.6,0.1-0.8,0.3l-4.5,4.7c-0.2,0.2-0.3,0.5-0.3,0.7v2.4c-6.6-5.7-16.6-4.9-22.3,1.7c-5.7,6.6-4.9,16.6,1.7,22.3
		c6.6,5.7,16.6,4.9,22.3-1.7c5.1-6,5.1-14.8,0-20.7h2.5C406.9,347.6,407.1,347.5,407.3,347.3z M401.8,367.9
		c-5.4,5.4-14.2,5.4-19.6,0s-5.4-14.2,0-19.6c5.1-5.1,13.3-5.5,18.9-0.7l-1.5,1.5c-5-4.1-12.3-3.5-16.5,1.5s-3.5,12.3,1.5,16.5
		s12.3,3.5,16.5-1.5c3.6-4.3,3.6-10.6,0-15l1.5-1.5C407.3,354.5,406.9,362.7,401.8,367.9z M392.1,354.8c-1.7,0-3.1,1.5-3.1,3.2
		c0,1.7,1.5,3.1,3.2,3.1c1.7,0,3.1-1.5,3.1-3.2c0-0.5-0.1-0.9-0.3-1.3l1.6-1.6c1.6,2.4,0.9,5.7-1.5,7.4c-2.4,1.6-5.7,0.9-7.4-1.5
		c-1.6-2.4-0.9-5.7,1.5-7.4c1.8-1.2,4.1-1.2,5.9,0l-1.6,1.6C393,354.9,392.5,354.8,392.1,354.8L392.1,354.8z M393.1,358
		c0,0.6-0.5,1.1-1.1,1.1c-0.6,0-1.1-0.5-1.1-1.1s0.5-1.1,1.1-1.1l0,0C392.6,356.9,393.1,357.4,393.1,358
		C393.1,358,393.1,358,393.1,358L393.1,358z M396.5,352c-3.3-2.5-8-1.8-10.4,1.5c-2.5,3.3-1.8,8,1.5,10.4c3.3,2.5,8,1.8,10.4-1.5
		c2-2.6,2-6.3,0-8.9l1.5-1.5c3.3,4.1,2.6,10.1-1.5,13.4c-4.1,3.3-10.1,2.6-13.4-1.5c-3.3-4.1-2.6-10.1,1.5-13.4
		c3.5-2.8,8.4-2.8,11.9,0L396.5,352z M404.6,345.4v-1.5l2.4-2.5v0.4c0,0.6,0.5,1.1,1.1,1.1c0,0,0,0,0,0h0.6l-2.6,2.5L404.6,345.4z"
		/>
	<text transform="matrix(1 0 0 1 373.2236 401.7735)" class="st1 st9 st10">Metas</text>
</g>
<rect x="294.3" y="426.1" class="st8" width="200" height="96.7"/>
<text transform="matrix(1 0 0 1 294.3426 436.345)" class="st7"><tspan x="0" y="0" class="st6 st5">• Llegar a su destino sin problemas.</tspan><tspan x="0" y="14.4" class="st6 st5">• Usar el transporte público </tspan><tspan x="0" y="28.8" class="st6 st5">facilmente.</tspan><tspan x="0" y="43.2" class="st6 st5">• Organizar su dia desde el inicio y </tspan><tspan x="0" y="57.6" class="st6 st5">cumplir con  sus planes.</tspan></text>
<g>
	<g>
		<path class="st1" d="M615.8,337.7c-9.9,0-18,8.1-18,18s8.1,18,18,18c9.9,0,18-8.1,18-18l0,0C633.8,345.8,625.7,337.7,615.8,337.7z
			 M615.8,370.5c-8.1,0-14.7-6.6-14.8-14.7c0-8.1,6.6-14.7,14.7-14.8s14.7,6.6,14.8,14.7c0,0,0,0,0,0
			C630.5,363.9,623.9,370.4,615.8,370.5L615.8,370.5z"/>
		<path class="st1" d="M620.8,358.4L610,361c-0.9,0.2-1.4,1.1-1.2,2c0.2,0.9,1.1,1.4,2,1.2l0,0l10.8-2.6c0.9-0.3,1.3-1.2,1.1-2.1
			C622.4,358.8,621.6,358.3,620.8,358.4L620.8,358.4z"/>
		<path class="st1" d="M610.3,353.8c0.8-0.8,0.8-2.2,0-3.1c-0.8-0.8-2.2-0.8-3.1,0c-0.8,0.8-0.8,2.2,0,3.1c0.4,0.4,0.9,0.6,1.5,0.6
			C609.4,354.4,609.9,354.2,610.3,353.8z"/>
		<path class="st1" d="M622.8,350.1c-0.6,0-1.1,0.2-1.5,0.6c-0.9,0.9-0.9,2.2,0,3.1c0.9,0.9,2.2,0.9,3.1,0c0.9-0.8,0.9-2.2,0.1-3.1
			C624,350.3,623.4,350.1,622.8,350.1L622.8,350.1z"/>
	</g>
	<text transform="matrix(1 0 0 1 568.5068 401.7734)" class="st1 st9 st10">Frustraciones</text>
</g>
<rect x="515.8" y="426" class="st8" width="200" height="96.7"/>
<text transform="matrix(1 0 0 1 515.778 436.3136)" class="st7"><tspan x="0" y="0" class="st6 st5">• Tener que esperar mucho tiempo.</tspan><tspan x="0" y="14.4" class="st6 st5">• Incomodidad física en el </tspan><tspan x="0" y="28.8" class="st6 st5">transporte.</tspan><tspan x="0" y="43.2" class="st6 st5">• No poder aprovechar su tiempo </tspan><tspan x="0" y="57.6" class="st6 st5">para hacer lo que quiere.</tspan></text>
<g>
	<g>
		<text transform="matrix(1 0 0 1 295.8615 37.4773)" class="st1 st9 st10">¿Quién es?</text>
	</g>
	<rect x="295.9" y="56.7" class="st8" width="400" height="212.8"/>
	<text transform="matrix(1 0 0 1 295.8613 67.0149)" class="st7"><tspan x="0" y="0" class="st6 st5">Diego es limeño, tiene 19 años y está en su segundo año de la </tspan><tspan x="0" y="14.4" class="st6 st5">universidad. Vive en Lince, y estudia Biología en la UNALM. Sus clases </tspan><tspan x="0" y="28.8" class="st6 st5">empiezan en la mañana, y todos los días sale de su casa antes de las 7 </tspan><tspan x="0" y="43.2" class="st6 st5">a.m. para llegar a tiempo. Toma el corredor azul o un colectivo hasta la </tspan><tspan x="0" y="57.6" class="st6 st5">avenida Javier Prado, y el corredor rojo desde ahí. Tiene una tarjeta Lima </tspan><tspan x="0" y="72" class="st6 st5">Pass y una tarjeta del Metropolitano que dejó de usar. </tspan><tspan x="0" y="102.4" class="st6 st5">Se queda en la universidad gran parte del día y aprovecha su tiempo ahí </tspan><tspan x="0" y="116.8" class="st6 st5">para hacer trabajos. Regresa siempre después de las 4 o 5 p.m., tenga o </tspan><tspan x="0" y="131.2" class="st6 st5">no clase. A veces se olvida de recargar su tarjeta y se queda sin saldo, y </tspan><tspan x="0" y="145.6" class="st6 st5">tiene que tomar un micro o buscar un  sitio de recargas.</tspan><tspan x="0" y="176" class="st6 st5">Cuando regresa a su casa, descansa. En los fines de semana, sale con sus </tspan><tspan x="0" y="190.4" class="st6 st5">amigos.</tspan></text>
</g>
<image style="overflow:visible;enable-background:new    ;" width="617" height="688" xlink:href="1C597F8C489C5C44.png"  transform="matrix(0.4216 0 0 0.4216 0 0.21)">
</image>
<g>
	<text transform="matrix(1 0 0 1 17.68 325.3203)" class="st1 st9 st11">Diego L.</text>
</g>
</svg>
