<?xml version="1.0" encoding="utf-8"?>
<!-- Generator: Adobe Illustrator 28.1.0, SVG Export Plug-In . SVG Version: 6.00 Build 0)  -->
<svg version="1.1" id="Capa_1" xmlns="http://www.w3.org/2000/svg" xmlns:xlink="http://www.w3.org/1999/xlink" x="0px" y="0px"
	 viewBox="0 0 2088.1 835.5" style="enable-background:new 0 0 2088.1 835.5;" xml:space="preserve">
<style type="text/css">
	.st0{font-family:'Graphik-Bold';}
	.st1{font-size:33.16px;}
	.st2{font-family:'Graphik-Regular';}
	.st3{font-size:28px;}
	.st4{font-size:20px;}
	.st5{fill:none;stroke:#0073FF;stroke-width:2;stroke-miterlimit:10;}
	.st6{font-family:'Graphik-Semibold';}
</style>
<text transform="matrix(1 0 0 1 958.8378 242.6237)" class="st0 st1">Home</text>
<g>
	<text transform="matrix(1 0 0 1 43.9788 487.9064)" class="st2 st3">Información General</text>
	<text transform="matrix(1 0 0 1 43.9786 526.1871)" class="st2 st3">Corredor Rojo</text>
	<text transform="matrix(1 0 0 1 43.9786 564.4688)" class="st2 st3">Corredor Azul</text>
	<text transform="matrix(1 0 0 1 43.9785 602.7504)" class="st2 st3">Corredor Amarillo</text>
	<text transform="matrix(1 0 0 1 43.9786 641.031)" class="st2 st3">Corredor Verde</text>
	<text transform="matrix(1 0 0 1 43.9788 679.3127)" class="st2 st3">Corredor Morado</text>
</g>
<text transform="matrix(1 0 0 1 423.7979 487.9063)" class="st2 st3">Información General</text>
<g>
	<text transform="matrix(1 0 0 1 1561.4172 488.5665)" class="st2 st3">Mapa Dinámico</text>
	<text transform="matrix(1 0 0 1 1561.4175 526.8481)" class="st2 st3">Leyenda</text>
</g>
<g>
	<text transform="matrix(1 0 0 1 788.1504 486.8018)" class="st2 st3">Información General</text>
	<text transform="matrix(1 0 0 1 788.1504 525.0835)" class="st2 st3">Rutas Troncales</text>
	<text transform="matrix(1 0 0 1 788.1506 563.3641)" class="st2 st3">Alimentadoras</text>
</g>
<g>
	<text transform="matrix(1 0 0 1 1126.6599 680.6163)" class="st2 st3">Como usar VAMO</text>
	<text transform="matrix(1 0 0 1 1126.6602 718.8979)" class="st2 st3">Políticas de Uso</text>
	<text transform="matrix(1 0 0 1 1126.6592 757.179)" class="st2 st3">Contacto</text>
	<g>
		<text transform="matrix(1 0 0 1 1126.6594 486.8018)" class="st2 st3">Conócenos</text>
		<g>
			<text transform="matrix(1 0 0 1 1147.0295 515.9718)" class="st2 st4">Tarjetas</text>
			<text transform="matrix(1 0 0 1 1147.0295 541.6027)" class="st2 st4">Boleto Electrónico</text>
			<text transform="matrix(1 0 0 1 1147.0295 567.2335)" class="st2 st4">¿Cómo adquirirla?</text>
			<text transform="matrix(1 0 0 1 1147.0295 592.8644)" class="st2 st4">¿Cómo utilizarla?</text>
			<text transform="matrix(1 0 0 1 1147.0295 618.4952)" class="st2 st4">¿Qué hacer por</text>
			<text transform="matrix(1 0 0 1 1147.0295 644.1261)" class="st2 st4">pérdida o robo?</text>
		</g>
	</g>
</g>
<line class="st5" x1="1007.5" y1="280" x2="1007.5" y2="319"/>
<polyline class="st5" points="168,358 168,319 2020,319 2020,358 "/>
<line class="st5" x1="558" y1="319" x2="558" y2="358"/>
<line class="st5" x1="922.5" y1="319" x2="922.5" y2="358"/>
<line class="st5" x1="1242.5" y1="319" x2="1242.5" y2="358"/>
<line class="st5" x1="1663" y1="319" x2="1663" y2="358"/>
<g>
	<text transform="matrix(1 0 0 1 1123.33 154.68)" class="st2 st4">Login</text>
</g>
<text transform="matrix(1 0 0 1 1123.33 40.68)" class="st2 st4">Footer</text>
<text transform="matrix(1 0 0 1 1145.33 71.68)" class="st2 st4">Redes</text>
<text transform="matrix(1 0 0 1 1145.33 103.68)" class="st2 st4">Resumen (Mapa de Sitio)</text>
<text transform="matrix(1 0 0 1 1123.33 256.68)" class="st2 st4">Usa el App</text>
<text transform="matrix(1 0 0 1 1123.33 205.68)" class="st2 st4">Sign Up</text>
<polyline class="st5" points="1121.8,1 1100.4,1 1100.4,276 1121.8,276 "/>
<line class="st5" x1="1100.5" y1="230.5" x2="1087.5" y2="230.5"/>
<g>
	<text transform="matrix(1 0 0 1 105.9669 441.5129)" class="st6 st3">Corredor</text>
	<g>
		<g>
			<text transform="matrix(1 0 0 1 162.4139 389.5129)" class="st2 st3">1</text>
		</g>
		<circle class="st5" cx="168" cy="379.3" r="20"/>
	</g>
</g>
<g>
	<text transform="matrix(1 0 0 1 527.0883 441.5128)" class="st6 st3">Tren</text>
	<g>
		<g>
			<text transform="matrix(1 0 0 1 550.244 389.5128)" class="st2 st3">2</text>
		</g>
		<circle class="st5" cx="558" cy="379.3" r="20"/>
	</g>
</g>
<g>
	<text transform="matrix(1 0 0 1 825.9492 440.4078)" class="st6 st3">Metropolitano</text>
	<g>
		<g>
			<text transform="matrix(1 0 0 1 913.8965 388.4078)" class="st2 st3">3</text>
		</g>
		<circle class="st5" cx="922.4" cy="378.2" r="20"/>
	</g>
</g>
<g>
	<text transform="matrix(1 0 0 1 1174.4833 440.4078)" class="st6 st3">Acerca de</text>
	<g>
		<g>
			<text transform="matrix(1 0 0 1 1233.1921 388.4078)" class="st2 st3">4</text>
		</g>
		<circle class="st5" cx="1242.8" cy="378.2" r="20"/>
	</g>
</g>
<g>
	<text transform="matrix(1 0 0 1 1537.2815 442.1732)" class="st6 st3">Puntos de Servicio</text>
	<g>
		<g>
			<text transform="matrix(1 0 0 1 1654.7821 390.1732)" class="st2 st3">5</text>
		</g>
		<circle class="st5" cx="1663" cy="380" r="20"/>
	</g>
</g>
<g>
	<text transform="matrix(1 0 0 1 1964.6025 441.0682)" class="st6 st3">Noticias</text>
	<g>
		<g>
			<text transform="matrix(1 0 0 1 2011.3344 389.0682)" class="st2 st3">6</text>
		</g>
		<circle class="st5" cx="2020" cy="378.9" r="20"/>
	</g>
</g>
</svg>
