<svg width="617" height="287" viewBox="0 0 617 287" fill="none" xmlns="http://www.w3.org/2000/svg">
<path d="M7.98 22.22C3.3 22.22 0.8 19.34 0.8 14.94V14.78C0.8 10.44 3.84 7.48 7.9 7.48C11.34 7.48 13.9 9.16 14.24 12.68H10.92C10.68 10.96 9.72 10.04 7.92 10.04C5.66 10.04 4.22 11.8 4.22 14.76V14.92C4.22 17.88 5.58 19.6 7.94 19.6C9.72 19.6 10.96 18.7 11.22 16.86H14.4C14.04 20.4 11.5 22.22 7.98 22.22ZM21.14 22.22C18.02 22.22 15.64 20.14 15.64 16.88V16.72C15.64 13.44 18.02 11.3 21.16 11.3C24.3 11.3 26.66 13.4 26.66 16.66V16.82C26.66 20.12 24.28 22.22 21.14 22.22ZM21.16 20.02C22.78 20.02 23.72 18.82 23.72 16.84V16.7C23.72 14.7 22.78 13.5 21.16 13.5C19.56 13.5 18.6 14.66 18.6 16.66V16.82C18.6 18.82 19.52 20.02 21.16 20.02ZM28.6042 22V11.54H31.5042V13.54C32.1642 12.14 33.1842 11.4 34.8842 11.38V14.08C32.7442 14.06 31.5042 14.76 31.5042 16.76V22H28.6042ZM36.7878 22V11.54H39.6878V13.54C40.3478 12.14 41.3678 11.4 43.0678 11.38V14.08C40.9278 14.06 39.6878 14.76 39.6878 16.76V22H36.7878ZM49.6156 22.22C46.4556 22.22 44.1556 20.24 44.1556 16.9V16.74C44.1556 13.44 46.4956 11.3 49.5356 11.3C52.2356 11.3 54.6356 12.88 54.6356 16.62V17.42H47.0956C47.1756 19.16 48.1156 20.16 49.6956 20.16C51.0356 20.16 51.6956 19.58 51.8756 18.7H54.6156C54.2756 20.96 52.4756 22.22 49.6156 22.22ZM47.1356 15.64H51.8156C51.7156 14.06 50.9156 13.3 49.5356 13.3C48.2356 13.3 47.3556 14.16 47.1356 15.64ZM60.4539 22.22C57.9139 22.22 55.9139 20.4 55.9139 16.92V16.76C55.9139 13.32 57.8939 11.3 60.5139 11.3C62.1939 11.3 63.2339 12.04 63.8139 13.1V6.8H66.6939V22H63.8139V20.26C63.2739 21.32 61.9939 22.22 60.4539 22.22ZM61.3139 19.96C62.8339 19.96 63.8939 18.94 63.8939 16.82V16.66C63.8939 14.58 62.9739 13.52 61.3939 13.52C59.7739 13.52 58.8739 14.62 58.8739 16.7V16.86C58.8739 18.94 59.8739 19.96 61.3139 19.96ZM74.1283 22.22C71.0083 22.22 68.6283 20.14 68.6283 16.88V16.72C68.6283 13.44 71.0083 11.3 74.1483 11.3C77.2883 11.3 79.6483 13.4 79.6483 16.66V16.82C79.6483 20.12 77.2683 22.22 74.1283 22.22ZM74.1483 20.02C75.7683 20.02 76.7083 18.82 76.7083 16.84V16.7C76.7083 14.7 75.7683 13.5 74.1483 13.5C72.5483 13.5 71.5883 14.66 71.5883 16.66V16.82C71.5883 18.82 72.5083 20.02 74.1483 20.02ZM81.5925 22V11.54H84.4925V13.54C85.1525 12.14 86.1725 11.4 87.8725 11.38V14.08C85.7325 14.06 84.4925 14.76 84.4925 16.76V22H81.5925ZM94.4203 22.22C91.2603 22.22 88.9603 20.24 88.9603 16.9V16.74C88.9603 13.44 91.3003 11.3 94.3403 11.3C97.0403 11.3 99.4403 12.88 99.4403 16.62V17.42H91.9003C91.9803 19.16 92.9203 20.16 94.5003 20.16C95.8403 20.16 96.5003 19.58 96.6803 18.7H99.4203C99.0803 20.96 97.2803 22.22 94.4203 22.22ZM91.9403 15.64H96.6203C96.5203 14.06 95.7203 13.3 94.3403 13.3C93.0403 13.3 92.1603 14.16 91.9403 15.64ZM105.236 22.22C102.416 22.22 100.776 20.98 100.676 18.72H103.376C103.496 19.66 103.956 20.2 105.216 20.2C106.336 20.2 106.856 19.78 106.856 19.06C106.856 18.34 106.236 18.04 104.736 17.82C101.956 17.4 100.876 16.6 100.876 14.56C100.876 12.38 102.876 11.3 105.016 11.3C107.336 11.3 109.076 12.14 109.336 14.54H106.676C106.516 13.68 106.036 13.28 105.036 13.28C104.096 13.28 103.556 13.72 103.556 14.36C103.556 15.02 104.056 15.28 105.576 15.5C108.196 15.88 109.636 16.54 109.636 18.78C109.636 21.04 107.996 22.22 105.236 22.22Z" fill="#383838"/>
<path d="M18 79C27.9411 79 36 70.9411 36 61C36 51.0589 27.9411 43 18 43C8.05887 43 0 51.0589 0 61C0 70.9411 8.05887 79 18 79Z" fill="#E06D6D"/>
<path d="M27.0719 53.5121H25.7759C25.7759 51.6401 24.1919 50.2001 22.4639 50.2001H13.5359C11.6639 50.2001 10.2239 51.7841 10.2239 53.5121H8.92791C7.91991 53.5121 7.19991 54.3761 7.19991 55.2401V58.1201H8.92791V55.2401H10.2239V67.4801C10.2239 68.3441 10.7999 69.2081 11.5199 69.6401V70.0721C11.5199 70.9361 12.2399 71.8001 13.2479 71.8001C14.1119 71.8001 14.9759 71.0801 14.9759 70.0721V69.9281H21.3119V70.0721C21.3119 70.9361 22.0319 71.8001 23.0399 71.8001C23.9039 71.8001 24.7679 71.0801 24.7679 70.0721V69.6401C25.6319 69.2081 26.0639 68.3441 26.0639 67.3361V55.2401H27.3599V58.1201H28.7999V55.2401C28.7999 54.3761 28.0799 53.5121 27.0719 53.5121ZM23.3279 68.3441H12.6719C12.2399 68.3441 11.8079 67.9121 11.8079 67.4801V62.5841L12.9599 63.4481C13.3919 63.7361 13.9679 63.8801 14.3999 63.8801H21.7439C22.3199 63.8801 22.8959 63.7361 23.3279 63.3041L24.0479 62.7281V67.4801C24.1919 67.9121 23.7599 68.3441 23.3279 68.3441ZM24.1919 55.2401V60.5681L22.4639 62.0081C22.3199 62.1521 22.1759 62.1521 21.8879 62.1521H18.8639V55.2401H24.1919ZM17.1359 62.1521H14.3999C14.2559 62.1521 14.1119 62.1521 13.9679 62.0081L11.8079 60.4241V55.2401H17.1359V62.1521ZM13.5359 51.9281H22.4639C23.3279 51.9281 24.1919 52.6481 24.1919 53.6561H11.8079C11.8079 52.6481 12.5279 51.9281 13.5359 51.9281ZM14.8319 66.1841C14.8319 66.6161 14.3999 67.0481 13.9679 67.0481C13.5359 67.0481 13.1039 66.6161 13.1039 66.1841C13.1039 65.7521 13.5359 65.3201 13.9679 65.3201C14.3999 65.3201 14.8319 65.7521 14.8319 66.1841ZM22.8959 66.1841C22.8959 66.6161 22.4639 67.0481 22.0319 67.0481C21.5999 67.0481 21.1679 66.6161 21.1679 66.1841C21.1679 65.7521 21.5999 65.3201 22.0319 65.3201C22.4639 65.3201 22.8959 65.7521 22.8959 66.1841Z" fill="white"/>
<path d="M50.224 68.144C46.912 68.144 44.88 65.872 44.88 62.352V62.224C44.88 58.832 47.152 56.384 50.256 56.384C52.64 56.384 54.656 57.648 54.896 60.128H53.52C53.232 58.384 52.224 57.488 50.272 57.488C47.904 57.488 46.32 59.328 46.32 62.208V62.336C46.32 65.248 47.792 67.008 50.256 67.008C52.128 67.008 53.424 66.064 53.712 64.208H55.008C54.608 66.848 52.784 68.144 50.224 68.144ZM57.4591 68.08C56.8991 68.08 56.4351 67.632 56.4351 67.056C56.4351 66.48 56.8991 66.032 57.4591 66.032C58.0191 66.032 58.4831 66.48 58.4831 67.056C58.4831 67.632 58.0191 68.08 57.4591 68.08ZM65.3931 68V56.56H68.8331C71.0251 56.56 72.8331 57.456 72.8331 59.744V59.808C72.8331 61.696 71.5691 62.624 70.0011 62.928L73.5051 68H71.9531L68.5451 63.024H66.7851V68H65.3931ZM66.7851 61.92H68.9291C70.5611 61.92 71.4411 61.216 71.4411 59.808V59.744C71.4411 58.192 70.4811 57.68 68.9291 57.68H66.7851V61.92ZM78.5816 68.144C76.1976 68.144 74.4856 66.336 74.4856 63.888V63.76C74.4856 61.248 76.2296 59.488 78.5976 59.488C80.9656 59.488 82.7096 61.232 82.7096 63.744V63.872C82.7096 66.4 80.9656 68.144 78.5816 68.144ZM78.5976 67.04C80.2776 67.04 81.3336 65.776 81.3336 63.888V63.776C81.3336 61.84 80.2616 60.592 78.5976 60.592C76.9176 60.592 75.8616 61.84 75.8616 63.76V63.888C75.8616 65.792 76.9016 67.04 78.5976 67.04ZM85.4379 57.888C84.9579 57.888 84.5579 57.488 84.5579 57.008C84.5579 56.528 84.9579 56.128 85.4379 56.128C85.9179 56.128 86.3179 56.528 86.3179 57.008C86.3179 57.488 85.9179 57.888 85.4379 57.888ZM83.5659 71.056V69.936C84.5099 69.856 84.7979 69.376 84.7979 68.64V59.632H86.1259V68.528C86.1259 70.128 85.4219 70.992 83.5659 71.056ZM92.316 68.144C89.932 68.144 88.22 66.336 88.22 63.888V63.76C88.22 61.248 89.964 59.488 92.332 59.488C94.7 59.488 96.444 61.232 96.444 63.744V63.872C96.444 66.4 94.7 68.144 92.316 68.144ZM92.332 67.04C94.012 67.04 95.068 65.776 95.068 63.888V63.776C95.068 61.84 93.996 60.592 92.332 60.592C90.652 60.592 89.596 61.84 89.596 63.76V63.888C89.596 65.792 90.636 67.04 92.332 67.04Z" fill="#383838"/>
<path d="M18 131C27.9411 131 36 122.941 36 113C36 103.059 27.9411 95 18 95C8.05887 95 0 103.059 0 113C0 122.941 8.05887 131 18 131Z" fill="#427AE8"/>
<path d="M27.072 105.512H25.776C25.776 103.64 24.192 102.2 22.464 102.2H13.536C11.664 102.2 10.224 103.784 10.224 105.512H8.928C8.064 105.512 7.2 106.232 7.2 107.24V110.12H8.928V107.24H10.224V119.48C10.224 120.344 10.8 121.208 11.52 121.64V122.072C11.52 122.936 12.24 123.8 13.248 123.8C14.112 123.8 14.976 123.08 14.976 122.072V121.928H21.312V122.072C21.312 122.936 22.032 123.8 23.04 123.8C23.904 123.8 24.768 123.08 24.768 122.072V121.64C25.632 121.208 26.064 120.344 26.064 119.336V107.096H27.36V109.976H28.8V107.096C28.8 106.376 28.08 105.512 27.072 105.512ZM23.328 120.344H12.672C12.24 120.344 11.808 119.912 11.808 119.48V114.584L12.96 115.448C13.392 115.736 13.968 115.88 14.4 115.88H21.744C22.32 115.88 22.896 115.736 23.328 115.304L24.048 114.728V119.48C24.192 119.912 23.76 120.344 23.328 120.344ZM24.192 107.24V112.568L22.464 114.008C22.32 114.152 22.176 114.152 21.888 114.152H18.864V107.24H24.192ZM17.136 114.152H14.4C14.256 114.152 14.112 114.152 13.968 114.008L11.808 112.424V107.24H17.136V114.152ZM13.536 103.928H22.464C23.328 103.928 24.192 104.648 24.192 105.656H11.808C11.808 104.648 12.528 103.928 13.536 103.928ZM14.832 118.184C14.832 118.616 14.4 119.048 13.968 119.048C13.536 119.048 13.104 118.616 13.104 118.184C13.104 117.752 13.536 117.32 13.968 117.32C14.4 117.32 14.832 117.752 14.832 118.184ZM22.896 118.184C22.896 118.616 22.464 119.048 22.032 119.048C21.6 119.048 21.168 118.616 21.168 118.184C21.168 117.752 21.6 117.32 22.032 117.32C22.464 117.32 22.896 117.752 22.896 118.184Z" fill="white"/>
<path d="M50.224 120.144C46.912 120.144 44.88 117.872 44.88 114.352V114.224C44.88 110.832 47.152 108.384 50.256 108.384C52.64 108.384 54.656 109.648 54.896 112.128H53.52C53.232 110.384 52.224 109.488 50.272 109.488C47.904 109.488 46.32 111.328 46.32 114.208V114.336C46.32 117.248 47.792 119.008 50.256 119.008C52.128 119.008 53.424 118.064 53.712 116.208H55.008C54.608 118.848 52.784 120.144 50.224 120.144ZM57.4591 120.08C56.8991 120.08 56.4351 119.632 56.4351 119.056C56.4351 118.48 56.8991 118.032 57.4591 118.032C58.0191 118.032 58.4831 118.48 58.4831 119.056C58.4831 119.632 58.0191 120.08 57.4591 120.08ZM64.5291 120L68.4651 108.56H70.2891L74.1611 120H72.7851L71.6651 116.704H66.9451L65.8411 120H64.5291ZM69.3131 109.712L67.3291 115.6H71.2971L69.3131 109.712ZM75.0704 120V119.808L80.0144 112.752H75.5504V111.632H82.0624V111.872L77.2304 118.832H81.9984V120H75.0704ZM86.6448 120.144C84.9808 120.144 83.7328 119.232 83.7328 116.928V111.632H85.0608V116.864C85.0608 118.336 85.6848 118.992 86.9968 118.992C88.1808 118.992 89.3008 118.208 89.3008 116.704V111.632H90.6288V120H89.3008V118.672C88.9168 119.456 87.9888 120.144 86.6448 120.144ZM93.3448 120V107.632H94.6888V120H93.3448Z" fill="#383838"/>
<path d="M18 183C27.9411 183 36 174.941 36 165C36 155.059 27.9411 147 18 147C8.05887 147 0 155.059 0 165C0 174.941 8.05887 183 18 183Z" fill="#91E350"/>
<path d="M27.072 157.512H25.776C25.776 155.64 24.192 154.2 22.464 154.2H13.536C11.664 154.2 10.224 155.784 10.224 157.512H8.928C8.064 157.512 7.2 158.232 7.2 159.24V162.12H8.928V159.24H10.224V171.48C10.224 172.344 10.8 173.208 11.52 173.64V174.072C11.52 174.936 12.24 175.8 13.248 175.8C14.112 175.8 14.976 175.08 14.976 174.072V173.928H21.312V174.072C21.312 174.936 22.032 175.8 23.04 175.8C23.904 175.8 24.768 175.08 24.768 174.072V173.64C25.632 173.208 26.064 172.344 26.064 171.336V159.096H27.36V161.976H28.8V159.096C28.8 158.376 28.08 157.512 27.072 157.512ZM23.328 172.344H12.672C12.24 172.344 11.808 171.912 11.808 171.48V166.584L12.96 167.448C13.392 167.736 13.968 167.88 14.4 167.88H21.744C22.32 167.88 22.896 167.736 23.328 167.304L24.048 166.728V171.48C24.192 171.912 23.76 172.344 23.328 172.344ZM24.192 159.24V164.568L22.464 166.008C22.32 166.152 22.176 166.152 21.888 166.152H18.864V159.24H24.192ZM17.136 166.152H14.4C14.256 166.152 14.112 166.152 13.968 166.008L11.808 164.424V159.24H17.136V166.152ZM13.536 155.928H22.464C23.328 155.928 24.192 156.648 24.192 157.656H11.808C11.808 156.648 12.528 155.928 13.536 155.928ZM14.832 170.184C14.832 170.616 14.4 171.048 13.968 171.048C13.536 171.048 13.104 170.616 13.104 170.184C13.104 169.752 13.536 169.32 13.968 169.32C14.4 169.32 14.832 169.752 14.832 170.184ZM22.896 170.184C22.896 170.616 22.464 171.048 22.032 171.048C21.6 171.048 21.168 170.616 21.168 170.184C21.168 169.752 21.6 169.32 22.032 169.32C22.464 169.32 22.896 169.752 22.896 170.184Z" fill="white"/>
<path d="M50.224 172.144C46.912 172.144 44.88 169.872 44.88 166.352V166.224C44.88 162.832 47.152 160.384 50.256 160.384C52.64 160.384 54.656 161.648 54.896 164.128H53.52C53.232 162.384 52.224 161.488 50.272 161.488C47.904 161.488 46.32 163.328 46.32 166.208V166.336C46.32 169.248 47.792 171.008 50.256 171.008C52.128 171.008 53.424 170.064 53.712 168.208H55.008C54.608 170.848 52.784 172.144 50.224 172.144ZM57.4591 172.08C56.8991 172.08 56.4351 171.632 56.4351 171.056C56.4351 170.48 56.8991 170.032 57.4591 170.032C58.0191 170.032 58.4831 170.48 58.4831 171.056C58.4831 171.632 58.0191 172.08 57.4591 172.08ZM68.3211 172L64.4331 160.56H65.8091L69.2171 170.656L72.6251 160.56H73.9371L69.9851 172H68.3211ZM78.2368 172.144C75.8688 172.144 74.1888 170.48 74.1888 167.904V167.776C74.1888 165.248 75.8048 163.488 78.1088 163.488C80.0448 163.488 81.8688 164.656 81.8688 167.648V168.08H75.5648C75.6288 169.984 76.5408 171.04 78.2528 171.04C79.5488 171.04 80.3008 170.56 80.4768 169.584H81.8048C81.5168 171.264 80.1248 172.144 78.2368 172.144ZM75.6128 167.008H80.5088C80.3808 165.28 79.4848 164.592 78.1088 164.592C76.7488 164.592 75.8368 165.52 75.6128 167.008ZM83.9065 172V163.632H85.2345V165.136C85.7625 164.192 86.4825 163.536 87.9865 163.488V164.736C86.3065 164.816 85.2345 165.344 85.2345 167.408V172H83.9065ZM92.8398 172.144C90.6478 172.144 89.0638 170.592 89.0638 167.984V167.856C89.0638 165.296 90.6638 163.488 92.9678 163.488C94.3598 163.488 95.2238 164.16 95.7038 164.976V159.632H97.0318V172H95.7038V170.56C95.2238 171.376 94.0558 172.144 92.8398 172.144ZM92.9838 171.04C94.5358 171.04 95.7518 170.016 95.7518 167.872V167.744C95.7518 165.6 94.7278 164.592 93.0958 164.592C91.4318 164.592 90.4398 165.76 90.4398 167.792V167.92C90.4398 170.032 91.5758 171.04 92.9838 171.04ZM103.143 172.144C100.775 172.144 99.095 170.48 99.095 167.904V167.776C99.095 165.248 100.711 163.488 103.015 163.488C104.951 163.488 106.775 164.656 106.775 167.648V168.08H100.471C100.535 169.984 101.447 171.04 103.159 171.04C104.455 171.04 105.207 170.56 105.383 169.584H106.711C106.423 171.264 105.031 172.144 103.143 172.144ZM100.519 167.008H105.415C105.287 165.28 104.391 164.592 103.015 164.592C101.655 164.592 100.743 165.52 100.519 167.008Z" fill="#383838"/>
<path d="M18 235C27.9411 235 36 226.941 36 217C36 207.059 27.9411 199 18 199C8.05887 199 0 207.059 0 217C0 226.941 8.05887 235 18 235Z" fill="#9B62E4"/>
<path d="M27.072 209.512H25.776C25.776 207.64 24.192 206.2 22.464 206.2H13.536C11.664 206.2 10.224 207.784 10.224 209.512H8.928C8.064 209.512 7.2 210.232 7.2 211.24V214.12H8.928V211.24H10.224V223.48C10.224 224.344 10.8 225.208 11.52 225.64V226.072C11.52 226.936 12.24 227.8 13.248 227.8C14.112 227.8 14.976 227.08 14.976 226.072V225.928H21.312V226.072C21.312 226.936 22.032 227.8 23.04 227.8C23.904 227.8 24.768 227.08 24.768 226.072V225.64C25.632 225.208 26.064 224.344 26.064 223.336V211.096H27.36V213.976H28.8V211.096C28.8 210.376 28.08 209.512 27.072 209.512ZM23.328 224.344H12.672C12.24 224.344 11.808 223.912 11.808 223.48V218.584L12.96 219.448C13.392 219.736 13.968 219.88 14.4 219.88H21.744C22.32 219.88 22.896 219.736 23.328 219.304L24.048 218.728V223.48C24.192 223.912 23.76 224.344 23.328 224.344ZM24.192 211.24V216.568L22.464 218.008C22.32 218.152 22.176 218.152 21.888 218.152H18.864V211.24H24.192ZM17.136 218.152H14.4C14.256 218.152 14.112 218.152 13.968 218.008L11.808 216.424V211.24H17.136V218.152ZM13.536 207.928H22.464C23.328 207.928 24.192 208.648 24.192 209.656H11.808C11.808 208.648 12.528 207.928 13.536 207.928ZM14.832 222.184C14.832 222.616 14.4 223.048 13.968 223.048C13.536 223.048 13.104 222.616 13.104 222.184C13.104 221.752 13.536 221.32 13.968 221.32C14.4 221.32 14.832 221.752 14.832 222.184ZM22.896 222.184C22.896 222.616 22.464 223.048 22.032 223.048C21.6 223.048 21.168 222.616 21.168 222.184C21.168 221.752 21.6 221.32 22.032 221.32C22.464 221.32 22.896 221.752 22.896 222.184Z" fill="white"/>
<path d="M50.224 224.144C46.912 224.144 44.88 221.872 44.88 218.352V218.224C44.88 214.832 47.152 212.384 50.256 212.384C52.64 212.384 54.656 213.648 54.896 216.128H53.52C53.232 214.384 52.224 213.488 50.272 213.488C47.904 213.488 46.32 215.328 46.32 218.208V218.336C46.32 221.248 47.792 223.008 50.256 223.008C52.128 223.008 53.424 222.064 53.712 220.208H55.008C54.608 222.848 52.784 224.144 50.224 224.144ZM57.4591 224.08C56.8991 224.08 56.4351 223.632 56.4351 223.056C56.4351 222.48 56.8991 222.032 57.4591 222.032C58.0191 222.032 58.4831 222.48 58.4831 223.056C58.4831 223.632 58.0191 224.08 57.4591 224.08ZM65.3931 224V212.56H67.3291L70.8651 221.472L74.2891 212.56H76.2091V224H74.8171V214.368L71.0251 224H70.5931L66.6731 214.368V224H65.3931ZM82.4723 224.144C80.0883 224.144 78.3763 222.336 78.3763 219.888V219.76C78.3763 217.248 80.1203 215.488 82.4883 215.488C84.8563 215.488 86.6003 217.232 86.6003 219.744V219.872C86.6003 222.4 84.8563 224.144 82.4723 224.144ZM82.4883 223.04C84.1683 223.04 85.2243 221.776 85.2243 219.888V219.776C85.2243 217.84 84.1523 216.592 82.4883 216.592C80.8083 216.592 79.7523 217.84 79.7523 219.76V219.888C79.7523 221.792 80.7923 223.04 82.4883 223.04ZM88.6565 224V215.632H89.9845V217.136C90.5125 216.192 91.2325 215.536 92.7365 215.488V216.736C91.0565 216.816 89.9845 217.344 89.9845 219.408V224H88.6565ZM96.69 224.144C95.138 224.144 93.906 223.392 93.906 221.68C93.906 219.744 95.954 219.088 98.098 219.088H99.298V218.48C99.298 217.152 98.786 216.592 97.506 216.592C96.354 216.592 95.714 217.072 95.586 218.096H94.258C94.434 216.192 95.954 215.488 97.57 215.488C99.17 215.488 100.626 216.144 100.626 218.48V224H99.298V222.944C98.674 223.728 97.922 224.144 96.69 224.144ZM96.818 223.088C98.226 223.088 99.298 222.368 99.298 221.072V220.032H98.146C96.466 220.032 95.234 220.448 95.234 221.68C95.234 222.544 95.65 223.088 96.818 223.088ZM106.387 224.144C104.195 224.144 102.611 222.592 102.611 219.984V219.856C102.611 217.296 104.211 215.488 106.515 215.488C107.907 215.488 108.771 216.16 109.251 216.976V211.632H110.579V224H109.251V222.56C108.771 223.376 107.603 224.144 106.387 224.144ZM106.531 223.04C108.083 223.04 109.299 222.016 109.299 219.872V219.744C109.299 217.6 108.275 216.592 106.643 216.592C104.979 216.592 103.987 217.76 103.987 219.792V219.92C103.987 222.032 105.123 223.04 106.531 223.04ZM116.738 224.144C114.354 224.144 112.642 222.336 112.642 219.888V219.76C112.642 217.248 114.386 215.488 116.754 215.488C119.122 215.488 120.866 217.232 120.866 219.744V219.872C120.866 222.4 119.122 224.144 116.738 224.144ZM116.754 223.04C118.434 223.04 119.49 221.776 119.49 219.888V219.776C119.49 217.84 118.418 216.592 116.754 216.592C115.074 216.592 114.018 217.84 114.018 219.76V219.888C114.018 221.792 115.058 223.04 116.754 223.04Z" fill="#383838"/>
<path d="M18 287C27.9411 287 36 278.941 36 269C36 259.059 27.9411 251 18 251C8.05887 251 0 259.059 0 269C0 278.941 8.05887 287 18 287Z" fill="#E3C62D"/>
<path d="M27.072 261.512H25.776C25.776 259.64 24.192 258.2 22.464 258.2H13.536C11.664 258.2 10.224 259.784 10.224 261.512H8.928C8.064 261.512 7.2 262.232 7.2 263.24V266.12H8.928V263.24H10.224V275.48C10.224 276.344 10.8 277.208 11.52 277.64V278.072C11.52 278.936 12.24 279.8 13.248 279.8C14.112 279.8 14.976 279.08 14.976 278.072V277.928H21.312V278.072C21.312 278.936 22.032 279.8 23.04 279.8C23.904 279.8 24.768 279.08 24.768 278.072V277.64C25.632 277.208 26.064 276.344 26.064 275.336V263.096H27.36V265.976H28.8V263.096C28.8 262.376 28.08 261.512 27.072 261.512ZM23.328 276.344H12.672C12.24 276.344 11.808 275.912 11.808 275.48V270.584L12.96 271.448C13.392 271.736 13.968 271.88 14.4 271.88H21.744C22.32 271.88 22.896 271.736 23.328 271.304L24.048 270.728V275.48C24.192 275.912 23.76 276.344 23.328 276.344ZM24.192 263.24V268.568L22.464 270.008C22.32 270.152 22.176 270.152 21.888 270.152H18.864V263.24H24.192ZM17.136 270.296H14.4C14.256 270.296 14.112 270.296 13.968 270.152L11.808 268.568V263.384H17.136V270.296ZM13.536 259.928H22.464C23.328 259.928 24.192 260.648 24.192 261.656H11.808C11.808 260.648 12.528 259.928 13.536 259.928ZM14.832 274.184C14.832 274.616 14.4 275.048 13.968 275.048C13.536 275.048 13.104 274.616 13.104 274.184C13.104 273.752 13.536 273.32 13.968 273.32C14.4 273.32 14.832 273.752 14.832 274.184ZM22.896 274.184C22.896 274.616 22.464 275.048 22.032 275.048C21.6 275.048 21.168 274.616 21.168 274.184C21.168 273.752 21.6 273.32 22.032 273.32C22.464 273.32 22.896 273.752 22.896 274.184Z" fill="white"/>
<path d="M50.224 276.144C46.912 276.144 44.88 273.872 44.88 270.352V270.224C44.88 266.832 47.152 264.384 50.256 264.384C52.64 264.384 54.656 265.648 54.896 268.128H53.52C53.232 266.384 52.224 265.488 50.272 265.488C47.904 265.488 46.32 267.328 46.32 270.208V270.336C46.32 273.248 47.792 275.008 50.256 275.008C52.128 275.008 53.424 274.064 53.712 272.208H55.008C54.608 274.848 52.784 276.144 50.224 276.144ZM57.4591 276.08C56.8991 276.08 56.4351 275.632 56.4351 275.056C56.4351 274.48 56.8991 274.032 57.4591 274.032C58.0191 274.032 58.4831 274.48 58.4831 275.056C58.4831 275.632 58.0191 276.08 57.4591 276.08ZM64.5291 276L68.4651 264.56H70.2891L74.1611 276H72.7851L71.6651 272.704H66.9451L65.8411 276H64.5291ZM69.3131 265.712L67.3291 271.6H71.2971L69.3131 265.712ZM76.0784 276V267.632H77.4064V268.912C77.7904 268.128 78.7024 267.488 79.9024 267.488C80.9744 267.488 81.9184 267.936 82.3504 269.056C82.9264 267.968 84.1744 267.488 85.2144 267.488C86.7184 267.488 88.0304 268.384 88.0304 270.816V276H86.7024V270.72C86.7024 269.248 86.0784 268.64 84.9264 268.64C83.8384 268.64 82.7184 269.376 82.7184 270.88V276H81.3904V270.72C81.3904 269.248 80.7664 268.64 79.6144 268.64C78.5264 268.64 77.4064 269.376 77.4064 270.88V276H76.0784ZM92.7369 276.144C91.1849 276.144 89.9529 275.392 89.9529 273.68C89.9529 271.744 92.0009 271.088 94.1449 271.088H95.3449V270.48C95.3449 269.152 94.8329 268.592 93.5529 268.592C92.4009 268.592 91.7609 269.072 91.6329 270.096H90.3049C90.4809 268.192 92.0009 267.488 93.6169 267.488C95.2169 267.488 96.6729 268.144 96.6729 270.48V276H95.3449V274.944C94.7209 275.728 93.9689 276.144 92.7369 276.144ZM92.8649 275.088C94.2729 275.088 95.3449 274.368 95.3449 273.072V272.032H94.1929C92.5129 272.032 91.2809 272.448 91.2809 273.68C91.2809 274.544 91.6969 275.088 92.8649 275.088ZM99.2815 276V267.632H100.61V269.136C101.138 268.192 101.858 267.536 103.362 267.488V268.736C101.682 268.816 100.61 269.344 100.61 271.408V276H99.2815ZM105.969 265.888C105.489 265.888 105.089 265.488 105.089 265.008C105.089 264.528 105.489 264.128 105.969 264.128C106.449 264.128 106.849 264.528 106.849 265.008C106.849 265.488 106.449 265.888 105.969 265.888ZM105.329 276V267.632H106.657V276H105.329ZM109.407 276V263.632H110.751V276H109.407ZM113.501 276V263.632H114.845V276H113.501ZM121.035 276.144C118.651 276.144 116.939 274.336 116.939 271.888V271.76C116.939 269.248 118.683 267.488 121.051 267.488C123.419 267.488 125.163 269.232 125.163 271.744V271.872C125.163 274.4 123.419 276.144 121.035 276.144ZM121.051 275.04C122.731 275.04 123.787 273.776 123.787 271.888V271.776C123.787 269.84 122.715 268.592 121.051 268.592C119.371 268.592 118.315 269.84 118.315 271.76V271.888C118.315 273.792 119.355 275.04 121.051 275.04Z" fill="#383838"/>
<path d="M191.54 22V7.7H195.82L199.16 16.6L202.46 7.7H206.66V22H203.44V11.96L199.48 22H198.42L194.44 11.96V22H191.54ZM214.245 22.22C211.085 22.22 208.785 20.24 208.785 16.9V16.74C208.785 13.44 211.125 11.3 214.165 11.3C216.865 11.3 219.265 12.88 219.265 16.62V17.42H211.725C211.805 19.16 212.745 20.16 214.325 20.16C215.665 20.16 216.325 19.58 216.505 18.7H219.245C218.905 20.96 217.105 22.22 214.245 22.22ZM211.765 15.64H216.445C216.345 14.06 215.545 13.3 214.165 13.3C212.865 13.3 211.985 14.16 211.765 15.64ZM224.983 22.2C222.783 22.2 221.603 21.08 221.603 18.9V13.6H220.263V11.54H221.603V9.28H224.483V11.54H226.683V13.6H224.483V18.64C224.483 19.48 224.903 19.88 225.643 19.88C226.083 19.88 226.403 19.82 226.743 19.68V21.92C226.343 22.06 225.763 22.2 224.983 22.2ZM228.702 22V11.54H231.602V13.54C232.262 12.14 233.282 11.4 234.982 11.38V14.08C232.842 14.06 231.602 14.76 231.602 16.76V22H228.702ZM241.57 22.22C238.45 22.22 236.07 20.14 236.07 16.88V16.72C236.07 13.44 238.45 11.3 241.59 11.3C244.73 11.3 247.09 13.4 247.09 16.66V16.82C247.09 20.12 244.71 22.22 241.57 22.22ZM241.59 20.02C243.21 20.02 244.15 18.82 244.15 16.84V16.7C244.15 14.7 243.21 13.5 241.59 13.5C239.99 13.5 239.03 14.66 239.03 16.66V16.82C239.03 18.82 239.95 20.02 241.59 20.02ZM249.034 25.56V11.54H251.934V13.18C252.514 12.18 253.734 11.3 255.274 11.3C257.834 11.3 259.834 13.2 259.834 16.66V16.82C259.834 20.28 257.874 22.22 255.274 22.22C253.654 22.22 252.474 21.42 251.934 20.4V25.56H249.034ZM254.414 19.96C256.014 19.96 256.894 18.88 256.894 16.84V16.68C256.894 14.56 255.854 13.52 254.394 13.52C252.874 13.52 251.834 14.58 251.834 16.68V16.84C251.834 18.94 252.834 19.96 254.414 19.96ZM266.628 22.22C263.508 22.22 261.128 20.14 261.128 16.88V16.72C261.128 13.44 263.508 11.3 266.648 11.3C269.788 11.3 272.148 13.4 272.148 16.66V16.82C272.148 20.12 269.768 22.22 266.628 22.22ZM266.648 20.02C268.268 20.02 269.208 18.82 269.208 16.84V16.7C269.208 14.7 268.268 13.5 266.648 13.5C265.048 13.5 264.088 14.66 264.088 16.66V16.82C264.088 18.82 265.008 20.02 266.648 20.02ZM274.173 22V6.8H277.053V22H274.173ZM281.198 10.12C280.278 10.12 279.558 9.44 279.558 8.54C279.558 7.64 280.278 6.96 281.198 6.96C282.138 6.96 282.858 7.64 282.858 8.54C282.858 9.44 282.138 10.12 281.198 10.12ZM279.778 22V11.54H282.658V22H279.778ZM289.143 22.2C286.943 22.2 285.763 21.08 285.763 18.9V13.6H284.423V11.54H285.763V9.28H288.643V11.54H290.843V13.6H288.643V18.64C288.643 19.48 289.063 19.88 289.803 19.88C290.243 19.88 290.563 19.82 290.903 19.68V21.92C290.503 22.06 289.923 22.2 289.143 22.2ZM295.741 22.22C293.841 22.22 292.241 21.3 292.241 19.1C292.241 16.66 294.481 15.74 297.681 15.74H298.861V15.32C298.861 14.08 298.481 13.4 297.161 13.4C296.021 13.4 295.501 13.98 295.381 14.88H292.641C292.821 12.4 294.781 11.3 297.341 11.3C299.901 11.3 301.721 12.34 301.721 15.18V22H298.901V20.74C298.301 21.58 297.381 22.22 295.741 22.22ZM296.601 20.2C297.881 20.2 298.861 19.5 298.861 18.34V17.46H297.741C296.061 17.46 295.081 17.82 295.081 18.94C295.081 19.7 295.541 20.2 296.601 20.2ZM304.21 22V11.54H307.11V13.2C307.63 12.16 308.77 11.3 310.51 11.3C312.57 11.3 314.03 12.54 314.03 15.34V22H311.13V15.76C311.13 14.34 310.57 13.66 309.29 13.66C308.05 13.66 307.11 14.42 307.11 15.96V22H304.21ZM321.374 22.22C318.254 22.22 315.874 20.14 315.874 16.88V16.72C315.874 13.44 318.254 11.3 321.394 11.3C324.534 11.3 326.894 13.4 326.894 16.66V16.82C326.894 20.12 324.514 22.22 321.374 22.22ZM321.394 20.02C323.014 20.02 323.954 18.82 323.954 16.84V16.7C323.954 14.7 323.014 13.5 321.394 13.5C319.794 13.5 318.834 14.66 318.834 16.66V16.82C318.834 18.82 319.754 20.02 321.394 20.02Z" fill="#383838"/>
<path d="M208 79C217.941 79 226 70.9411 226 61C226 51.0589 217.941 43 208 43C198.059 43 190 51.0589 190 61C190 70.9411 198.059 79 208 79Z" fill="#2A49B6"/>
<path fill-rule="evenodd" clip-rule="evenodd" d="M215.92 53.5121H217.216C218.08 53.5121 218.944 54.2321 218.944 55.2401V58.1201H217.216V55.2401H215.92V67.4801C215.92 68.4881 215.344 69.3521 214.624 69.7841V70.2161C214.624 71.0801 213.904 71.9441 212.896 71.9441C212.032 71.9441 211.168 71.2241 211.168 70.2161V70.0721H204.832V70.2161C204.832 71.0801 204.112 71.9441 203.104 71.9441C202.096 71.9441 201.376 71.2241 201.376 70.2161V69.7841C200.656 69.3521 200.08 68.4881 200.08 67.6241V55.2401H198.784V58.1201H197.056V55.2401C197.056 54.3761 197.776 53.5121 198.784 53.5121H200.08C200.08 51.6401 201.664 50.2001 203.392 50.2001H212.32C214.336 50.2001 215.92 51.7841 215.92 53.5121ZM202.672 68.3441H213.328C213.76 68.3441 214.192 67.9121 214.192 67.4801V63.8801L213.472 64.4561C213.04 64.8881 212.464 65.0321 211.888 65.0321H204.544C203.968 65.0321 203.536 64.8881 203.104 64.6001L201.952 63.7361V67.4801C201.808 67.9121 202.24 68.3441 202.672 68.3441ZM212.464 51.9281H203.536C202.672 51.9281 201.808 52.6481 201.808 53.6561H214.192C214.192 52.6481 213.472 51.9281 212.464 51.9281ZM203.968 67.6241C204.4 67.6241 206.128 67.1921 206.128 66.7601C206.128 66.3281 204.4 65.8961 203.968 65.8961C203.536 65.8961 203.104 66.3281 203.104 66.7601C203.104 67.3361 203.536 67.6241 203.968 67.6241ZM212.032 67.6241C212.464 67.6241 212.896 67.1921 212.896 66.7601C212.896 66.3281 212.464 65.8961 212.032 65.8961C211.6 65.8961 210.016 66.3281 210.016 66.7601C210.016 67.3361 211.6 67.6241 212.032 67.6241ZM214.192 61.7201V55.2401H201.808V61.7201L203.968 63.3041C204.112 63.4481 204.256 63.4481 204.4 63.4481H211.888C212.032 63.4481 212.32 63.4481 212.464 63.3041L214.192 61.7201Z" fill="white"/>
<path d="M235.44 68V56.56H237.376L240.912 65.472L244.336 56.56H246.256V68H244.864V58.368L241.072 68H240.64L236.72 58.368V68H235.44ZM249.959 68.08C249.399 68.08 248.935 67.632 248.935 67.056C248.935 66.48 249.399 66.032 249.959 66.032C250.519 66.032 250.983 66.48 250.983 67.056C250.983 67.632 250.519 68.08 249.959 68.08ZM260.245 68V57.696H256.917V56.56H264.965V57.696H261.637V68H260.245ZM266.125 68V59.632H267.453V61.136C267.981 60.192 268.701 59.536 270.205 59.488V60.736C268.525 60.816 267.453 61.344 267.453 63.408V68H266.125ZM275.379 68.144C272.995 68.144 271.283 66.336 271.283 63.888V63.76C271.283 61.248 273.027 59.488 275.395 59.488C277.763 59.488 279.507 61.232 279.507 63.744V63.872C279.507 66.4 277.763 68.144 275.379 68.144ZM275.395 67.04C277.075 67.04 278.131 65.776 278.131 63.888V63.776C278.131 61.84 277.059 60.592 275.395 60.592C273.715 60.592 272.659 61.84 272.659 63.76V63.888C272.659 65.792 273.699 67.04 275.395 67.04ZM281.563 68V59.632H282.891V60.96C283.275 60.176 284.203 59.488 285.579 59.488C287.307 59.488 288.523 60.432 288.523 62.864V68H287.195V62.768C287.195 61.296 286.571 60.64 285.227 60.64C283.995 60.64 282.891 61.424 282.891 62.928V68H281.563ZM294.597 68.144C292.261 68.144 290.501 66.496 290.501 63.904V63.776C290.501 61.216 292.325 59.488 294.565 59.488C296.309 59.488 297.941 60.288 298.197 62.416H296.885C296.677 61.088 295.717 60.592 294.565 60.592C293.045 60.592 291.877 61.808 291.877 63.776V63.904C291.877 65.952 292.997 67.04 294.613 67.04C295.797 67.04 296.869 66.352 297.013 64.992H298.245C298.069 66.8 296.613 68.144 294.597 68.144ZM302.346 68.144C300.794 68.144 299.562 67.392 299.562 65.68C299.562 63.744 301.61 63.088 303.754 63.088H304.954V62.48C304.954 61.152 304.442 60.592 303.162 60.592C302.01 60.592 301.37 61.072 301.242 62.096H299.914C300.09 60.192 301.61 59.488 303.226 59.488C304.826 59.488 306.282 60.144 306.282 62.48V68H304.954V66.944C304.33 67.728 303.578 68.144 302.346 68.144ZM302.474 67.088C303.882 67.088 304.954 66.368 304.954 65.072V64.032H303.802C302.122 64.032 300.89 64.448 300.89 65.68C300.89 66.544 301.306 67.088 302.474 67.088ZM308.923 68V55.632H310.267V68H308.923Z" fill="#383838"/>
<path d="M208 131C217.941 131 226 122.941 226 113C226 103.059 217.941 95 208 95C198.059 95 190 103.059 190 113C190 122.941 198.059 131 208 131Z" fill="#3CA7B6"/>
<path fill-rule="evenodd" clip-rule="evenodd" d="M215.92 105.512H217.216C218.08 105.512 218.944 106.232 218.944 107.24V110.12H217.216V107.24H215.92V119.48C215.92 120.488 215.344 121.352 214.624 121.784V122.216C214.624 123.08 213.904 123.944 212.896 123.944C212.032 123.944 211.168 123.224 211.168 122.216V122.072H204.832V122.216C204.832 123.08 204.112 123.944 203.104 123.944C202.096 123.944 201.376 123.224 201.376 122.216V121.784C200.656 121.352 200.08 120.488 200.08 119.624V107.384H198.784V110.264H197.056V107.384C197.056 106.52 197.776 105.656 198.784 105.656H200.08C200.08 103.784 201.664 102.344 203.392 102.344H212.32C214.336 102.2 215.92 103.784 215.92 105.512ZM202.672 120.344H213.328C213.76 120.344 214.192 119.912 214.192 119.48V115.88L213.472 116.456C213.04 116.888 212.464 117.032 211.888 117.032H204.544C203.968 117.032 203.536 116.888 203.104 116.6L201.952 115.736V119.48C201.808 119.912 202.24 120.344 202.672 120.344ZM212.464 103.928H203.536C202.672 103.928 201.808 104.648 201.808 105.656H214.192C214.192 104.648 213.472 103.928 212.464 103.928ZM203.968 119.624C204.4 119.624 206.128 119.192 206.128 118.76C206.128 118.328 204.4 117.896 203.968 117.896C203.536 117.896 203.104 118.328 203.104 118.76C203.104 119.336 203.536 119.624 203.968 119.624ZM212.032 119.624C212.464 119.624 212.896 119.192 212.896 118.76C212.896 118.328 212.464 117.896 212.032 117.896C211.6 117.896 210.016 118.328 210.016 118.76C210.016 119.336 211.6 119.624 212.032 119.624ZM214.192 113.72V107.24H201.808V113.72L203.968 115.304C204.112 115.448 204.256 115.448 204.4 115.448H211.888C212.032 115.448 212.32 115.448 212.464 115.304L214.192 113.72Z" fill="white"/>
<path d="M235.44 120V108.56H237.376L240.912 117.472L244.336 108.56H246.256V120H244.864V110.368L241.072 120H240.64L236.72 110.368V120H235.44ZM249.959 120.08C249.399 120.08 248.935 119.632 248.935 119.056C248.935 118.48 249.399 118.032 249.959 118.032C250.519 118.032 250.983 118.48 250.983 119.056C250.983 119.632 250.519 120.08 249.959 120.08ZM257.893 120V108.56H264.565V109.696H259.285V113.584H263.541V114.72H259.285V118.864H264.853V120H257.893ZM266.042 120L269.034 115.696L266.234 111.632H267.786L269.834 114.672L271.866 111.632H273.306L270.538 115.6L273.594 120H272.026L269.77 116.624L267.466 120H266.042ZM275.391 122.912V111.632H276.719V113.04C277.199 112.224 278.335 111.488 279.551 111.488C281.743 111.488 283.359 113.088 283.359 115.696V115.824C283.359 118.384 281.855 120.144 279.551 120.144C278.175 120.144 277.199 119.456 276.719 118.624V122.912H275.391ZM279.423 119.04C281.087 119.04 281.983 117.92 281.983 115.888V115.76C281.983 113.648 280.815 112.592 279.407 112.592C277.855 112.592 276.671 113.616 276.671 115.76V115.888C276.671 118.032 277.791 119.04 279.423 119.04ZM285.422 120V111.632H286.75V113.136C287.278 112.192 287.998 111.536 289.502 111.488V112.736C287.822 112.816 286.75 113.344 286.75 115.408V120H285.422ZM294.627 120.144C292.259 120.144 290.579 118.48 290.579 115.904V115.776C290.579 113.248 292.195 111.488 294.499 111.488C296.435 111.488 298.259 112.656 298.259 115.648V116.08H291.955C292.019 117.984 292.931 119.04 294.643 119.04C295.939 119.04 296.691 118.56 296.867 117.584H298.195C297.907 119.264 296.515 120.144 294.627 120.144ZM292.003 115.008H296.899C296.771 113.28 295.875 112.592 294.499 112.592C293.139 112.592 292.227 113.52 292.003 115.008ZM302.967 120.144C300.967 120.144 299.767 119.136 299.687 117.424H300.983C301.079 118.416 301.607 119.04 302.951 119.04C304.215 119.04 304.775 118.608 304.775 117.712C304.775 116.832 304.119 116.544 302.823 116.304C300.647 115.904 299.911 115.296 299.911 113.84C299.911 112.288 301.431 111.488 302.743 111.488C304.247 111.488 305.543 112.096 305.767 113.904H304.487C304.295 112.992 303.783 112.592 302.727 112.592C301.767 112.592 301.143 113.072 301.143 113.792C301.143 114.544 301.559 114.848 303.095 115.12C304.823 115.44 306.039 115.824 306.039 117.6C306.039 119.12 304.999 120.144 302.967 120.144ZM311.535 120.144C309.151 120.144 307.439 118.336 307.439 115.888V115.76C307.439 113.248 309.183 111.488 311.551 111.488C313.919 111.488 315.663 113.232 315.663 115.744V115.872C315.663 118.4 313.919 120.144 311.535 120.144ZM311.551 119.04C313.231 119.04 314.287 117.776 314.287 115.888V115.776C314.287 113.84 313.215 112.592 311.551 112.592C309.871 112.592 308.815 113.84 308.815 115.76V115.888C308.815 117.792 309.855 119.04 311.551 119.04Z" fill="#383838"/>
<path d="M208 183C217.941 183 226 174.941 226 165C226 155.059 217.941 147 208 147C198.059 147 190 155.059 190 165C190 174.941 198.059 183 208 183Z" fill="#B65353"/>
<path fill-rule="evenodd" clip-rule="evenodd" d="M215.92 157.512H217.216C218.08 157.512 218.944 158.232 218.944 159.24V162.12H217.216V159.24H215.92V171.48C215.92 172.488 215.344 173.352 214.624 173.784V174.216C214.624 175.08 213.904 175.944 212.896 175.944C212.032 175.944 211.168 175.224 211.168 174.216V174.072H204.832V174.216C204.832 175.08 204.112 175.944 203.104 175.944C202.096 175.944 201.376 175.224 201.376 174.216V173.784C200.656 173.352 200.08 172.488 200.08 171.624V159.384H198.784V162.264H197.056V159.384C197.056 158.52 197.776 157.656 198.784 157.656H200.08C200.08 155.784 201.664 154.344 203.392 154.344H212.32C214.336 154.2 215.92 155.784 215.92 157.512ZM202.672 172.344H213.328C213.76 172.344 214.192 171.912 214.192 171.48V167.88L213.472 168.456C213.04 168.888 212.464 169.032 211.888 169.032H204.544C203.968 169.032 203.536 168.888 203.104 168.6L201.952 167.736V171.48C201.808 171.912 202.24 172.344 202.672 172.344ZM212.464 155.928H203.536C202.672 155.928 201.808 156.648 201.808 157.656H214.192C214.192 156.648 213.472 155.928 212.464 155.928ZM203.968 171.624C204.4 171.624 206.128 171.192 206.128 170.76C206.128 170.328 204.4 169.896 203.968 169.896C203.536 169.896 203.104 170.328 203.104 170.76C203.104 171.336 203.536 171.624 203.968 171.624ZM212.032 171.624C212.464 171.624 212.896 171.192 212.896 170.76C212.896 170.328 212.464 169.896 212.032 169.896C211.6 169.896 210.016 170.328 210.016 170.76C210.016 171.336 211.6 171.624 212.032 171.624ZM214.192 165.72V159.24H201.808V165.72L203.968 167.304C204.112 167.448 204.256 167.448 204.4 167.448H211.888C212.032 167.448 212.32 167.448 212.464 167.304L214.192 165.72Z" fill="white"/>
<path d="M235.44 172V160.56H237.376L240.912 169.472L244.336 160.56H246.256V172H244.864V162.368L241.072 172H240.64L236.72 162.368V172H235.44ZM249.959 172.08C249.399 172.08 248.935 171.632 248.935 171.056C248.935 170.48 249.399 170.032 249.959 170.032C250.519 170.032 250.983 170.48 250.983 171.056C250.983 171.632 250.519 172.08 249.959 172.08ZM257.029 172L260.965 160.56H262.789L266.661 172H265.285L264.165 168.704H259.445L258.341 172H257.029ZM261.813 161.712L259.829 167.6H263.797L261.813 161.712ZM268.61 172V159.632H269.954V172H268.61ZM273.344 161.888C272.864 161.888 272.464 161.488 272.464 161.008C272.464 160.528 272.864 160.128 273.344 160.128C273.824 160.128 274.224 160.528 274.224 161.008C274.224 161.488 273.824 161.888 273.344 161.888ZM272.704 172V163.632H274.032V172H272.704ZM276.75 172V163.632H278.078V164.912C278.462 164.128 279.374 163.488 280.574 163.488C281.646 163.488 282.59 163.936 283.022 165.056C283.598 163.968 284.846 163.488 285.886 163.488C287.39 163.488 288.702 164.384 288.702 166.816V172H287.374V166.72C287.374 165.248 286.75 164.64 285.598 164.64C284.51 164.64 283.39 165.376 283.39 166.88V172H282.062V166.72C282.062 165.248 281.438 164.64 280.286 164.64C279.198 164.64 278.078 165.376 278.078 166.88V172H276.75ZM294.737 172.144C292.369 172.144 290.689 170.48 290.689 167.904V167.776C290.689 165.248 292.305 163.488 294.609 163.488C296.545 163.488 298.369 164.656 298.369 167.648V168.08H292.065C292.129 169.984 293.041 171.04 294.753 171.04C296.049 171.04 296.801 170.56 296.977 169.584H298.305C298.017 171.264 296.625 172.144 294.737 172.144ZM292.113 167.008H297.009C296.881 165.28 295.985 164.592 294.609 164.592C293.249 164.592 292.337 165.52 292.113 167.008ZM300.407 172V163.632H301.735V164.96C302.119 164.176 303.047 163.488 304.423 163.488C306.151 163.488 307.367 164.432 307.367 166.864V172H306.039V166.768C306.039 165.296 305.415 164.64 304.071 164.64C302.839 164.64 301.735 165.424 301.735 166.928V172H300.407ZM312.513 172.112C310.993 172.112 310.257 171.216 310.257 169.904V164.752H309.057V163.632H310.257V161.728H311.585V163.632H313.537V164.752H311.585V169.776C311.585 170.592 311.953 170.992 312.625 170.992C313.041 170.992 313.361 170.928 313.649 170.816V171.936C313.377 172.032 313.057 172.112 312.513 172.112ZM317.831 172.144C316.279 172.144 315.047 171.392 315.047 169.68C315.047 167.744 317.095 167.088 319.239 167.088H320.439V166.48C320.439 165.152 319.927 164.592 318.647 164.592C317.495 164.592 316.855 165.072 316.727 166.096H315.399C315.575 164.192 317.095 163.488 318.711 163.488C320.311 163.488 321.767 164.144 321.767 166.48V172H320.439V170.944C319.815 171.728 319.063 172.144 317.831 172.144ZM317.959 171.088C319.367 171.088 320.439 170.368 320.439 169.072V168.032H319.287C317.607 168.032 316.375 168.448 316.375 169.68C316.375 170.544 316.791 171.088 317.959 171.088ZM327.527 172.144C325.335 172.144 323.751 170.592 323.751 167.984V167.856C323.751 165.296 325.351 163.488 327.655 163.488C329.047 163.488 329.911 164.16 330.391 164.976V159.632H331.719V172H330.391V170.56C329.911 171.376 328.743 172.144 327.527 172.144ZM327.671 171.04C329.223 171.04 330.439 170.016 330.439 167.872V167.744C330.439 165.6 329.415 164.592 327.783 164.592C326.119 164.592 325.127 165.76 325.127 167.792V167.92C325.127 170.032 326.263 171.04 327.671 171.04ZM337.879 172.144C335.495 172.144 333.783 170.336 333.783 167.888V167.76C333.783 165.248 335.527 163.488 337.895 163.488C340.263 163.488 342.007 165.232 342.007 167.744V167.872C342.007 170.4 340.263 172.144 337.879 172.144ZM337.895 171.04C339.575 171.04 340.631 169.776 340.631 167.888V167.776C340.631 165.84 339.559 164.592 337.895 164.592C336.215 164.592 335.159 165.84 335.159 167.76V167.888C335.159 169.792 336.199 171.04 337.895 171.04ZM344.063 172V163.632H345.391V165.136C345.919 164.192 346.639 163.536 348.143 163.488V164.736C346.463 164.816 345.391 165.344 345.391 167.408V172H344.063Z" fill="#383838"/>
<path d="M417.34 22V10.22H413.48V7.7H424.46V10.22H420.6V22H417.34ZM425.53 22V11.54H428.43V13.54C429.09 12.14 430.11 11.4 431.81 11.38V14.08C429.67 14.06 428.43 14.76 428.43 16.76V22H425.53ZM438.358 22.22C435.198 22.22 432.898 20.24 432.898 16.9V16.74C432.898 13.44 435.238 11.3 438.278 11.3C440.978 11.3 443.378 12.88 443.378 16.62V17.42H435.838C435.918 19.16 436.858 20.16 438.438 20.16C439.778 20.16 440.438 19.58 440.618 18.7H443.358C443.018 20.96 441.218 22.22 438.358 22.22ZM435.878 15.64H440.558C440.458 14.06 439.658 13.3 438.278 13.3C436.978 13.3 436.098 14.16 435.878 15.64ZM445.276 22V11.54H448.176V13.2C448.696 12.16 449.836 11.3 451.576 11.3C453.636 11.3 455.096 12.54 455.096 15.34V22H452.196V15.76C452.196 14.34 451.636 13.66 450.356 13.66C449.116 13.66 448.176 14.42 448.176 15.96V22H445.276ZM462.274 22V7.7H471.594V10.22H465.494V13.56H470.374V15.92H465.494V19.48H471.914V22H462.274ZM473.989 22V6.8H476.869V22H473.989ZM483.034 10.12L484.174 6.94H487.214L485.134 10.12H483.034ZM484.334 22.22C481.174 22.22 478.874 20.24 478.874 16.9V16.74C478.874 13.44 481.214 11.3 484.254 11.3C486.954 11.3 489.354 12.88 489.354 16.62V17.42H481.814C481.894 19.16 482.834 20.16 484.414 20.16C485.754 20.16 486.414 19.58 486.594 18.7H489.334C488.994 20.96 487.194 22.22 484.334 22.22ZM481.854 15.64H486.534C486.434 14.06 485.634 13.3 484.254 13.3C482.954 13.3 482.074 14.16 481.854 15.64ZM495.993 22.22C492.933 22.22 490.613 20.32 490.613 16.9V16.74C490.613 13.36 493.033 11.3 496.013 11.3C498.433 11.3 500.673 12.36 500.933 15.36H498.193C497.993 14.14 497.253 13.58 496.073 13.58C494.573 13.58 493.573 14.7 493.573 16.7V16.86C493.573 18.96 494.513 20.04 496.133 20.04C497.293 20.04 498.233 19.36 498.373 18.02H500.993C500.833 20.5 499.033 22.22 495.993 22.22ZM506.635 22.2C504.435 22.2 503.255 21.08 503.255 18.9V13.6H501.915V11.54H503.255V9.28H506.135V11.54H508.335V13.6H506.135V18.64C506.135 19.48 506.555 19.88 507.295 19.88C507.735 19.88 508.055 19.82 508.395 19.68V21.92C507.995 22.06 507.415 22.2 506.635 22.2ZM510.354 22V11.54H513.254V13.54C513.914 12.14 514.934 11.4 516.634 11.38V14.08C514.494 14.06 513.254 14.76 513.254 16.76V22H510.354ZM520.038 10.12C519.118 10.12 518.398 9.44 518.398 8.54C518.398 7.64 519.118 6.96 520.038 6.96C520.978 6.96 521.698 7.64 521.698 8.54C521.698 9.44 520.978 10.12 520.038 10.12ZM518.618 22V11.54H521.498V22H518.618ZM528.903 22.22C525.843 22.22 523.523 20.32 523.523 16.9V16.74C523.523 13.36 525.943 11.3 528.923 11.3C531.343 11.3 533.583 12.36 533.843 15.36H531.103C530.903 14.14 530.163 13.58 528.983 13.58C527.483 13.58 526.483 14.7 526.483 16.7V16.86C526.483 18.96 527.423 20.04 529.043 20.04C530.203 20.04 531.143 19.36 531.283 18.02H533.903C533.743 20.5 531.943 22.22 528.903 22.22ZM540.585 22.22C537.465 22.22 535.085 20.14 535.085 16.88V16.72C535.085 13.44 537.465 11.3 540.605 11.3C543.745 11.3 546.105 13.4 546.105 16.66V16.82C546.105 20.12 543.725 22.22 540.585 22.22ZM540.605 20.02C542.225 20.02 543.165 18.82 543.165 16.84V16.7C543.165 14.7 542.225 13.5 540.605 13.5C539.005 13.5 538.045 14.66 538.045 16.66V16.82C538.045 18.82 538.965 20.02 540.605 20.02Z" fill="#383838"/>
<path d="M431 79C440.941 79 449 70.9411 449 61C449 51.0589 440.941 43 431 43C421.059 43 413 51.0589 413 61C413 70.9411 421.059 79 431 79Z" fill="#00E190"/>
<path d="M426.536 54.3761H429.704V51.9281H426.536C426.104 51.9281 425.672 52.3601 425.672 52.7921H423.944C423.944 51.3521 425.096 50.2001 426.536 50.2001H434.6C436.04 50.2001 437.192 51.3521 437.192 52.7921H435.464C435.464 52.3601 435.032 51.9281 434.6 51.9281H431.288V54.3761H434.6C436.904 54.3761 438.776 56.2481 438.776 58.5521V67.9121C438.776 69.3521 437.624 70.5041 436.184 70.5041H435.896L437.048 71.8001H434.744L433.592 70.5041H427.112L425.96 71.8001H423.656L424.808 70.5041H424.52C423.08 70.5041 421.928 69.3521 421.928 67.9121V58.5521C422.36 56.2481 424.232 54.3761 426.536 54.3761ZM423.944 58.5521V62.0081H426.248V56.1041C425.096 56.1041 423.944 57.2561 423.944 58.5521ZM433.16 56.1041H428.12V62.1521H433.16V56.1041ZM434.888 56.1041V62.1521H437.192V58.6961C437.192 57.2561 436.184 56.1041 434.888 56.1041ZM424.808 68.7761H436.328C436.76 68.7761 437.192 68.3441 437.192 67.9121V63.5921H423.944V67.9121C423.944 68.4881 424.376 68.7761 424.808 68.7761ZM434.168 66.7601C434.168 67.1921 434.6 67.6241 435.032 67.6241C435.464 67.6241 435.896 67.1921 435.896 66.7601C435.896 66.3281 435.464 65.8961 435.032 65.8961C434.6 65.8961 434.168 66.3281 434.168 66.7601ZM425.24 66.7601C425.24 67.1921 425.672 67.6241 426.104 67.6241C426.536 67.6241 426.968 67.1921 426.968 66.7601C426.968 66.3281 426.536 65.8961 426.104 65.8961C425.672 65.8961 425.24 66.3281 425.24 66.7601Z" fill="white"/>
<path d="M460.792 68V57.696H457.464V56.56H465.512V57.696H462.184V68H460.792ZM466.303 68.08C465.743 68.08 465.279 67.632 465.279 67.056C465.279 66.48 465.743 66.032 466.303 66.032C466.863 66.032 467.327 66.48 467.327 67.056C467.327 67.632 466.863 68.08 466.303 68.08ZM474.237 68V56.56H475.629V66.864H480.861V68H474.237ZM482.799 58.192L483.791 55.84H485.455L483.791 58.192H482.799ZM482.735 68V59.632H484.063V68H482.735ZM486.782 68V59.632H488.11V60.96C488.494 60.176 489.422 59.488 490.798 59.488C492.526 59.488 493.742 60.432 493.742 62.864V68H492.414V62.768C492.414 61.296 491.79 60.64 490.446 60.64C489.214 60.64 488.11 61.424 488.11 62.928V68H486.782ZM499.768 68.144C497.4 68.144 495.72 66.48 495.72 63.904V63.776C495.72 61.248 497.336 59.488 499.64 59.488C501.576 59.488 503.4 60.656 503.4 63.648V64.08H497.096C497.16 65.984 498.072 67.04 499.784 67.04C501.08 67.04 501.832 66.56 502.008 65.584H503.336C503.048 67.264 501.656 68.144 499.768 68.144ZM497.144 63.008H502.04C501.912 61.28 501.016 60.592 499.64 60.592C498.28 60.592 497.368 61.52 497.144 63.008ZM507.612 68.144C506.06 68.144 504.828 67.392 504.828 65.68C504.828 63.744 506.876 63.088 509.02 63.088H510.22V62.48C510.22 61.152 509.708 60.592 508.428 60.592C507.276 60.592 506.636 61.072 506.508 62.096H505.18C505.356 60.192 506.876 59.488 508.492 59.488C510.092 59.488 511.548 60.144 511.548 62.48V68H510.22V66.944C509.596 67.728 508.844 68.144 507.612 68.144ZM507.74 67.088C509.148 67.088 510.22 66.368 510.22 65.072V64.032H509.068C507.388 64.032 506.156 64.448 506.156 65.68C506.156 66.544 506.572 67.088 507.74 67.088ZM520.135 68V57.936L517.575 59.776V58.48L520.231 56.56H521.527V68H520.135Z" fill="#383838"/>
<path d="M431 131C440.941 131 449 122.941 449 113C449 103.059 440.941 95 431 95C421.059 95 413 103.059 413 113C413 122.941 421.059 131 431 131Z" fill="#2CCCFF"/>
<path d="M426.536 106.376H429.704V103.928H426.536C426.104 103.928 425.672 104.36 425.672 104.792H423.944C423.944 103.352 425.096 102.2 426.536 102.2H434.6C436.04 102.2 437.192 103.352 437.192 104.792H435.464C435.464 104.36 435.032 103.928 434.6 103.928H431.288V106.376H434.6C436.904 106.376 438.776 108.248 438.776 110.552V119.912C438.776 121.352 437.624 122.504 436.184 122.504H435.896L437.048 123.8H434.744L433.592 122.504H427.112L425.96 123.8H423.656L424.808 122.504H424.52C423.08 122.504 421.928 121.352 421.928 119.912V110.552C422.36 108.248 424.232 106.376 426.536 106.376ZM423.944 110.552V114.008H426.248V107.96C425.096 108.104 423.944 109.256 423.944 110.552ZM433.16 108.104H428.12V114.152H433.16V108.104ZM434.888 108.104V114.152H437.192V110.696C437.192 109.256 436.184 108.104 434.888 108.104ZM424.808 120.776H436.328C436.76 120.776 437.192 120.344 437.192 119.912V115.592H423.944V119.912C423.944 120.488 424.376 120.776 424.808 120.776ZM434.168 118.76C434.168 119.192 434.6 119.624 435.032 119.624C435.464 119.624 435.896 119.192 435.896 118.76C435.896 118.328 435.464 117.896 435.032 117.896C434.6 117.896 434.168 118.328 434.168 118.76ZM425.24 118.76C425.24 119.192 425.672 119.624 426.104 119.624C426.536 119.624 426.968 119.192 426.968 118.76C426.968 118.328 426.536 117.896 426.104 117.896C425.672 117.896 425.24 118.328 425.24 118.76Z" fill="white"/>
<path d="M460.792 120V109.696H457.464V108.56H465.512V109.696H462.184V120H460.792ZM466.303 120.08C465.743 120.08 465.279 119.632 465.279 119.056C465.279 118.48 465.743 118.032 466.303 118.032C466.863 118.032 467.327 118.48 467.327 119.056C467.327 119.632 466.863 120.08 466.303 120.08ZM474.237 120V108.56H475.629V118.864H480.861V120H474.237ZM482.799 110.192L483.791 107.84H485.455L483.791 110.192H482.799ZM482.735 120V111.632H484.063V120H482.735ZM486.782 120V111.632H488.11V112.96C488.494 112.176 489.422 111.488 490.798 111.488C492.526 111.488 493.742 112.432 493.742 114.864V120H492.414V114.768C492.414 113.296 491.79 112.64 490.446 112.64C489.214 112.64 488.11 113.424 488.11 114.928V120H486.782ZM499.768 120.144C497.4 120.144 495.72 118.48 495.72 115.904V115.776C495.72 113.248 497.336 111.488 499.64 111.488C501.576 111.488 503.4 112.656 503.4 115.648V116.08H497.096C497.16 117.984 498.072 119.04 499.784 119.04C501.08 119.04 501.832 118.56 502.008 117.584H503.336C503.048 119.264 501.656 120.144 499.768 120.144ZM497.144 115.008H502.04C501.912 113.28 501.016 112.592 499.64 112.592C498.28 112.592 497.368 113.52 497.144 115.008ZM507.612 120.144C506.06 120.144 504.828 119.392 504.828 117.68C504.828 115.744 506.876 115.088 509.02 115.088H510.22V114.48C510.22 113.152 509.708 112.592 508.428 112.592C507.276 112.592 506.636 113.072 506.508 114.096H505.18C505.356 112.192 506.876 111.488 508.492 111.488C510.092 111.488 511.548 112.144 511.548 114.48V120H510.22V118.944C509.596 119.728 508.844 120.144 507.612 120.144ZM507.74 119.088C509.148 119.088 510.22 118.368 510.22 117.072V116.032H509.068C507.388 116.032 506.156 116.448 506.156 117.68C506.156 118.544 506.572 119.088 507.74 119.088ZM517.351 120V119.68L521.895 114.896C522.935 113.792 523.543 112.752 523.543 111.584C523.543 110.304 522.791 109.536 521.495 109.536C520.167 109.536 519.303 110.288 519.079 112.08H517.783C517.959 109.84 519.319 108.416 521.495 108.416C523.607 108.416 524.951 109.664 524.951 111.632C524.951 113.04 524.055 114.416 522.647 115.792L519.495 118.864H525.015V120H517.351Z" fill="#383838"/>
<path d="M431 183C440.941 183 449 174.941 449 165C449 155.059 440.941 147 431 147C421.059 147 413 155.059 413 165C413 174.941 421.059 183 431 183Z" fill="#E100A2"/>
<path d="M426.536 158.376H429.704V155.928H426.536C426.104 155.928 425.672 156.36 425.672 156.792H423.944C423.944 155.352 425.096 154.2 426.536 154.2H434.6C436.04 154.2 437.192 155.352 437.192 156.792H435.464C435.464 156.36 435.032 155.928 434.6 155.928H431.288V158.376H434.6C436.904 158.376 438.776 160.248 438.776 162.552V171.912C438.776 173.352 437.624 174.504 436.184 174.504H435.896L437.048 175.8H434.744L433.592 174.504H427.112L425.96 175.8H423.656L424.808 174.504H424.52C423.08 174.504 421.928 173.352 421.928 171.912V162.552C422.36 160.248 424.232 158.376 426.536 158.376ZM423.944 162.552V166.008H426.248V159.96C425.096 160.104 423.944 161.256 423.944 162.552ZM433.16 160.104H428.12V166.152H433.16V160.104ZM434.888 160.104V166.152H437.192V162.696C437.192 161.256 436.184 160.104 434.888 160.104ZM424.808 172.776H436.328C436.76 172.776 437.192 172.344 437.192 171.912V167.592H423.944V171.912C423.944 172.488 424.376 172.776 424.808 172.776ZM434.168 170.76C434.168 171.192 434.6 171.624 435.032 171.624C435.464 171.624 435.896 171.192 435.896 170.76C435.896 170.328 435.464 169.896 435.032 169.896C434.6 169.896 434.168 170.328 434.168 170.76ZM425.24 170.76C425.24 171.192 425.672 171.624 426.104 171.624C426.536 171.624 426.968 171.192 426.968 170.76C426.968 170.328 426.536 169.896 426.104 169.896C425.672 169.896 425.24 170.328 425.24 170.76Z" fill="white"/>
<path d="M460.792 172V161.696H457.464V160.56H465.512V161.696H462.184V172H460.792ZM466.303 172.08C465.743 172.08 465.279 171.632 465.279 171.056C465.279 170.48 465.743 170.032 466.303 170.032C466.863 170.032 467.327 170.48 467.327 171.056C467.327 171.632 466.863 172.08 466.303 172.08ZM474.237 172V160.56H475.629V170.864H480.861V172H474.237ZM482.799 162.192L483.791 159.84H485.455L483.791 162.192H482.799ZM482.735 172V163.632H484.063V172H482.735ZM486.782 172V163.632H488.11V164.96C488.494 164.176 489.422 163.488 490.798 163.488C492.526 163.488 493.742 164.432 493.742 166.864V172H492.414V166.768C492.414 165.296 491.79 164.64 490.446 164.64C489.214 164.64 488.11 165.424 488.11 166.928V172H486.782ZM499.768 172.144C497.4 172.144 495.72 170.48 495.72 167.904V167.776C495.72 165.248 497.336 163.488 499.64 163.488C501.576 163.488 503.4 164.656 503.4 167.648V168.08H497.096C497.16 169.984 498.072 171.04 499.784 171.04C501.08 171.04 501.832 170.56 502.008 169.584H503.336C503.048 171.264 501.656 172.144 499.768 172.144ZM497.144 167.008H502.04C501.912 165.28 501.016 164.592 499.64 164.592C498.28 164.592 497.368 165.52 497.144 167.008ZM507.612 172.144C506.06 172.144 504.828 171.392 504.828 169.68C504.828 167.744 506.876 167.088 509.02 167.088H510.22V166.48C510.22 165.152 509.708 164.592 508.428 164.592C507.276 164.592 506.636 165.072 506.508 166.096H505.18C505.356 164.192 506.876 163.488 508.492 163.488C510.092 163.488 511.548 164.144 511.548 166.48V172H510.22V170.944C509.596 171.728 508.844 172.144 507.612 172.144ZM507.74 171.088C509.148 171.088 510.22 170.368 510.22 169.072V168.032H509.068C507.388 168.032 506.156 168.448 506.156 169.68C506.156 170.544 506.572 171.088 507.74 171.088ZM521.687 172.144C519.255 172.144 517.767 170.624 517.687 168.624H518.967C519.095 169.984 519.911 171.024 521.719 171.024C523.511 171.024 524.327 170.16 524.327 168.816C524.327 167.344 523.527 166.592 521.911 166.592H521.047V165.424H521.847C523.335 165.424 523.991 164.72 523.991 163.472C523.991 162.384 523.303 161.552 521.911 161.552C520.487 161.552 519.527 162.416 519.383 163.712H518.167C518.247 161.904 519.735 160.416 521.911 160.416C524.087 160.416 525.351 161.856 525.351 163.44C525.351 164.736 524.583 165.504 523.543 165.936C524.887 166.288 525.751 167.232 525.751 168.816C525.751 170.896 524.055 172.144 521.687 172.144Z" fill="#383838"/>
<path d="M431 235C440.941 235 449 226.941 449 217C449 207.059 440.941 199 431 199C421.059 199 413 207.059 413 217C413 226.941 421.059 235 431 235Z" fill="#FFA800"/>
<path d="M426.536 210.376H429.704V207.928H426.536C426.104 207.928 425.672 208.36 425.672 208.792H423.944C423.944 207.352 425.096 206.2 426.536 206.2H434.6C436.04 206.2 437.192 207.352 437.192 208.792H435.464C435.464 208.36 435.032 207.928 434.6 207.928H431.288V210.376H434.6C436.904 210.376 438.776 212.248 438.776 214.552V223.912C438.776 225.352 437.624 226.504 436.184 226.504H435.896L437.048 227.8H434.744L433.592 226.504H427.112L425.96 227.8H423.656L424.808 226.504H424.52C423.08 226.504 421.928 225.352 421.928 223.912V214.552C422.36 212.248 424.232 210.376 426.536 210.376ZM423.944 214.552V218.008H426.248V211.96C425.096 212.104 423.944 213.256 423.944 214.552ZM433.16 212.104H428.12V218.152H433.16V212.104ZM434.888 212.104V218.152H437.192V214.696C437.192 213.256 436.184 212.104 434.888 212.104ZM424.808 224.776H436.328C436.76 224.776 437.192 224.344 437.192 223.912V219.592H423.944V223.912C423.944 224.488 424.376 224.776 424.808 224.776ZM434.168 222.76C434.168 223.192 434.6 223.624 435.032 223.624C435.464 223.624 435.896 223.192 435.896 222.76C435.896 222.328 435.464 221.896 435.032 221.896C434.6 221.896 434.168 222.328 434.168 222.76ZM425.24 222.76C425.24 223.192 425.672 223.624 426.104 223.624C426.536 223.624 426.968 223.192 426.968 222.76C426.968 222.328 426.536 221.896 426.104 221.896C425.672 221.896 425.24 222.328 425.24 222.76Z" fill="white"/>
<path d="M460.792 224V213.696H457.464V212.56H465.512V213.696H462.184V224H460.792ZM466.303 224.08C465.743 224.08 465.279 223.632 465.279 223.056C465.279 222.48 465.743 222.032 466.303 222.032C466.863 222.032 467.327 222.48 467.327 223.056C467.327 223.632 466.863 224.08 466.303 224.08ZM474.237 224V212.56H475.629V222.864H480.861V224H474.237ZM482.799 214.192L483.791 211.84H485.455L483.791 214.192H482.799ZM482.735 224V215.632H484.063V224H482.735ZM486.782 224V215.632H488.11V216.96C488.494 216.176 489.422 215.488 490.798 215.488C492.526 215.488 493.742 216.432 493.742 218.864V224H492.414V218.768C492.414 217.296 491.79 216.64 490.446 216.64C489.214 216.64 488.11 217.424 488.11 218.928V224H486.782ZM499.768 224.144C497.4 224.144 495.72 222.48 495.72 219.904V219.776C495.72 217.248 497.336 215.488 499.64 215.488C501.576 215.488 503.4 216.656 503.4 219.648V220.08H497.096C497.16 221.984 498.072 223.04 499.784 223.04C501.08 223.04 501.832 222.56 502.008 221.584H503.336C503.048 223.264 501.656 224.144 499.768 224.144ZM497.144 219.008H502.04C501.912 217.28 501.016 216.592 499.64 216.592C498.28 216.592 497.368 217.52 497.144 219.008ZM507.612 224.144C506.06 224.144 504.828 223.392 504.828 221.68C504.828 219.744 506.876 219.088 509.02 219.088H510.22V218.48C510.22 217.152 509.708 216.592 508.428 216.592C507.276 216.592 506.636 217.072 506.508 218.096H505.18C505.356 216.192 506.876 215.488 508.492 215.488C510.092 215.488 511.548 216.144 511.548 218.48V224H510.22V222.944C509.596 223.728 508.844 224.144 507.612 224.144ZM507.74 223.088C509.148 223.088 510.22 222.368 510.22 221.072V220.032H509.068C507.388 220.032 506.156 220.448 506.156 221.68C506.156 222.544 506.572 223.088 507.74 223.088ZM523.399 224V221.6H517.671V221.152L522.903 212.56H524.759V220.464H526.343V221.6H524.759V224H523.399ZM519.431 220.464H523.399V213.616L519.431 220.464Z" fill="#383838"/>
</svg>
