<svg width="762" height="138" viewBox="0 0 762 138" fill="none" xmlns="http://www.w3.org/2000/svg">
<path d="M81.4835 12.375H90.8713V5H81.4835C80.1031 5 78.9801 6.12148 78.9801 7.5H73.9733C73.9733 3.36406 77.342 0 81.4835 0H105.516C109.657 0 113.026 3.36406 113.026 7.5H108.02C108.02 6.12148 106.896 5 105.516 5H95.8781V12.375H105.516C112.418 12.375 118.033 17.9824 118.033 24.875V52.75C118.033 56.8859 114.664 60.25 110.523 60.25H109.878L113.263 64H106.522L103.136 60.25H83.8629L80.4771 64H73.7359L77.1214 60.25H76.4767C72.3352 60.25 68.9665 56.8859 68.9665 52.75V24.875C68.9665 17.9824 74.5816 12.375 81.4835 12.375ZM73.9733 24.875V35.125H80.9829V17.3938C77.0744 17.652 73.9733 20.9078 73.9733 24.875ZM101.01 17.375H85.9897V35.125H101.01V17.375ZM106.017 17.3938V35.125H113.026V24.875C113.026 20.9078 109.925 17.652 106.017 17.3938ZM76.4767 55.25H110.523C111.903 55.25 113.026 54.1285 113.026 52.75V40.125H73.9733V52.75C73.9733 54.1285 75.0963 55.25 76.4767 55.25ZM104.264 49C104.264 50.3809 105.385 51.5 106.768 51.5C108.151 51.5 109.271 50.3809 109.271 49C109.271 47.6191 108.151 46.5 106.768 46.5C105.385 46.5 104.264 47.6191 104.264 49ZM77.8536 49C77.8536 50.3809 78.9743 51.5 80.357 51.5C81.7397 51.5 82.8604 50.3809 82.8604 49C82.8604 47.6191 81.7397 46.5 80.357 46.5C78.9743 46.5 77.8536 47.6191 77.8536 49Z" fill="#0073FF"/>
<path d="M45.8233 91V80.696H42.4953V79.56H50.5433V80.696H47.2153V91H45.8233ZM51.7034 91V82.632H53.0314V84.136C53.5594 83.192 54.2794 82.536 55.7834 82.488V83.736C54.1034 83.816 53.0314 84.344 53.0314 86.408V91H51.7034ZM60.9086 91.144C58.5406 91.144 56.8606 89.48 56.8606 86.904V86.776C56.8606 84.248 58.4766 82.488 60.7806 82.488C62.7166 82.488 64.5406 83.656 64.5406 86.648V87.08H58.2366C58.3006 88.984 59.2126 90.04 60.9246 90.04C62.2206 90.04 62.9726 89.56 63.1486 88.584H64.4766C64.1886 90.264 62.7966 91.144 60.9086 91.144ZM58.2846 86.008H63.1806C63.0526 84.28 62.1566 83.592 60.7806 83.592C59.4206 83.592 58.5086 84.52 58.2846 86.008ZM66.5784 91V82.632H67.9064V83.96C68.2904 83.176 69.2184 82.488 70.5944 82.488C72.3224 82.488 73.5384 83.432 73.5384 85.864V91H72.2104V85.768C72.2104 84.296 71.5864 83.64 70.2424 83.64C69.0104 83.64 67.9064 84.424 67.9064 85.928V91H66.5784ZM80.4713 91V79.56H87.1433V80.696H81.8633V84.584H86.1193V85.72H81.8633V89.864H87.4313V91H80.4713ZM89.4698 91V78.632H90.8138V91H89.4698ZM96.2355 81.192L97.2275 78.84H98.8915L97.2275 81.192H96.2355ZM96.9555 91.144C94.5875 91.144 92.9075 89.48 92.9075 86.904V86.776C92.9075 84.248 94.5235 82.488 96.8275 82.488C98.7635 82.488 100.588 83.656 100.588 86.648V87.08H94.2835C94.3475 88.984 95.2595 90.04 96.9715 90.04C98.2675 90.04 99.0195 89.56 99.1955 88.584H100.524C100.236 90.264 98.8435 91.144 96.9555 91.144ZM94.3315 86.008H99.2275C99.0995 84.28 98.2035 83.592 96.8275 83.592C95.4675 83.592 94.5555 84.52 94.3315 86.008ZM106.097 91.144C103.761 91.144 102.001 89.496 102.001 86.904V86.776C102.001 84.216 103.825 82.488 106.065 82.488C107.809 82.488 109.441 83.288 109.697 85.416H108.385C108.177 84.088 107.217 83.592 106.065 83.592C104.545 83.592 103.377 84.808 103.377 86.776V86.904C103.377 88.952 104.497 90.04 106.113 90.04C107.297 90.04 108.369 89.352 108.513 87.992H109.745C109.569 89.8 108.113 91.144 106.097 91.144ZM114.294 91.112C112.774 91.112 112.038 90.216 112.038 88.904V83.752H110.838V82.632H112.038V80.728H113.366V82.632H115.318V83.752H113.366V88.776C113.366 89.592 113.734 89.992 114.406 89.992C114.822 89.992 115.142 89.928 115.43 89.816V90.936C115.158 91.032 114.838 91.112 114.294 91.112ZM117.438 91V82.632H118.766V84.136C119.294 83.192 120.014 82.536 121.518 82.488V83.736C119.838 83.816 118.766 84.344 118.766 86.408V91H117.438ZM124.125 80.888C123.645 80.888 123.245 80.488 123.245 80.008C123.245 79.528 123.645 79.128 124.125 79.128C124.605 79.128 125.005 79.528 125.005 80.008C125.005 80.488 124.605 80.888 124.125 80.888ZM123.485 91V82.632H124.813V91H123.485ZM131.004 91.144C128.668 91.144 126.908 89.496 126.908 86.904V86.776C126.908 84.216 128.732 82.488 130.972 82.488C132.716 82.488 134.348 83.288 134.604 85.416H133.292C133.084 84.088 132.124 83.592 130.972 83.592C129.452 83.592 128.284 84.808 128.284 86.776V86.904C128.284 88.952 129.404 90.04 131.02 90.04C132.204 90.04 133.276 89.352 133.42 87.992H134.652C134.476 89.8 133.02 91.144 131.004 91.144ZM140.129 91.144C137.745 91.144 136.033 89.336 136.033 86.888V86.76C136.033 84.248 137.777 82.488 140.145 82.488C142.513 82.488 144.257 84.232 144.257 86.744V86.872C144.257 89.4 142.513 91.144 140.129 91.144ZM140.145 90.04C141.825 90.04 142.881 88.776 142.881 86.888V86.776C142.881 84.84 141.809 83.592 140.145 83.592C138.465 83.592 137.409 84.84 137.409 86.76V86.888C137.409 88.792 138.449 90.04 140.145 90.04Z" fill="#383838"/>
<path d="M73.5928 111.776C72.4888 110.48 71.6008 108.644 71.6008 106.256C71.6008 103.868 72.4888 102.02 73.5928 100.724H74.5888C73.5088 102.068 72.6448 103.784 72.6448 106.256C72.6448 108.728 73.5088 110.432 74.5888 111.776H73.5928ZM77.7932 110V102.272H75.2972V101.42H81.3332V102.272H78.8372V110H77.7932ZM82.2033 110V103.724H83.1993V104.852C83.5953 104.144 84.1353 103.652 85.2633 103.616V104.552C84.0033 104.612 83.1993 105.008 83.1993 106.556V110H82.2033ZM89.1073 110.108C87.3313 110.108 86.0713 108.86 86.0713 106.928V106.832C86.0713 104.936 87.2833 103.616 89.0113 103.616C90.4633 103.616 91.8313 104.492 91.8313 106.736V107.06H87.1033C87.1513 108.488 87.8353 109.28 89.1193 109.28C90.0913 109.28 90.6553 108.92 90.7873 108.188H91.7833C91.5673 109.448 90.5233 110.108 89.1073 110.108ZM87.1393 106.256H90.8113C90.7153 104.96 90.0433 104.444 89.0113 104.444C87.9913 104.444 87.3073 105.14 87.1393 106.256ZM93.3596 110V103.724H94.3556V104.72C94.6436 104.132 95.3396 103.616 96.3716 103.616C97.6676 103.616 98.5796 104.324 98.5796 106.148V110H97.5836V106.076C97.5836 104.972 97.1156 104.48 96.1076 104.48C95.1836 104.48 94.3556 105.068 94.3556 106.196V110H93.3596ZM103.099 110.108C101.323 110.108 100.063 108.86 100.063 106.928V106.832C100.063 104.936 101.275 103.616 103.003 103.616C104.455 103.616 105.823 104.492 105.823 106.736V107.06H101.095C101.143 108.488 101.827 109.28 103.111 109.28C104.083 109.28 104.647 108.92 104.779 108.188H105.775C105.559 109.448 104.515 110.108 103.099 110.108ZM101.131 106.256H104.803C104.707 104.96 104.035 104.444 103.003 104.444C101.983 104.444 101.299 105.14 101.131 106.256ZM109.354 110.108C107.854 110.108 106.954 109.352 106.894 108.068H107.866C107.938 108.812 108.334 109.28 109.342 109.28C110.29 109.28 110.71 108.956 110.71 108.284C110.71 107.624 110.218 107.408 109.246 107.228C107.614 106.928 107.062 106.472 107.062 105.38C107.062 104.216 108.202 103.616 109.186 103.616C110.314 103.616 111.286 104.072 111.454 105.428H110.494C110.35 104.744 109.966 104.444 109.174 104.444C108.454 104.444 107.986 104.804 107.986 105.344C107.986 105.908 108.298 106.136 109.45 106.34C110.746 106.58 111.658 106.868 111.658 108.2C111.658 109.34 110.878 110.108 109.354 110.108ZM112.408 111.74C113.488 110.396 114.352 108.68 114.352 106.208C114.352 103.736 113.488 102.032 112.408 100.688H113.404C114.508 101.984 115.396 103.82 115.396 106.208C115.396 108.596 114.508 110.444 113.404 111.74H112.408Z" fill="#808C97"/>
<path fill-rule="evenodd" clip-rule="evenodd" d="M406.43 10H410.531C413.547 10 416 12.243 416 15V23.375H410.531V15H406.43V51.25C406.43 54.1219 404.654 56.6207 402.055 57.8805V59C402.055 61.757 399.601 64 396.586 64C393.57 64 391.117 61.757 391.117 59V58.75H370.609V59C370.609 61.757 368.156 64 365.141 64C362.125 64 359.672 61.757 359.672 59V57.7414C357.223 56.4418 355.57 54.0199 355.57 51.25V15H351.469V23.375H346V15C346 12.243 348.453 10 351.469 10H355.57C355.57 4.48594 360.477 0 366.508 0H395.492C401.523 0 406.43 4.48594 406.43 10ZM363.773 53.75H398.227C399.734 53.75 400.961 52.6285 400.961 51.25V40.6391L398.782 42.3188C397.304 43.4575 395.427 44.0845 393.495 44.0845H369.529C367.772 44.0845 366.093 43.5821 364.677 42.6313L361.039 40.1907V51.25C361.039 52.6285 362.266 53.75 363.773 53.75ZM395.492 5H366.508C363.492 5 361.039 7.24297 361.039 10H400.961C400.961 7.24297 398.508 5 395.492 5ZM367.875 51.7297C369.385 51.7297 374.851 50.6106 374.851 49.2297C374.851 47.8489 369.385 46.7297 367.875 46.7297C366.365 46.7297 365.141 47.8489 365.141 49.2297C365.141 50.6106 366.365 51.7297 367.875 51.7297ZM393.988 51.7297C395.499 51.7297 396.723 50.6106 396.723 49.2297C396.723 47.8489 395.499 46.7297 393.988 46.7297C392.478 46.7297 387.622 47.8489 387.622 49.2297C387.622 50.6106 392.478 51.7297 393.988 51.7297ZM400.961 34.0997V15H361.039V33.9888L367.912 38.6001C368.384 38.9169 368.944 39.0845 369.529 39.0845H378.266H383.734H393.495C394.139 39.0845 394.765 38.8755 395.257 38.4954L400.961 34.0997Z" fill="#0073FF"/>
<path d="M321.042 91V79.56H327.714V80.696H322.434V84.584H326.69V85.72H322.434V89.864H328.002V91H321.042ZM330.04 91V78.632H331.384V91H330.04ZM338.432 91V79.56H340.368L343.904 88.472L347.328 79.56H349.248V91H347.856V81.368L344.064 91H343.632L339.712 81.368V91H338.432ZM355.463 91.144C353.095 91.144 351.415 89.48 351.415 86.904V86.776C351.415 84.248 353.031 82.488 355.335 82.488C357.271 82.488 359.095 83.656 359.095 86.648V87.08H352.791C352.855 88.984 353.767 90.04 355.479 90.04C356.775 90.04 357.527 89.56 357.703 88.584H359.031C358.743 90.264 357.351 91.144 355.463 91.144ZM352.839 86.008H357.735C357.607 84.28 356.711 83.592 355.335 83.592C353.975 83.592 353.063 84.52 352.839 86.008ZM363.677 91.112C362.157 91.112 361.421 90.216 361.421 88.904V83.752H360.221V82.632H361.421V80.728H362.749V82.632H364.701V83.752H362.749V88.776C362.749 89.592 363.117 89.992 363.789 89.992C364.205 89.992 364.525 89.928 364.813 89.816V90.936C364.541 91.032 364.221 91.112 363.677 91.112ZM366.821 91V82.632H368.149V84.136C368.677 83.192 369.397 82.536 370.901 82.488V83.736C369.221 83.816 368.149 84.344 368.149 86.408V91H366.821ZM376.074 91.144C373.69 91.144 371.978 89.336 371.978 86.888V86.76C371.978 84.248 373.722 82.488 376.09 82.488C378.458 82.488 380.202 84.232 380.202 86.744V86.872C380.202 89.4 378.458 91.144 376.074 91.144ZM376.09 90.04C377.77 90.04 378.826 88.776 378.826 86.888V86.776C378.826 84.84 377.754 83.592 376.09 83.592C374.41 83.592 373.354 84.84 373.354 86.76V86.888C373.354 88.792 374.394 90.04 376.09 90.04ZM382.258 93.912V82.632H383.586V84.04C384.066 83.224 385.202 82.488 386.418 82.488C388.61 82.488 390.226 84.088 390.226 86.696V86.824C390.226 89.384 388.722 91.144 386.418 91.144C385.042 91.144 384.066 90.456 383.586 89.624V93.912H382.258ZM386.29 90.04C387.954 90.04 388.85 88.92 388.85 86.888V86.76C388.85 84.648 387.682 83.592 386.274 83.592C384.722 83.592 383.538 84.616 383.538 86.76V86.888C383.538 89.032 384.658 90.04 386.29 90.04ZM395.761 91.144C393.377 91.144 391.665 89.336 391.665 86.888V86.76C391.665 84.248 393.409 82.488 395.777 82.488C398.145 82.488 399.889 84.232 399.889 86.744V86.872C399.889 89.4 398.145 91.144 395.761 91.144ZM395.777 90.04C397.457 90.04 398.513 88.776 398.513 86.888V86.776C398.513 84.84 397.441 83.592 395.777 83.592C394.097 83.592 393.041 84.84 393.041 86.76V86.888C393.041 88.792 394.081 90.04 395.777 90.04ZM401.978 91V78.632H403.322V91H401.978ZM406.711 80.888C406.231 80.888 405.831 80.488 405.831 80.008C405.831 79.528 406.231 79.128 406.711 79.128C407.191 79.128 407.591 79.528 407.591 80.008C407.591 80.488 407.191 80.888 406.711 80.888ZM406.071 91V82.632H407.399V91H406.071ZM412.661 91.112C411.141 91.112 410.405 90.216 410.405 88.904V83.752H409.205V82.632H410.405V80.728H411.733V82.632H413.685V83.752H411.733V88.776C411.733 89.592 412.101 89.992 412.773 89.992C413.189 89.992 413.509 89.928 413.797 89.816V90.936C413.525 91.032 413.205 91.112 412.661 91.112ZM417.979 91.144C416.427 91.144 415.195 90.392 415.195 88.68C415.195 86.744 417.243 86.088 419.387 86.088H420.587V85.48C420.587 84.152 420.075 83.592 418.795 83.592C417.643 83.592 417.003 84.072 416.875 85.096H415.547C415.723 83.192 417.243 82.488 418.859 82.488C420.459 82.488 421.915 83.144 421.915 85.48V91H420.587V89.944C419.963 90.728 419.211 91.144 417.979 91.144ZM418.107 90.088C419.515 90.088 420.587 89.368 420.587 88.072V87.032H419.435C417.755 87.032 416.523 87.448 416.523 88.68C416.523 89.544 416.939 90.088 418.107 90.088ZM424.524 91V82.632H425.852V83.96C426.236 83.176 427.164 82.488 428.54 82.488C430.268 82.488 431.484 83.432 431.484 85.864V91H430.156V85.768C430.156 84.296 429.532 83.64 428.188 83.64C426.956 83.64 425.852 84.424 425.852 85.928V91H424.524ZM437.558 91.144C435.174 91.144 433.462 89.336 433.462 86.888V86.76C433.462 84.248 435.206 82.488 437.574 82.488C439.942 82.488 441.686 84.232 441.686 86.744V86.872C441.686 89.4 439.942 91.144 437.558 91.144ZM437.574 90.04C439.254 90.04 440.31 88.776 440.31 86.888V86.776C440.31 84.84 439.238 83.592 437.574 83.592C435.894 83.592 434.838 84.84 434.838 86.76V86.888C434.838 88.792 435.878 90.04 437.574 90.04Z" fill="#383838"/>
<path d="M299.628 111.776C298.524 110.48 297.636 108.644 297.636 106.256C297.636 103.868 298.524 102.02 299.628 100.724H300.624C299.544 102.068 298.68 103.784 298.68 106.256C298.68 108.728 299.544 110.432 300.624 111.776H299.628ZM301.947 110V101.42H304.527C306.123 101.42 307.287 101.948 307.287 103.64V103.688C307.287 104.468 306.975 105.164 305.991 105.5C307.239 105.8 307.707 106.436 307.707 107.552V107.6C307.707 109.22 306.603 110 304.887 110H301.947ZM302.967 105.164H304.527C305.787 105.164 306.267 104.708 306.267 103.652V103.604C306.267 102.632 305.703 102.236 304.503 102.236H302.967V105.164ZM302.967 109.184H304.863C306.111 109.184 306.687 108.632 306.687 107.588V107.54C306.687 106.484 306.099 105.98 304.719 105.98H302.967V109.184ZM311.464 110.108C310.216 110.108 309.28 109.424 309.28 107.696V103.724H310.276V107.648C310.276 108.752 310.744 109.244 311.728 109.244C312.616 109.244 313.456 108.656 313.456 107.528V103.724H314.452V110H313.456V109.004C313.168 109.592 312.472 110.108 311.464 110.108ZM318.409 110.108C316.909 110.108 316.009 109.352 315.949 108.068H316.921C316.993 108.812 317.389 109.28 318.397 109.28C319.345 109.28 319.765 108.956 319.765 108.284C319.765 107.624 319.273 107.408 318.301 107.228C316.669 106.928 316.117 106.472 316.117 105.38C316.117 104.216 317.257 103.616 318.241 103.616C319.369 103.616 320.341 104.072 320.509 105.428H319.549C319.405 104.744 319.021 104.444 318.229 104.444C317.509 104.444 317.041 104.804 317.041 105.344C317.041 105.908 317.353 106.136 318.505 106.34C319.801 106.58 320.713 106.868 320.713 108.2C320.713 109.34 319.933 110.108 318.409 110.108ZM324.799 110.108C323.023 110.108 321.763 108.86 321.763 106.928V106.832C321.763 104.936 322.975 103.616 324.703 103.616C326.155 103.616 327.523 104.492 327.523 106.736V107.06H322.795C322.843 108.488 323.527 109.28 324.811 109.28C325.783 109.28 326.347 108.92 326.479 108.188H327.475C327.259 109.448 326.215 110.108 324.799 110.108ZM322.831 106.256H326.503C326.407 104.96 325.735 104.444 324.703 104.444C323.683 104.444 322.999 105.14 322.831 106.256ZM331.054 110.108C329.554 110.108 328.654 109.352 328.594 108.068H329.566C329.638 108.812 330.034 109.28 331.042 109.28C331.99 109.28 332.41 108.956 332.41 108.284C332.41 107.624 331.918 107.408 330.946 107.228C329.314 106.928 328.762 106.472 328.762 105.38C328.762 104.216 329.902 103.616 330.886 103.616C332.014 103.616 332.986 104.072 333.154 105.428H332.194C332.05 104.744 331.666 104.444 330.874 104.444C330.154 104.444 329.686 104.804 329.686 105.344C329.686 105.908 329.998 106.136 331.15 106.34C332.446 106.58 333.358 106.868 333.358 108.2C333.358 109.34 332.578 110.108 331.054 110.108ZM340.619 110.108C338.843 110.108 337.583 108.86 337.583 106.928V106.832C337.583 104.936 338.795 103.616 340.523 103.616C341.975 103.616 343.343 104.492 343.343 106.736V107.06H338.615C338.663 108.488 339.347 109.28 340.631 109.28C341.603 109.28 342.167 108.92 342.299 108.188H343.295C343.079 109.448 342.035 110.108 340.619 110.108ZM338.651 106.256H342.323C342.227 104.96 341.555 104.444 340.523 104.444C339.503 104.444 338.819 105.14 338.651 106.256ZM344.871 110V103.724H345.867V104.72C346.155 104.132 346.851 103.616 347.883 103.616C349.179 103.616 350.091 104.324 350.091 106.148V110H349.095V106.076C349.095 104.972 348.627 104.48 347.619 104.48C346.695 104.48 345.867 105.068 345.867 106.196V110H344.871ZM357.823 110.108C356.071 110.108 354.751 108.872 354.751 106.928V106.832C354.751 104.912 356.119 103.616 357.799 103.616C359.107 103.616 360.331 104.216 360.523 105.812H359.539C359.383 104.816 358.663 104.444 357.799 104.444C356.659 104.444 355.783 105.356 355.783 106.832V106.928C355.783 108.464 356.623 109.28 357.835 109.28C358.723 109.28 359.527 108.764 359.635 107.744H360.559C360.427 109.1 359.335 110.108 357.823 110.108ZM363.635 110.108C362.471 110.108 361.547 109.544 361.547 108.26C361.547 106.808 363.083 106.316 364.691 106.316H365.591V105.86C365.591 104.864 365.207 104.444 364.247 104.444C363.383 104.444 362.903 104.804 362.807 105.572H361.811C361.943 104.144 363.083 103.616 364.295 103.616C365.495 103.616 366.587 104.108 366.587 105.86V110H365.591V109.208C365.123 109.796 364.559 110.108 363.635 110.108ZM363.731 109.316C364.787 109.316 365.591 108.776 365.591 107.804V107.024H364.727C363.467 107.024 362.543 107.336 362.543 108.26C362.543 108.908 362.855 109.316 363.731 109.316ZM368.543 110V103.724H369.539V104.852C369.935 104.144 370.475 103.652 371.603 103.616V104.552C370.343 104.612 369.539 105.008 369.539 106.556V110H368.543ZM373.055 110V103.724H374.051V104.852C374.447 104.144 374.987 103.652 376.115 103.616V104.552C374.855 104.612 374.051 105.008 374.051 106.556V110H373.055ZM378.071 102.416C377.711 102.416 377.411 102.116 377.411 101.756C377.411 101.396 377.711 101.096 378.071 101.096C378.431 101.096 378.731 101.396 378.731 101.756C378.731 102.116 378.431 102.416 378.071 102.416ZM377.591 110V103.724H378.587V110H377.591ZM380.649 110V100.724H381.657V110H380.649ZM386.264 110.108C384.488 110.108 383.228 108.86 383.228 106.928V106.832C383.228 104.936 384.44 103.616 386.168 103.616C387.62 103.616 388.988 104.492 388.988 106.736V107.06H384.26C384.308 108.488 384.992 109.28 386.276 109.28C387.248 109.28 387.812 108.92 387.944 108.188H388.94C388.724 109.448 387.68 110.108 386.264 110.108ZM384.296 106.256H387.968C387.872 104.96 387.2 104.444 386.168 104.444C385.148 104.444 384.464 105.14 384.296 106.256ZM392.518 110.108C391.018 110.108 390.118 109.352 390.058 108.068H391.03C391.102 108.812 391.498 109.28 392.506 109.28C393.454 109.28 393.874 108.956 393.874 108.284C393.874 107.624 393.382 107.408 392.41 107.228C390.778 106.928 390.226 106.472 390.226 105.38C390.226 104.216 391.366 103.616 392.35 103.616C393.478 103.616 394.45 104.072 394.618 105.428H393.658C393.514 104.744 393.13 104.444 392.338 104.444C391.618 104.444 391.15 104.804 391.15 105.344C391.15 105.908 391.462 106.136 392.614 106.34C393.91 106.58 394.822 106.868 394.822 108.2C394.822 109.34 394.042 110.108 392.518 110.108ZM401.46 110.108C399.96 110.108 399.06 109.352 399 108.068H399.972C400.044 108.812 400.44 109.28 401.448 109.28C402.396 109.28 402.816 108.956 402.816 108.284C402.816 107.624 402.324 107.408 401.352 107.228C399.72 106.928 399.168 106.472 399.168 105.38C399.168 104.216 400.308 103.616 401.292 103.616C402.42 103.616 403.392 104.072 403.56 105.428H402.6C402.456 104.744 402.072 104.444 401.28 104.444C400.56 104.444 400.092 104.804 400.092 105.344C400.092 105.908 400.404 106.136 401.556 106.34C402.852 106.58 403.764 106.868 403.764 108.2C403.764 109.34 402.984 110.108 401.46 110.108ZM407.849 110.108C406.073 110.108 404.813 108.86 404.813 106.928V106.832C404.813 104.936 406.025 103.616 407.753 103.616C409.205 103.616 410.573 104.492 410.573 106.736V107.06H405.845C405.893 108.488 406.577 109.28 407.861 109.28C408.833 109.28 409.397 108.92 409.529 108.188H410.525C410.309 109.448 409.265 110.108 407.849 110.108ZM405.881 106.256H409.553C409.457 104.96 408.785 104.444 407.753 104.444C406.733 104.444 406.049 105.14 405.881 106.256ZM414.61 112.292C412.75 112.292 411.934 111.416 411.766 110.36H412.786C412.93 111.08 413.53 111.452 414.598 111.452C415.834 111.452 416.614 110.864 416.614 109.52V108.608C416.254 109.22 415.402 109.796 414.49 109.796C412.846 109.796 411.634 108.548 411.634 106.82V106.736C411.634 105.032 412.834 103.616 414.562 103.616C415.606 103.616 416.254 104.12 416.614 104.732V103.724H417.61V109.58C417.598 111.404 416.362 112.292 414.61 112.292ZM414.598 108.968C415.762 108.968 416.65 108.152 416.65 106.748V106.664C416.65 105.26 415.882 104.444 414.658 104.444C413.41 104.444 412.666 105.368 412.666 106.688V106.784C412.666 108.152 413.542 108.968 414.598 108.968ZM419.625 110V103.724H420.621V104.852C421.017 104.144 421.557 103.652 422.685 103.616V104.552C421.425 104.612 420.621 105.008 420.621 106.556V110H419.625ZM426.529 110.108C424.753 110.108 423.493 108.86 423.493 106.928V106.832C423.493 104.936 424.705 103.616 426.433 103.616C427.885 103.616 429.253 104.492 429.253 106.736V107.06H424.525C424.573 108.488 425.257 109.28 426.541 109.28C427.513 109.28 428.077 108.92 428.209 108.188H429.205C428.989 109.448 427.945 110.108 426.529 110.108ZM424.561 106.256H428.233C428.137 104.96 427.465 104.444 426.433 104.444C425.413 104.444 424.729 105.14 424.561 106.256ZM433.289 112.292C431.429 112.292 430.613 111.416 430.445 110.36H431.465C431.609 111.08 432.209 111.452 433.277 111.452C434.513 111.452 435.293 110.864 435.293 109.52V108.608C434.933 109.22 434.081 109.796 433.169 109.796C431.525 109.796 430.313 108.548 430.313 106.82V106.736C430.313 105.032 431.513 103.616 433.241 103.616C434.285 103.616 434.933 104.12 435.293 104.732V103.724H436.289V109.58C436.277 111.404 435.041 112.292 433.289 112.292ZM433.277 108.968C434.441 108.968 435.329 108.152 435.329 106.748V106.664C435.329 105.26 434.561 104.444 433.337 104.444C432.089 104.444 431.345 105.368 431.345 106.688V106.784C431.345 108.152 432.221 108.968 433.277 108.968ZM439.877 110.108C438.713 110.108 437.789 109.544 437.789 108.26C437.789 106.808 439.325 106.316 440.933 106.316H441.833V105.86C441.833 104.864 441.449 104.444 440.489 104.444C439.625 104.444 439.145 104.804 439.049 105.572H438.053C438.185 104.144 439.325 103.616 440.537 103.616C441.737 103.616 442.829 104.108 442.829 105.86V110H441.833V109.208C441.365 109.796 440.801 110.108 439.877 110.108ZM439.973 109.316C441.029 109.316 441.833 108.776 441.833 107.804V107.024H440.969C439.709 107.024 438.785 107.336 438.785 108.26C438.785 108.908 439.097 109.316 439.973 109.316ZM447.149 110.108C445.505 110.108 444.317 108.944 444.317 106.988V106.892C444.317 104.972 445.517 103.616 447.245 103.616C448.289 103.616 448.937 104.12 449.297 104.732V100.724H450.293V110H449.297V108.92C448.937 109.532 448.061 110.108 447.149 110.108ZM447.257 109.28C448.421 109.28 449.333 108.512 449.333 106.904V106.808C449.333 105.2 448.565 104.444 447.341 104.444C446.093 104.444 445.349 105.32 445.349 106.844V106.94C445.349 108.524 446.201 109.28 447.257 109.28ZM454.913 110.108C453.125 110.108 451.841 108.752 451.841 106.916V106.82C451.841 104.936 453.149 103.616 454.925 103.616C456.701 103.616 458.009 104.924 458.009 106.808V106.904C458.009 108.8 456.701 110.108 454.913 110.108ZM454.925 109.28C456.185 109.28 456.977 108.332 456.977 106.916V106.832C456.977 105.38 456.173 104.444 454.925 104.444C453.665 104.444 452.873 105.38 452.873 106.82V106.916C452.873 108.344 453.653 109.28 454.925 109.28ZM461.495 110.108C459.995 110.108 459.095 109.352 459.035 108.068H460.007C460.079 108.812 460.475 109.28 461.483 109.28C462.431 109.28 462.851 108.956 462.851 108.284C462.851 107.624 462.359 107.408 461.387 107.228C459.755 106.928 459.203 106.472 459.203 105.38C459.203 104.216 460.343 103.616 461.327 103.616C462.455 103.616 463.427 104.072 463.595 105.428H462.635C462.491 104.744 462.107 104.444 461.315 104.444C460.595 104.444 460.127 104.804 460.127 105.344C460.127 105.908 460.439 106.136 461.591 106.34C462.887 106.58 463.799 106.868 463.799 108.2C463.799 109.34 463.019 110.108 461.495 110.108ZM464.549 111.74C465.629 110.396 466.493 108.68 466.493 106.208C466.493 103.736 465.629 102.032 464.549 100.688H465.545C466.649 101.984 467.537 103.82 467.537 106.208C467.537 108.596 466.649 110.444 465.545 111.74H464.549Z" fill="#808C97"/>
<path d="M698.031 10H693.93C693.93 4.48594 689.023 0 682.992 0H654.008C647.977 0 643.07 4.48594 643.07 10H638.969C635.953 10 633.5 12.243 633.5 15V23.375H638.969V15H643.07V51.25C643.07 54.0199 644.723 56.4418 647.172 57.7414V59C647.172 61.757 649.625 64 652.641 64C655.656 64 658.109 61.757 658.109 59V58.75H678.617V59C678.617 61.757 681.07 64 684.086 64C687.101 64 689.555 61.757 689.555 59V57.8805C692.154 56.6207 693.93 54.1219 693.93 51.25V15H698.031V23.375H703.5V15C703.5 12.243 701.047 10 698.031 10ZM685.727 53.75H651.273C649.766 53.75 648.539 52.6285 648.539 51.25V36.7313L652.177 39.1719C653.593 40.1227 655.272 40.625 657.029 40.625H680.995C682.927 40.625 684.804 39.998 686.282 38.8594L688.461 37.1797V51.25C688.461 52.6285 687.234 53.75 685.727 53.75ZM688.461 15V30.6402L682.757 35.0359C682.265 35.416 681.639 35.625 680.995 35.625H671.234V15H688.461ZM665.766 35.625H657.029C656.444 35.625 655.884 35.4574 655.412 35.1406L648.539 30.5293V15H665.766V35.625ZM654.008 5H682.992C686.008 5 688.461 7.24297 688.461 10H648.539C648.539 7.24297 650.992 5 654.008 5ZM658.109 47.5C658.109 48.8809 656.885 50 655.375 50C653.865 50 652.641 48.8809 652.641 47.5C652.641 46.1191 653.865 45 655.375 45C656.885 45 658.109 46.1191 658.109 47.5ZM684.223 47.5C684.223 48.8809 682.999 50 681.488 50C679.978 50 678.754 48.8809 678.754 47.5C678.754 46.1191 679.978 45 681.488 45C682.999 45 684.223 46.1191 684.223 47.5Z" fill="#0073FF"/>
<path d="M632.443 91.144C629.131 91.144 627.099 88.872 627.099 85.352V85.224C627.099 81.832 629.371 79.384 632.475 79.384C634.859 79.384 636.875 80.648 637.115 83.128H635.739C635.451 81.384 634.443 80.488 632.491 80.488C630.123 80.488 628.539 82.328 628.539 85.208V85.336C628.539 88.248 630.011 90.008 632.475 90.008C634.347 90.008 635.643 89.064 635.931 87.208H637.227C636.827 89.848 635.003 91.144 632.443 91.144ZM642.722 91.144C640.338 91.144 638.626 89.336 638.626 86.888V86.76C638.626 84.248 640.37 82.488 642.738 82.488C645.106 82.488 646.85 84.232 646.85 86.744V86.872C646.85 89.4 645.106 91.144 642.722 91.144ZM642.738 90.04C644.418 90.04 645.474 88.776 645.474 86.888V86.776C645.474 84.84 644.402 83.592 642.738 83.592C641.058 83.592 640.002 84.84 640.002 86.76V86.888C640.002 88.792 641.042 90.04 642.738 90.04ZM648.907 91V82.632H650.235V84.136C650.763 83.192 651.483 82.536 652.987 82.488V83.736C651.307 83.816 650.235 84.344 650.235 86.408V91H648.907ZM654.922 91V82.632H656.25V84.136C656.778 83.192 657.498 82.536 659.002 82.488V83.736C657.322 83.816 656.25 84.344 656.25 86.408V91H654.922ZM664.127 91.144C661.759 91.144 660.079 89.48 660.079 86.904V86.776C660.079 84.248 661.695 82.488 663.999 82.488C665.935 82.488 667.759 83.656 667.759 86.648V87.08H661.455C661.519 88.984 662.431 90.04 664.143 90.04C665.439 90.04 666.191 89.56 666.367 88.584H667.695C667.407 90.264 666.015 91.144 664.127 91.144ZM661.503 86.008H666.399C666.271 84.28 665.375 83.592 663.999 83.592C662.639 83.592 661.727 84.52 661.503 86.008ZM672.949 91.144C670.757 91.144 669.173 89.592 669.173 86.984V86.856C669.173 84.296 670.773 82.488 673.077 82.488C674.469 82.488 675.333 83.16 675.813 83.976V78.632H677.141V91H675.813V89.56C675.333 90.376 674.165 91.144 672.949 91.144ZM673.093 90.04C674.645 90.04 675.861 89.016 675.861 86.872V86.744C675.861 84.6 674.837 83.592 673.205 83.592C671.541 83.592 670.549 84.76 670.549 86.792V86.92C670.549 89.032 671.685 90.04 673.093 90.04ZM683.3 91.144C680.916 91.144 679.204 89.336 679.204 86.888V86.76C679.204 84.248 680.948 82.488 683.316 82.488C685.684 82.488 687.428 84.232 687.428 86.744V86.872C687.428 89.4 685.684 91.144 683.3 91.144ZM683.316 90.04C684.996 90.04 686.052 88.776 686.052 86.888V86.776C686.052 84.84 684.98 83.592 683.316 83.592C681.636 83.592 680.58 84.84 680.58 86.76V86.888C680.58 88.792 681.62 90.04 683.316 90.04ZM689.485 91V82.632H690.813V84.136C691.341 83.192 692.061 82.536 693.565 82.488V83.736C691.885 83.816 690.813 84.344 690.813 86.408V91H689.485ZM698.69 91.144C696.322 91.144 694.642 89.48 694.642 86.904V86.776C694.642 84.248 696.258 82.488 698.562 82.488C700.498 82.488 702.322 83.656 702.322 86.648V87.08H696.018C696.082 88.984 696.994 90.04 698.706 90.04C700.002 90.04 700.754 89.56 700.93 88.584H702.258C701.97 90.264 700.578 91.144 698.69 91.144ZM696.066 86.008H700.962C700.834 84.28 699.938 83.592 698.562 83.592C697.202 83.592 696.29 84.52 696.066 86.008ZM707.03 91.144C705.03 91.144 703.83 90.136 703.75 88.424H705.046C705.142 89.416 705.67 90.04 707.014 90.04C708.278 90.04 708.838 89.608 708.838 88.712C708.838 87.832 708.182 87.544 706.886 87.304C704.71 86.904 703.974 86.296 703.974 84.84C703.974 83.288 705.494 82.488 706.806 82.488C708.31 82.488 709.606 83.096 709.83 84.904H708.55C708.358 83.992 707.846 83.592 706.79 83.592C705.83 83.592 705.206 84.072 705.206 84.792C705.206 85.544 705.622 85.848 707.158 86.12C708.886 86.44 710.102 86.824 710.102 88.6C710.102 90.12 709.062 91.144 707.03 91.144ZM607.63 115.144C604.318 115.144 602.286 112.872 602.286 109.352V109.224C602.286 105.832 604.558 103.384 607.662 103.384C610.046 103.384 612.062 104.648 612.302 107.128H610.926C610.638 105.384 609.63 104.488 607.678 104.488C605.31 104.488 603.726 106.328 603.726 109.208V109.336C603.726 112.248 605.198 114.008 607.662 114.008C609.534 114.008 610.83 113.064 611.118 111.208H612.414C612.014 113.848 610.19 115.144 607.63 115.144ZM617.91 115.144C615.526 115.144 613.814 113.336 613.814 110.888V110.76C613.814 108.248 615.558 106.488 617.926 106.488C620.294 106.488 622.038 108.232 622.038 110.744V110.872C622.038 113.4 620.294 115.144 617.91 115.144ZM617.926 114.04C619.606 114.04 620.662 112.776 620.662 110.888V110.776C620.662 108.84 619.59 107.592 617.926 107.592C616.246 107.592 615.19 108.84 615.19 110.76V110.888C615.19 112.792 616.23 114.04 617.926 114.04ZM624.094 115V106.632H625.422V107.912C625.806 107.128 626.718 106.488 627.918 106.488C628.99 106.488 629.934 106.936 630.366 108.056C630.942 106.968 632.19 106.488 633.23 106.488C634.734 106.488 636.046 107.384 636.046 109.816V115H634.718V109.72C634.718 108.248 634.094 107.64 632.942 107.64C631.854 107.64 630.734 108.376 630.734 109.88V115H629.406V109.72C629.406 108.248 628.782 107.64 627.63 107.64C626.542 107.64 625.422 108.376 625.422 109.88V115H624.094ZM638.657 117.912V106.632H639.985V108.04C640.465 107.224 641.601 106.488 642.817 106.488C645.009 106.488 646.625 108.088 646.625 110.696V110.824C646.625 113.384 645.121 115.144 642.817 115.144C641.441 115.144 640.465 114.456 639.985 113.624V117.912H638.657ZM642.689 114.04C644.353 114.04 645.249 112.92 645.249 110.888V110.76C645.249 108.648 644.081 107.592 642.673 107.592C641.121 107.592 639.937 108.616 639.937 110.76V110.888C639.937 113.032 641.057 114.04 642.689 114.04ZM648.72 115V102.632H650.064V115H648.72ZM656.206 115.144C653.838 115.144 652.158 113.48 652.158 110.904V110.776C652.158 108.248 653.774 106.488 656.078 106.488C658.014 106.488 659.838 107.656 659.838 110.648V111.08H653.534C653.598 112.984 654.51 114.04 656.222 114.04C657.518 114.04 658.27 113.56 658.446 112.584H659.774C659.486 114.264 658.094 115.144 656.206 115.144ZM653.582 110.008H658.478C658.35 108.28 657.454 107.592 656.078 107.592C654.718 107.592 653.806 108.52 653.582 110.008ZM661.875 115V106.632H663.203V107.912C663.587 107.128 664.499 106.488 665.699 106.488C666.771 106.488 667.715 106.936 668.147 108.056C668.723 106.968 669.971 106.488 671.011 106.488C672.515 106.488 673.827 107.384 673.827 109.816V115H672.499V109.72C672.499 108.248 671.875 107.64 670.723 107.64C669.635 107.64 668.515 108.376 668.515 109.88V115H667.187V109.72C667.187 108.248 666.563 107.64 665.411 107.64C664.323 107.64 663.203 108.376 663.203 109.88V115H661.875ZM679.862 115.144C677.494 115.144 675.814 113.48 675.814 110.904V110.776C675.814 108.248 677.43 106.488 679.734 106.488C681.67 106.488 683.494 107.656 683.494 110.648V111.08H677.19C677.254 112.984 678.166 114.04 679.878 114.04C681.174 114.04 681.926 113.56 682.102 112.584H683.43C683.142 114.264 681.75 115.144 679.862 115.144ZM677.238 110.008H682.134C682.006 108.28 681.11 107.592 679.734 107.592C678.374 107.592 677.462 108.52 677.238 110.008ZM685.532 115V106.632H686.86V107.96C687.244 107.176 688.172 106.488 689.548 106.488C691.276 106.488 692.492 107.432 692.492 109.864V115H691.164V109.768C691.164 108.296 690.54 107.64 689.196 107.64C687.964 107.64 686.86 108.424 686.86 109.928V115H685.532ZM697.638 115.112C696.118 115.112 695.382 114.216 695.382 112.904V107.752H694.182V106.632H695.382V104.728H696.71V106.632H698.662V107.752H696.71V112.776C696.71 113.592 697.078 113.992 697.75 113.992C698.166 113.992 698.486 113.928 698.774 113.816V114.936C698.502 115.032 698.182 115.112 697.638 115.112ZM702.956 115.144C701.404 115.144 700.172 114.392 700.172 112.68C700.172 110.744 702.22 110.088 704.364 110.088H705.564V109.48C705.564 108.152 705.052 107.592 703.772 107.592C702.62 107.592 701.98 108.072 701.852 109.096H700.524C700.7 107.192 702.22 106.488 703.836 106.488C705.436 106.488 706.892 107.144 706.892 109.48V115H705.564V113.944C704.94 114.728 704.188 115.144 702.956 115.144ZM703.084 114.088C704.492 114.088 705.564 113.368 705.564 112.072V111.032H704.412C702.732 111.032 701.5 111.448 701.5 112.68C701.5 113.544 701.916 114.088 703.084 114.088ZM709.5 115V106.632H710.828V108.136C711.356 107.192 712.076 106.536 713.58 106.488V107.736C711.9 107.816 710.828 108.344 710.828 110.408V115H709.5ZM716.188 104.888C715.708 104.888 715.308 104.488 715.308 104.008C715.308 103.528 715.708 103.128 716.188 103.128C716.668 103.128 717.068 103.528 717.068 104.008C717.068 104.488 716.668 104.888 716.188 104.888ZM715.548 115V106.632H716.876V115H715.548ZM723.066 115.144C720.682 115.144 718.97 113.336 718.97 110.888V110.76C718.97 108.248 720.714 106.488 723.082 106.488C725.45 106.488 727.194 108.232 727.194 110.744V110.872C727.194 113.4 725.45 115.144 723.066 115.144ZM723.082 114.04C724.762 114.04 725.818 112.776 725.818 110.888V110.776C725.818 108.84 724.746 107.592 723.082 107.592C721.402 107.592 720.346 108.84 720.346 110.76V110.888C720.346 112.792 721.386 114.04 723.082 114.04ZM731.842 115.144C729.842 115.144 728.642 114.136 728.562 112.424H729.858C729.954 113.416 730.482 114.04 731.826 114.04C733.09 114.04 733.65 113.608 733.65 112.712C733.65 111.832 732.994 111.544 731.698 111.304C729.522 110.904 728.786 110.296 728.786 108.84C728.786 107.288 730.306 106.488 731.618 106.488C733.122 106.488 734.418 107.096 734.642 108.904H733.362C733.17 107.992 732.658 107.592 731.602 107.592C730.642 107.592 730.018 108.072 730.018 108.792C730.018 109.544 730.434 109.848 731.97 110.12C733.698 110.44 734.914 110.824 734.914 112.6C734.914 114.12 733.874 115.144 731.842 115.144Z" fill="#383838"/>
<path d="M650.761 135.776C649.657 134.48 648.769 132.644 648.769 130.256C648.769 127.868 649.657 126.02 650.761 124.724H651.757C650.677 126.068 649.813 127.784 649.813 130.256C649.813 132.728 650.677 134.432 651.757 135.776H650.761ZM653.08 134V125.42H655.66C657.256 125.42 658.42 125.948 658.42 127.64V127.688C658.42 128.468 658.108 129.164 657.124 129.5C658.372 129.8 658.84 130.436 658.84 131.552V131.6C658.84 133.22 657.736 134 656.02 134H653.08ZM654.1 129.164H655.66C656.92 129.164 657.4 128.708 657.4 127.652V127.604C657.4 126.632 656.836 126.236 655.636 126.236H654.1V129.164ZM654.1 133.184H655.996C657.244 133.184 657.82 132.632 657.82 131.588V131.54C657.82 130.484 657.232 129.98 655.852 129.98H654.1V133.184ZM662.597 134.108C661.349 134.108 660.413 133.424 660.413 131.696V127.724H661.409V131.648C661.409 132.752 661.877 133.244 662.861 133.244C663.749 133.244 664.589 132.656 664.589 131.528V127.724H665.585V134H664.589V133.004C664.301 133.592 663.605 134.108 662.597 134.108ZM669.542 134.108C668.042 134.108 667.142 133.352 667.082 132.068H668.054C668.126 132.812 668.522 133.28 669.53 133.28C670.478 133.28 670.898 132.956 670.898 132.284C670.898 131.624 670.406 131.408 669.434 131.228C667.802 130.928 667.25 130.472 667.25 129.38C667.25 128.216 668.39 127.616 669.374 127.616C670.502 127.616 671.474 128.072 671.642 129.428H670.682C670.538 128.744 670.154 128.444 669.362 128.444C668.642 128.444 668.174 128.804 668.174 129.344C668.174 129.908 668.486 130.136 669.638 130.34C670.934 130.58 671.846 130.868 671.846 132.2C671.846 133.34 671.066 134.108 669.542 134.108ZM675.931 134.108C674.155 134.108 672.895 132.86 672.895 130.928V130.832C672.895 128.936 674.107 127.616 675.835 127.616C677.287 127.616 678.655 128.492 678.655 130.736V131.06H673.927C673.975 132.488 674.659 133.28 675.943 133.28C676.915 133.28 677.479 132.92 677.611 132.188H678.607C678.391 133.448 677.347 134.108 675.931 134.108ZM673.963 130.256H677.635C677.539 128.96 676.867 128.444 675.835 128.444C674.815 128.444 674.131 129.14 673.963 130.256ZM682.186 134.108C680.686 134.108 679.786 133.352 679.726 132.068H680.698C680.77 132.812 681.166 133.28 682.174 133.28C683.122 133.28 683.542 132.956 683.542 132.284C683.542 131.624 683.05 131.408 682.078 131.228C680.446 130.928 679.894 130.472 679.894 129.38C679.894 128.216 681.034 127.616 682.018 127.616C683.146 127.616 684.118 128.072 684.286 129.428H683.326C683.182 128.744 682.798 128.444 682.006 128.444C681.286 128.444 680.818 128.804 680.818 129.344C680.818 129.908 681.13 130.136 682.282 130.34C683.578 130.58 684.49 130.868 684.49 132.2C684.49 133.34 683.71 134.108 682.186 134.108ZM685.24 135.74C686.32 134.396 687.184 132.68 687.184 130.208C687.184 127.736 686.32 126.032 685.24 124.688H686.236C687.34 125.984 688.228 127.82 688.228 130.208C688.228 132.596 687.34 134.444 686.236 135.74H685.24Z" fill="#808C97"/>
</svg>
