<svg width="656" height="88" viewBox="0 0 656 88" fill="none" xmlns="http://www.w3.org/2000/svg">
<path d="M644.356 35.0294C641.742 32.4154 638.631 30.4803 635.236 29.3089C638.872 26.8048 641.261 22.6139 641.261 17.875C641.261 10.2243 635.036 4 627.386 4C619.735 4 613.511 10.2243 613.511 17.875C613.511 22.6139 615.899 26.8048 619.535 29.3089C616.141 30.4803 613.029 32.4154 610.415 35.0294C605.882 39.5625 603.386 45.5894 603.386 52H607.136C607.136 40.8341 616.22 31.75 627.386 31.75C638.552 31.75 647.636 40.8341 647.636 52H651.386C651.386 45.5894 648.889 39.5625 644.356 35.0294ZM627.386 28C621.803 28 617.261 23.458 617.261 17.875C617.261 12.292 621.803 7.75 627.386 7.75C632.969 7.75 637.511 12.292 637.511 17.875C637.511 23.458 632.969 28 627.386 28Z" fill="#383838"/>
<path d="M606.485 83.144C603.173 83.144 601.141 80.872 601.141 77.352V77.224C601.141 73.832 603.413 71.384 606.517 71.384C608.901 71.384 610.917 72.648 611.157 75.128H609.781C609.493 73.384 608.485 72.488 606.533 72.488C604.165 72.488 602.581 74.328 602.581 77.208V77.336C602.581 80.248 604.053 82.008 606.517 82.008C608.389 82.008 609.685 81.064 609.973 79.208H611.269C610.869 81.848 609.045 83.144 606.485 83.144ZM616.124 83.144C614.46 83.144 613.212 82.232 613.212 79.928V74.632H614.54V79.864C614.54 81.336 615.164 81.992 616.476 81.992C617.66 81.992 618.78 81.208 618.78 79.704V74.632H620.108V83H618.78V81.672C618.396 82.456 617.468 83.144 616.124 83.144ZM626.216 83.144C623.848 83.144 622.168 81.48 622.168 78.904V78.776C622.168 76.248 623.784 74.488 626.088 74.488C628.024 74.488 629.848 75.656 629.848 78.648V79.08H623.544C623.608 80.984 624.52 82.04 626.232 82.04C627.528 82.04 628.28 81.56 628.456 80.584H629.784C629.496 82.264 628.104 83.144 626.216 83.144ZM623.592 78.008H628.488C628.36 76.28 627.464 75.592 626.088 75.592C624.728 75.592 623.816 76.52 623.592 78.008ZM631.886 83V74.632H633.214V75.96C633.598 75.176 634.526 74.488 635.902 74.488C637.63 74.488 638.846 75.432 638.846 77.864V83H637.518V77.768C637.518 76.296 636.894 75.64 635.55 75.64C634.318 75.64 633.214 76.424 633.214 77.928V83H631.886ZM643.992 83.112C642.472 83.112 641.736 82.216 641.736 80.904V75.752H640.536V74.632H641.736V72.728H643.064V74.632H645.016V75.752H643.064V80.776C643.064 81.592 643.432 81.992 644.104 81.992C644.52 81.992 644.84 81.928 645.128 81.816V82.936C644.856 83.032 644.536 83.112 643.992 83.112ZM649.31 83.144C647.758 83.144 646.526 82.392 646.526 80.68C646.526 78.744 648.574 78.088 650.718 78.088H651.918V77.48C651.918 76.152 651.406 75.592 650.126 75.592C648.974 75.592 648.334 76.072 648.206 77.096H646.878C647.054 75.192 648.574 74.488 650.19 74.488C651.79 74.488 653.246 75.144 653.246 77.48V83H651.918V81.944C651.294 82.728 650.542 83.144 649.31 83.144ZM649.438 82.088C650.846 82.088 651.918 81.368 651.918 80.072V79.032H650.766C649.086 79.032 647.854 79.448 647.854 80.68C647.854 81.544 648.27 82.088 649.438 82.088Z" fill="#808C97"/>
<path d="M198.386 18.625V22.375H180.011V4H183.761V18.625H198.386ZM180.011 52H183.761V37.375H198.386V33.625H180.011V52ZM150.386 37.375H165.011V52H168.761V33.625H150.386V37.375ZM165.011 18.625H150.386V22.375H168.761V4H165.011V18.625ZM172.511 9.625H176.261V4H172.511V9.625ZM172.511 19H176.261V13.375H172.511V19ZM172.511 42.625H176.261V37H172.511V42.625ZM172.511 52H176.261V46.375H172.511V52ZM156.011 26.125H150.386V29.875H156.011V26.125ZM159.761 26.125V29.875H165.386V26.125H159.761ZM183.386 26.125V29.875H189.011V26.125H183.386ZM192.761 29.875H198.386V26.125H192.761V29.875Z" fill="#383838"/>
<path d="M155.084 83V71.56H158.524C160.716 71.56 162.524 72.456 162.524 74.744V74.808C162.524 76.696 161.26 77.624 159.692 77.928L163.196 83H161.644L158.236 78.024H156.476V83H155.084ZM156.476 76.92H158.62C160.252 76.92 161.132 76.216 161.132 74.808V74.744C161.132 73.192 160.172 72.68 158.62 72.68H156.476V76.92ZM167.71 83.144C166.046 83.144 164.798 82.232 164.798 79.928V74.632H166.126V79.864C166.126 81.336 166.75 81.992 168.062 81.992C169.246 81.992 170.366 81.208 170.366 79.704V74.632H171.694V83H170.366V81.672C169.982 82.456 169.054 83.144 167.71 83.144ZM176.922 83.112C175.402 83.112 174.666 82.216 174.666 80.904V75.752H173.466V74.632H174.666V72.728H175.994V74.632H177.946V75.752H175.994V80.776C175.994 81.592 176.362 81.992 177.034 81.992C177.45 81.992 177.77 81.928 178.058 81.816V82.936C177.786 83.032 177.466 83.112 176.922 83.112ZM182.24 83.144C180.688 83.144 179.456 82.392 179.456 80.68C179.456 78.744 181.504 78.088 183.648 78.088H184.848V77.48C184.848 76.152 184.336 75.592 183.056 75.592C181.904 75.592 181.264 76.072 181.136 77.096H179.808C179.984 75.192 181.504 74.488 183.12 74.488C184.72 74.488 186.176 75.144 186.176 77.48V83H184.848V81.944C184.224 82.728 183.472 83.144 182.24 83.144ZM182.368 82.088C183.776 82.088 184.848 81.368 184.848 80.072V79.032H183.696C182.016 79.032 180.784 79.448 180.784 80.68C180.784 81.544 181.2 82.088 182.368 82.088ZM191.376 83.144C189.376 83.144 188.176 82.136 188.096 80.424H189.392C189.488 81.416 190.016 82.04 191.36 82.04C192.624 82.04 193.184 81.608 193.184 80.712C193.184 79.832 192.528 79.544 191.232 79.304C189.056 78.904 188.32 78.296 188.32 76.84C188.32 75.288 189.84 74.488 191.152 74.488C192.656 74.488 193.952 75.096 194.176 76.904H192.896C192.704 75.992 192.192 75.592 191.136 75.592C190.176 75.592 189.552 76.072 189.552 76.792C189.552 77.544 189.968 77.848 191.504 78.12C193.232 78.44 194.448 78.824 194.448 80.6C194.448 82.12 193.408 83.144 191.376 83.144Z" fill="#808C97"/>
<path d="M350.229 11H316.542C313.699 11 311.386 13.4339 311.386 16.4255V39.5745C311.386 42.5661 313.699 45 316.542 45H350.229C353.073 45 355.386 42.5661 355.386 39.5745V16.4255C355.386 13.4339 353.073 11 350.229 11ZM351.948 39.5745C351.948 40.5717 351.177 41.383 350.229 41.383H316.542C315.594 41.383 314.823 40.5717 314.823 39.5745V24.2021H351.948V39.5745ZM351.948 18.7766H314.823V16.4255C314.823 15.4283 315.594 14.617 316.542 14.617H350.229C351.177 14.617 351.948 15.4283 351.948 16.4255V18.7766Z" fill="#383838"/>
<path d="M339.917 26.9143H317.229V30.5313H339.917V26.9143Z" fill="#383838"/>
<path d="M308.256 83V72.696H304.928V71.56H312.976V72.696H309.648V83H308.256ZM315.826 83.144C314.274 83.144 313.042 82.392 313.042 80.68C313.042 78.744 315.09 78.088 317.234 78.088H318.434V77.48C318.434 76.152 317.922 75.592 316.642 75.592C315.49 75.592 314.85 76.072 314.722 77.096H313.394C313.57 75.192 315.09 74.488 316.706 74.488C318.306 74.488 319.762 75.144 319.762 77.48V83H318.434V81.944C317.81 82.728 317.058 83.144 315.826 83.144ZM315.954 82.088C317.362 82.088 318.434 81.368 318.434 80.072V79.032H317.282C315.602 79.032 314.37 79.448 314.37 80.68C314.37 81.544 314.786 82.088 315.954 82.088ZM322.37 83V74.632H323.698V76.136C324.226 75.192 324.946 74.536 326.45 74.488V75.736C324.77 75.816 323.698 76.344 323.698 78.408V83H322.37ZM329.058 72.888C328.578 72.888 328.178 72.488 328.178 72.008C328.178 71.528 328.578 71.128 329.058 71.128C329.538 71.128 329.938 71.528 329.938 72.008C329.938 72.488 329.538 72.888 329.058 72.888ZM327.186 86.056V84.936C328.13 84.856 328.418 84.376 328.418 83.64V74.632H329.746V83.528C329.746 85.128 329.042 85.992 327.186 86.056ZM335.888 83.144C333.52 83.144 331.84 81.48 331.84 78.904V78.776C331.84 76.248 333.456 74.488 335.76 74.488C337.696 74.488 339.52 75.656 339.52 78.648V79.08H333.216C333.28 80.984 334.192 82.04 335.904 82.04C337.2 82.04 337.952 81.56 338.128 80.584H339.456C339.168 82.264 337.776 83.144 335.888 83.144ZM333.264 78.008H338.16C338.032 76.28 337.136 75.592 335.76 75.592C334.4 75.592 333.488 76.52 333.264 78.008ZM344.102 83.112C342.582 83.112 341.846 82.216 341.846 80.904V75.752H340.646V74.632H341.846V72.728H343.174V74.632H345.126V75.752H343.174V80.776C343.174 81.592 343.542 81.992 344.214 81.992C344.63 81.992 344.95 81.928 345.238 81.816V82.936C344.966 83.032 344.646 83.112 344.102 83.112ZM349.419 83.144C347.867 83.144 346.635 82.392 346.635 80.68C346.635 78.744 348.683 78.088 350.827 78.088H352.027V77.48C352.027 76.152 351.515 75.592 350.235 75.592C349.083 75.592 348.443 76.072 348.315 77.096H346.987C347.163 75.192 348.683 74.488 350.299 74.488C351.899 74.488 353.355 75.144 353.355 77.48V83H352.027V81.944C351.403 82.728 350.651 83.144 349.419 83.144ZM349.547 82.088C350.955 82.088 352.027 81.368 352.027 80.072V79.032H350.875C349.195 79.032 347.963 79.448 347.963 80.68C347.963 81.544 348.379 82.088 349.547 82.088ZM358.556 83.144C356.556 83.144 355.356 82.136 355.276 80.424H356.572C356.668 81.416 357.196 82.04 358.54 82.04C359.804 82.04 360.364 81.608 360.364 80.712C360.364 79.832 359.708 79.544 358.412 79.304C356.236 78.904 355.5 78.296 355.5 76.84C355.5 75.288 357.02 74.488 358.332 74.488C359.836 74.488 361.132 75.096 361.356 76.904H360.076C359.884 75.992 359.372 75.592 358.316 75.592C357.356 75.592 356.732 76.072 356.732 76.792C356.732 77.544 357.148 77.848 358.684 78.12C360.412 78.44 361.628 78.824 361.628 80.6C361.628 82.12 360.588 83.144 358.556 83.144Z" fill="#808C97"/>
<path d="M505.386 40.75H503.499C502.519 40.75 501.734 40.4117 501.165 39.7443C500.47 38.9301 500.103 37.6456 500.103 36.0293V23.125C500.103 15.7358 494.485 9.55216 487.273 8.62197V4H483.499V8.62197C476.286 9.55216 470.669 15.7357 470.669 23.125V36.625C470.669 37.9539 470.316 39.0414 469.65 39.7699C469.063 40.4111 468.241 40.75 467.273 40.75H465.386V46H480.613C480.527 46.3614 480.48 46.7377 480.48 47.125C480.48 49.8131 482.681 52 485.386 52C488.091 52 490.291 49.8131 490.291 47.125C490.291 46.7377 490.244 46.3614 490.158 46H505.386V40.75ZM485.386 48.25C484.761 48.25 484.254 47.7453 484.254 47.125C484.254 46.5047 484.761 46 485.386 46C486.01 46 486.518 46.5047 486.518 47.125C486.518 47.7453 486.01 48.25 485.386 48.25ZM472.481 42.25C473.764 40.8235 474.442 38.8799 474.442 36.625V23.125C474.442 17.2125 479.278 12.337 485.226 12.2512H485.546C491.493 12.337 496.329 17.2125 496.329 23.125V36.0293C496.329 38.5456 497.006 40.6688 498.286 42.1694C498.309 42.1965 498.333 42.2234 498.356 42.25H472.481Z" fill="#383838"/>
<path d="M433.115 83V71.56H434.923L440.491 81.016V71.56H441.819V83H440.219L434.443 73.192V83H433.115ZM448.069 83.144C445.685 83.144 443.973 81.336 443.973 78.888V78.76C443.973 76.248 445.717 74.488 448.085 74.488C450.453 74.488 452.197 76.232 452.197 78.744V78.872C452.197 81.4 450.453 83.144 448.069 83.144ZM448.085 82.04C449.765 82.04 450.821 80.776 450.821 78.888V78.776C450.821 76.84 449.749 75.592 448.085 75.592C446.405 75.592 445.349 76.84 445.349 78.76V78.888C445.349 80.792 446.389 82.04 448.085 82.04ZM456.797 83.112C455.277 83.112 454.541 82.216 454.541 80.904V75.752H453.341V74.632H454.541V72.728H455.869V74.632H457.821V75.752H455.869V80.776C455.869 81.592 456.237 81.992 456.909 81.992C457.325 81.992 457.645 81.928 457.933 81.816V82.936C457.661 83.032 457.341 83.112 456.797 83.112ZM460.613 72.888C460.133 72.888 459.733 72.488 459.733 72.008C459.733 71.528 460.133 71.128 460.613 71.128C461.093 71.128 461.493 71.528 461.493 72.008C461.493 72.488 461.093 72.888 460.613 72.888ZM459.973 83V74.632H461.301V83H459.973ZM464.307 83V75.752H463.107V74.632H464.307V73.272C464.307 71.576 465.123 70.584 466.771 70.584C467.203 70.584 467.427 70.616 467.683 70.712V71.832C467.443 71.736 467.187 71.688 466.819 71.688C465.971 71.688 465.635 72.28 465.635 73.128V74.632H467.683V75.752H465.635V83H464.307ZM469.988 72.888C469.508 72.888 469.108 72.488 469.108 72.008C469.108 71.528 469.508 71.128 469.988 71.128C470.468 71.128 470.868 71.528 470.868 72.008C470.868 72.488 470.468 72.888 469.988 72.888ZM469.348 83V74.632H470.676V83H469.348ZM476.866 83.144C474.53 83.144 472.77 81.496 472.77 78.904V78.776C472.77 76.216 474.594 74.488 476.834 74.488C478.578 74.488 480.21 75.288 480.466 77.416H479.154C478.946 76.088 477.986 75.592 476.834 75.592C475.314 75.592 474.146 76.808 474.146 78.776V78.904C474.146 80.952 475.266 82.04 476.882 82.04C478.066 82.04 479.138 81.352 479.282 79.992H480.514C480.338 81.8 478.882 83.144 476.866 83.144ZM484.615 83.144C483.063 83.144 481.831 82.392 481.831 80.68C481.831 78.744 483.879 78.088 486.023 78.088H487.223V77.48C487.223 76.152 486.711 75.592 485.431 75.592C484.279 75.592 483.639 76.072 483.511 77.096H482.183C482.359 75.192 483.879 74.488 485.495 74.488C487.095 74.488 488.551 75.144 488.551 77.48V83H487.223V81.944C486.599 82.728 485.847 83.144 484.615 83.144ZM484.743 82.088C486.151 82.088 487.223 81.368 487.223 80.072V79.032H486.071C484.391 79.032 483.159 79.448 483.159 80.68C483.159 81.544 483.575 82.088 484.743 82.088ZM494.631 83.144C492.295 83.144 490.535 81.496 490.535 78.904V78.776C490.535 76.216 492.359 74.488 494.599 74.488C496.343 74.488 497.975 75.288 498.231 77.416H496.919C496.711 76.088 495.751 75.592 494.599 75.592C493.079 75.592 491.911 76.808 491.911 78.776V78.904C491.911 80.952 493.031 82.04 494.647 82.04C495.831 82.04 496.903 81.352 497.047 79.992H498.279C498.103 81.8 496.647 83.144 494.631 83.144ZM500.956 72.888C500.476 72.888 500.076 72.488 500.076 72.008C500.076 71.528 500.476 71.128 500.956 71.128C501.436 71.128 501.836 71.528 501.836 72.008C501.836 72.488 501.436 72.888 500.956 72.888ZM500.316 83V74.632H501.644V83H500.316ZM507.835 83.144C505.451 83.144 503.739 81.336 503.739 78.888V78.76C503.739 76.248 505.483 74.488 507.851 74.488C510.219 74.488 511.963 76.232 511.963 78.744V78.872C511.963 81.4 510.219 83.144 507.835 83.144ZM507.851 82.04C509.531 82.04 510.587 80.776 510.587 78.888V78.776C510.587 76.84 509.515 75.592 507.851 75.592C506.171 75.592 505.115 76.84 505.115 78.76V78.888C505.115 80.792 506.155 82.04 507.851 82.04ZM514.019 83V74.632H515.347V75.96C515.731 75.176 516.659 74.488 518.035 74.488C519.763 74.488 520.979 75.432 520.979 77.864V83H519.651V77.768C519.651 76.296 519.027 75.64 517.683 75.64C516.451 75.64 515.347 76.424 515.347 77.928V83H514.019ZM527.005 83.144C524.637 83.144 522.957 81.48 522.957 78.904V78.776C522.957 76.248 524.573 74.488 526.877 74.488C528.813 74.488 530.637 75.656 530.637 78.648V79.08H524.333C524.397 80.984 525.309 82.04 527.021 82.04C528.317 82.04 529.069 81.56 529.245 80.584H530.573C530.285 82.264 528.893 83.144 527.005 83.144ZM524.381 78.008H529.277C529.149 76.28 528.253 75.592 526.877 75.592C525.517 75.592 524.605 76.52 524.381 78.008ZM535.345 83.144C533.345 83.144 532.145 82.136 532.065 80.424H533.361C533.457 81.416 533.985 82.04 535.329 82.04C536.593 82.04 537.153 81.608 537.153 80.712C537.153 79.832 536.497 79.544 535.201 79.304C533.025 78.904 532.289 78.296 532.289 76.84C532.289 75.288 533.809 74.488 535.121 74.488C536.625 74.488 537.921 75.096 538.145 76.904H536.865C536.673 75.992 536.161 75.592 535.105 75.592C534.145 75.592 533.521 76.072 533.521 76.792C533.521 77.544 533.937 77.848 535.473 78.12C537.201 78.44 538.417 78.824 538.417 80.6C538.417 82.12 537.377 83.144 535.345 83.144Z" fill="#808C97"/>
<path d="M28.6152 4C18.1386 4 9.61523 12.6264 9.61523 23.2295V23.7611C9.61523 29.1236 12.653 35.3726 18.6443 42.3342C22.9876 47.3809 27.2702 50.8999 27.4503 51.0473L28.6152 52L29.7802 51.0474C29.9603 50.9 34.2429 47.381 38.5861 42.3343C44.5774 35.3726 47.6152 29.1237 47.6152 23.7612V23.2296C47.6152 12.6264 39.0919 4 28.6152 4ZM43.908 23.7612C43.908 32.8235 32.3707 43.7937 28.6152 47.1239C24.8588 43.7927 13.3225 32.8229 13.3225 23.7612V23.2296C13.3225 14.6954 20.1829 7.75216 28.6152 7.75216C37.0476 7.75216 43.908 14.6954 43.908 23.2296V23.7612Z" fill="#383838"/>
<path d="M28.615 14.318C23.7601 14.318 19.8102 18.3156 19.8102 23.2292C19.8102 28.1428 23.7601 32.1404 28.615 32.1404C33.47 32.1404 37.4199 28.1428 37.4199 23.2292C37.4199 18.3156 33.4701 14.318 28.615 14.318ZM28.615 28.3884C25.8043 28.3884 23.5175 26.074 23.5175 23.2292C23.5175 20.3845 25.8043 18.0701 28.615 18.0701C31.4258 18.0701 33.7126 20.3845 33.7126 23.2292C33.7126 26.074 31.4258 28.3884 28.615 28.3884Z" fill="#383838"/>
<path d="M9.54742 83V71.56H11.4834L15.0194 80.472L18.4434 71.56H20.3634V83H18.9714V73.368L15.1794 83H14.7474L10.8274 73.368V83H9.54742ZM25.2505 83.144C23.6985 83.144 22.4665 82.392 22.4665 80.68C22.4665 78.744 24.5145 78.088 26.6585 78.088H27.8585V77.48C27.8585 76.152 27.3465 75.592 26.0665 75.592C24.9145 75.592 24.2745 76.072 24.1465 77.096H22.8185C22.9945 75.192 24.5145 74.488 26.1305 74.488C27.7305 74.488 29.1865 75.144 29.1865 77.48V83H27.8585V81.944C27.2345 82.728 26.4825 83.144 25.2505 83.144ZM25.3785 82.088C26.7865 82.088 27.8585 81.368 27.8585 80.072V79.032H26.7065C25.0265 79.032 23.7945 79.448 23.7945 80.68C23.7945 81.544 24.2105 82.088 25.3785 82.088ZM31.7952 85.912V74.632H33.1232V76.04C33.6032 75.224 34.7392 74.488 35.9552 74.488C38.1472 74.488 39.7632 76.088 39.7632 78.696V78.824C39.7632 81.384 38.2592 83.144 35.9552 83.144C34.5792 83.144 33.6032 82.456 33.1232 81.624V85.912H31.7952ZM35.8272 82.04C37.4912 82.04 38.3872 80.92 38.3872 78.888V78.76C38.3872 76.648 37.2192 75.592 35.8112 75.592C34.2592 75.592 33.0752 76.616 33.0752 78.76V78.888C33.0752 81.032 34.1952 82.04 35.8272 82.04ZM43.9224 83.144C42.3704 83.144 41.1384 82.392 41.1384 80.68C41.1384 78.744 43.1864 78.088 45.3304 78.088H46.5304V77.48C46.5304 76.152 46.0184 75.592 44.7384 75.592C43.5864 75.592 42.9464 76.072 42.8184 77.096H41.4904C41.6664 75.192 43.1864 74.488 44.8024 74.488C46.4024 74.488 47.8584 75.144 47.8584 77.48V83H46.5304V81.944C45.9064 82.728 45.1544 83.144 43.9224 83.144ZM44.0504 82.088C45.4584 82.088 46.5304 81.368 46.5304 80.072V79.032H45.3784C43.6984 79.032 42.4664 79.448 42.4664 80.68C42.4664 81.544 42.8824 82.088 44.0504 82.088Z" fill="#808C97"/>
</svg>
