<svg width="620" height="317" viewBox="0 0 620 317" fill="none" xmlns="http://www.w3.org/2000/svg">
<path d="M474.3 71.2832C474.3 36.4188 522.898 0.264648 558.01 0.264648C593.122 0.264648 619.999 14.8509 619.999 49.7153C619.999 84.5797 620.674 148.614 585.561 148.614C550.447 148.614 474.3 106.148 474.3 71.2832Z" fill="#075E54"/>
<path d="M145.7 245.246C145.7 280.11 97.1019 316.265 61.9902 316.265C26.8784 316.265 0.000882371 301.678 0.000885444 266.814C0.000888516 231.95 -0.673775 167.916 34.4394 167.916C69.5526 167.916 145.7 210.382 145.7 245.246Z" fill="#ECB71E"/>
<path d="M0 72.0711C0 37.1972 48.5981 1.0332 83.7113 1.0332C118.824 1.0332 145.699 15.6234 145.699 50.4973C145.699 85.3712 146.374 149.423 111.262 149.423C76.1503 149.423 0 106.945 0 72.0711Z" fill="#25D366"/>
<path d="M620 244.458C620 279.332 571.402 315.496 536.289 315.496C501.176 315.496 474.301 300.906 474.301 266.032C474.301 231.158 473.626 167.107 508.738 167.107C543.85 167.107 620 209.584 620 244.458Z" fill="#34B7F1"/>
<path d="M389.825 9.49121C424.067 9.49121 459.575 56.4218 459.575 90.3302C459.575 124.239 445.251 150.191 411.008 150.191C376.766 150.191 313.875 150.843 313.875 116.934C313.875 83.0259 355.583 9.49121 389.825 9.49121Z" fill="#128C7E"/>
<path d="M230.175 307.038C195.933 307.038 160.425 260.108 160.425 226.199C160.425 192.291 174.75 166.338 208.992 166.338C243.234 166.338 306.125 165.687 306.125 199.595C306.125 233.503 264.417 307.038 230.175 307.038Z" fill="#D12F3E"/>
<path d="M289.12 19.2796C312.348 42.3295 304.287 98.1326 281.058 121.181C257.83 144.23 230.332 152.23 207.103 129.18C183.875 106.131 140.762 64.2389 163.992 41.1904C187.221 18.1419 265.891 -3.7702 289.12 19.2796Z" fill="#00AA9E"/>
<path d="M330.88 297.25C307.651 274.2 315.713 218.397 338.941 195.348C362.17 172.3 389.668 164.299 412.896 187.349C436.124 210.399 479.238 252.29 456.008 275.339C432.779 298.387 354.109 320.299 330.88 297.25Z" fill="#0098BD"/>
</svg>
