<svg width="540" height="267" viewBox="0 0 540 267" fill="none" xmlns="http://www.w3.org/2000/svg">
<path d="M524.162 36.121C528.023 36.279 532.514 33.5925 533.381 28.1405C534.248 22.6096 527.708 16.3674 521.167 18.8959C517.779 20.2391 509.82 22.1355 501.31 19.0539C500.838 18.8959 498.789 19.291 499.734 21.1083C503.989 29.4048 512.263 35.7259 524.162 36.121ZM520.931 24.5849C523.059 23.4787 525.186 24.901 525.659 26.6393C526.053 28.2986 524.871 30.3529 522.901 30.511C517.149 30.9851 512.815 29.1677 509.269 25.6121C513.524 26.7973 516.991 26.5603 520.931 24.5849Z" fill="#1D1D1D"/>
<path d="M500.286 11.1524C500.365 12.0216 501.626 12.1796 501.941 11.3105C503.202 8.30793 504.777 6.72764 507.299 5.30539C510.53 3.88314 512.972 2.30285 514.864 0.643555H504.856C504.541 1.11764 504.147 1.67074 503.674 2.22384C502.492 3.64609 499.971 6.25356 500.286 11.1524Z" fill="#1D1D1D"/>
<path d="M520.458 253.167C521.955 249.928 522.664 246.135 522.349 242.421C521.877 236.574 516.439 234.362 513.839 234.204C509.584 233.967 503.989 236.337 503.28 242.659C501.862 254.748 509.033 255.933 503.595 262.491C502.886 263.36 501.626 264.703 500.838 266.837H505.25C505.802 266.363 506.432 265.968 507.22 265.494C515.021 262.175 518.173 257.987 520.458 253.167ZM509.348 244.16C509.505 241.868 511.948 239.972 514.312 241.157C515.967 242.026 516.518 243.212 516.361 244.713C515.888 249.138 514.154 253.325 510.608 256.644C510.766 254.116 510.214 251.903 509.899 250.639C509.19 248.032 509.19 246.846 509.348 244.16Z" fill="#1D1D1D"/>
<path d="M485.157 208.051C478.695 210.342 476.568 214.688 476.174 221.167C476.016 233.651 481.926 246.451 496.504 253.641C497.449 254.115 497.764 253.167 497.607 252.851C494.14 244.001 495.716 230.806 500.128 226.698C502.886 222.905 502.886 216.821 499.498 212.397C496.504 208.683 490.83 206.076 485.157 208.051ZM493.903 224.485C490.673 228.436 488.151 234.125 490.042 242.263C484.763 236.416 481.532 226.382 483.187 219.113C484.132 216.347 487.127 213.977 491.145 215.162C494.219 216.11 497.449 220.298 493.903 224.485Z" fill="#1D1D1D"/>
<path d="M535.824 250.323C536.06 253.641 537.951 255.775 540 257.118V235.626C539.133 236.89 538.345 238.234 537.715 239.656C536.218 242.816 535.509 246.688 535.824 250.323Z" fill="#1D1D1D"/>
<path d="M524.792 204.338C523.925 209.869 530.465 216.111 537.006 213.582C537.794 213.266 538.818 212.95 540 212.634V206.787C539.133 207.024 538.188 207.419 537.242 207.893C535.115 208.999 532.987 207.577 532.514 205.839C532.12 204.18 533.302 202.125 535.272 201.967C536.927 201.809 538.503 201.888 539.921 202.125V197.068C538.03 196.673 536.06 196.357 533.933 196.278C530.072 196.278 525.659 198.886 524.792 204.338Z" fill="#1D1D1D"/>
<path d="M493.115 143.261C493.037 142.392 491.776 142.234 491.461 143.103C490.2 146.105 488.624 147.686 486.102 149.108C478.302 152.585 475.15 156.693 472.864 161.513C471.367 164.753 470.658 168.545 470.973 172.259C471.446 178.106 476.883 180.319 479.483 180.477C483.739 180.714 489.333 178.343 490.042 172.022C491.461 159.933 484.29 158.748 489.727 152.189C490.909 150.767 493.431 148.16 493.115 143.261ZM484.054 170.521C483.896 172.812 481.453 174.709 479.089 173.523C477.435 172.654 476.883 171.469 477.041 169.968C477.514 165.543 479.247 161.355 482.793 158.037C482.635 160.565 483.187 162.777 483.502 164.042C484.211 166.728 484.211 167.913 484.054 170.521Z" fill="#1D1D1D"/>
<path d="M496.819 161.118C495.873 160.644 495.558 161.592 495.716 161.908C499.183 170.757 497.607 183.952 493.194 188.061C490.436 191.853 490.436 197.937 493.825 202.362C496.819 206.155 502.492 208.762 508.245 206.708C514.706 204.416 516.833 200.071 517.227 193.592C517.385 181.029 511.475 168.308 496.819 161.118ZM510.215 195.567C509.269 198.332 506.275 200.703 502.256 199.518C499.262 198.648 496.031 194.382 499.498 190.273C502.729 186.323 505.25 180.634 503.359 172.495C508.56 178.263 511.79 188.298 510.215 195.567Z" fill="#1D1D1D"/>
<path d="M533.381 158.352C534.248 152.821 527.708 146.579 521.167 149.108C517.779 150.451 509.82 152.347 501.31 149.266C500.838 149.108 498.789 149.503 499.734 151.32C503.989 159.617 512.263 166.017 524.162 166.412C528.102 166.412 532.514 163.804 533.381 158.352ZM522.822 160.644C517.07 161.118 512.736 159.301 509.19 155.745C513.524 156.93 516.991 156.772 520.852 154.718C522.98 153.612 525.107 155.034 525.58 156.772C526.053 158.431 524.871 160.486 522.822 160.644Z" fill="#1D1D1D"/>
<path d="M501.941 141.523C503.202 138.521 504.778 136.941 507.299 135.518C515.1 132.042 518.252 127.933 520.537 123.113C522.034 119.873 522.743 116.081 522.428 112.367C521.955 106.52 516.518 104.308 513.918 104.15C509.663 103.913 504.068 106.283 503.359 112.604C501.941 124.693 509.111 125.879 503.674 132.437C502.571 133.78 500.05 136.387 500.286 141.365C500.286 142.155 501.626 142.313 501.941 141.523ZM509.348 114.026C509.505 111.735 511.948 109.839 514.312 111.024C515.967 111.893 516.518 113.078 516.361 114.58C515.888 119.004 514.154 123.192 510.609 126.511C510.766 123.982 510.215 121.77 509.899 120.506C509.19 117.819 509.19 116.713 509.348 114.026Z" fill="#1D1D1D"/>
<path d="M499.577 82.2634C496.583 78.4708 490.909 75.8634 485.157 77.9177C478.695 80.209 476.568 84.5547 476.174 91.0337C476.016 103.518 481.926 116.318 496.504 123.508C497.449 123.982 497.764 123.034 497.607 122.718C494.14 113.868 495.716 100.673 500.128 96.5646C502.965 92.851 502.965 86.6881 499.577 82.2634ZM493.903 94.3523C490.673 98.3029 488.151 103.992 490.042 112.13C484.763 106.283 481.532 96.2485 483.187 88.9794C484.133 86.214 487.127 83.8436 491.145 85.0288C494.219 85.9769 497.449 90.1646 493.903 94.3523Z" fill="#1D1D1D"/>
<path d="M535.824 120.189C536.06 123.508 537.951 125.641 540 126.985V105.493C539.133 106.757 538.345 108.1 537.715 109.523C536.218 112.683 535.509 116.555 535.824 120.189Z" fill="#1D1D1D"/>
<path d="M524.792 74.2041C523.925 79.7351 530.465 85.9772 537.006 83.4488C537.794 83.1327 538.818 82.8167 540 82.5006V76.6536C539.133 76.8906 538.188 77.2857 537.242 77.7598C535.115 78.866 532.987 77.4437 532.514 75.7054C532.12 74.0461 533.302 71.9917 535.272 71.8337C536.927 71.6757 538.503 71.7547 539.921 71.9917V66.9348C538.03 66.5398 536.06 66.2237 533.933 66.1447C530.072 66.0657 525.659 68.7522 524.792 74.2041Z" fill="#1D1D1D"/>
<path d="M479.483 50.3435C483.739 50.5805 489.333 48.2101 490.042 41.889C491.461 29.7998 484.29 28.6146 489.727 22.0564C490.83 20.7132 493.352 18.1057 493.115 13.1278C493.037 12.2586 491.776 12.1006 491.461 12.9698C490.2 15.9723 488.624 17.5526 486.102 18.9748C478.301 22.4515 475.15 26.5602 472.864 31.3801C471.367 34.6197 470.658 38.4123 470.973 42.126C471.446 47.973 476.962 50.1854 479.483 50.3435ZM477.041 39.8346C477.513 35.4098 479.247 31.222 482.793 27.9034C482.635 30.4319 483.187 32.6443 483.502 33.9085C484.211 36.595 484.211 37.7802 484.054 40.4667C483.896 42.7581 481.453 44.6544 479.089 43.4692C477.435 42.6001 476.883 41.3359 477.041 39.8346Z" fill="#1D1D1D"/>
<path d="M493.825 72.1505C496.819 75.9431 502.492 78.5505 508.245 76.4962C514.706 74.2048 516.833 69.8591 517.227 63.3801C517.385 50.8961 511.475 38.0961 496.898 30.906C495.952 30.4319 495.637 31.3801 495.795 31.6961C499.262 40.5455 497.686 53.7406 493.273 57.8492C490.436 61.6418 490.436 67.7258 493.825 72.1505ZM499.498 60.0616C502.729 56.111 505.25 50.4221 503.359 42.2838C508.639 48.1307 511.869 58.1653 510.214 65.4344C509.269 68.1999 506.275 70.5702 502.256 69.385C499.183 68.5159 495.952 64.2492 499.498 60.0616Z" fill="#1D1D1D"/>
<path d="M472.234 5.3844C475.622 4.04116 483.581 2.14482 492.091 5.22638C492.564 5.3844 494.613 4.98933 493.667 3.17201C493.194 2.30285 492.721 1.4337 492.17 0.643555H460.887C462.778 4.43623 467.506 7.20173 472.234 5.3844Z" fill="#1D1D1D"/>
<path d="M341.43 16.1302C341.903 21.9773 347.34 24.1897 349.94 24.3477C354.195 24.5848 359.79 22.2143 360.499 15.8932C361.523 7.28066 358.135 4.19911 358.135 0.722487H346.158C345.055 2.22376 344.188 3.80404 343.4 5.38432C341.903 8.6239 341.194 12.4166 341.43 16.1302ZM347.497 13.8388C347.97 9.41404 349.704 5.22629 353.25 1.9077C353.092 4.43615 353.644 6.64855 353.959 7.91278C354.668 10.5993 354.668 11.7845 354.51 14.471C354.353 16.7624 351.91 18.6587 349.546 17.4735C347.891 16.5253 347.34 15.3401 347.497 13.8388Z" fill="#1D1D1D"/>
<path d="M394.618 10.1253C398.479 10.2833 402.971 7.5968 403.838 2.14482C403.917 1.67074 403.917 1.19665 403.917 0.643555H396.116C396.431 2.22384 395.328 4.27821 393.358 4.43623C388.315 4.83131 384.296 3.48806 380.986 0.643555H374.052C378.701 6.09553 385.635 9.8092 394.618 10.1253Z" fill="#1D1D1D"/>
<path d="M308.965 8.46588C307.547 20.555 314.718 21.7403 309.281 28.2984C308.178 29.6417 305.656 32.2491 305.892 37.227C305.971 38.0962 307.232 38.2542 307.547 37.3851C308.808 34.3825 310.384 32.8022 312.905 31.38C320.706 27.9034 323.858 23.7946 326.143 18.9748C327.641 15.7352 328.35 11.9425 328.035 8.22883C327.719 4.1201 324.883 1.74967 322.361 0.722487H315.033C312.117 1.82869 309.517 4.27812 308.965 8.46588ZM315.033 9.88813C315.191 7.59672 317.633 5.70038 319.997 6.88559C321.652 7.75475 322.204 8.93996 322.046 10.4412C321.573 14.866 319.84 19.0538 316.294 22.3724C316.451 19.8439 315.9 17.6315 315.584 16.3673C314.875 13.7598 314.797 12.5746 315.033 9.88813Z" fill="#1D1D1D"/>
<path d="M302.268 19.3699C303.213 19.844 303.528 18.8958 303.371 18.5798C301.243 13.2068 301.007 6.25356 302.11 0.643555H295.176C294.939 2.85595 295.097 5.30539 295.727 7.99187C293.915 5.9375 292.26 3.40905 291.078 0.643555H284.302C287.296 8.1499 293.048 14.8661 302.268 19.3699Z" fill="#1D1D1D"/>
<path d="M277.919 31.4591C281.307 30.1158 289.266 28.2195 297.776 31.301C298.249 31.4591 300.298 31.064 299.352 29.2467C295.097 20.9502 286.823 14.55 274.925 14.155C271.064 13.9969 266.572 16.6834 265.706 22.1354C264.839 27.6664 271.379 33.9875 277.919 31.4591ZM276.264 19.844C282.017 19.3699 286.35 21.1872 289.896 24.7428C285.562 23.5576 282.095 23.7157 278.234 25.77C276.107 26.8762 273.979 25.454 273.506 23.7157C273.034 22.0564 274.216 20.002 276.264 19.844Z" fill="#1D1D1D"/>
<path d="M200.303 36.121C204.165 36.279 208.656 33.5925 209.523 28.1405C210.39 22.6096 203.849 16.3674 197.309 18.8959C193.921 20.2391 185.962 22.1355 177.452 19.0539C176.979 18.8959 174.931 19.291 175.876 21.1083C180.053 29.4048 188.405 35.7259 200.303 36.121ZM196.994 24.5849C199.122 23.4787 201.249 24.901 201.722 26.6393C202.116 28.2986 200.934 30.3529 198.964 30.511C193.212 30.9851 188.878 29.1677 185.332 25.6121C189.666 26.7973 193.133 26.5603 196.994 24.5849Z" fill="#1D1D1D"/>
<path d="M176.428 11.1524C176.507 12.0216 177.767 12.1796 178.083 11.3105C179.343 8.30793 180.919 6.72764 183.441 5.30539C186.672 3.88314 189.114 2.30285 191.005 0.643555H180.998C180.683 1.11764 180.289 1.67074 179.816 2.22384C178.634 3.64609 176.113 6.25356 176.428 11.1524Z" fill="#1D1D1D"/>
<path d="M234.738 20.081C237.732 23.8737 243.406 26.4812 249.079 24.4268C255.541 22.1354 257.668 17.7896 258.062 11.3105C258.141 7.75483 257.668 4.12018 256.644 0.643555H250.025C251.443 4.98933 251.916 9.49314 251.049 13.2858C250.104 16.0513 247.109 18.4217 243.091 17.2365C240.096 16.3674 236.866 12.1006 240.333 7.99187C241.987 6.01652 243.406 3.56708 244.194 0.643555H237.023C236.314 2.85595 235.29 4.67328 234.108 5.77948C231.35 9.57216 231.35 15.6562 234.738 20.081Z" fill="#1D1D1D"/>
<path d="M469.24 248.426C465.379 248.268 460.887 250.955 460.02 256.407C459.154 261.938 465.694 268.18 472.234 265.651C475.622 264.308 483.581 262.412 492.091 265.493C492.564 265.651 494.613 265.256 493.667 263.439C489.412 255.221 481.138 248.821 469.24 248.426ZM472.47 260.041C470.343 261.148 468.215 259.725 467.743 257.987C467.349 256.328 468.531 254.273 470.501 254.115C476.253 253.641 480.587 255.459 484.133 259.014C479.877 257.829 476.41 257.987 472.47 260.041Z" fill="#1D1D1D"/>
<path d="M420.385 260.12C416.367 261.542 414.003 263.834 412.663 266.915H436.224C435.83 266.046 435.357 265.256 434.726 264.466C431.732 260.673 426.059 258.066 420.385 260.12Z" fill="#1D1D1D"/>
<path d="M360.184 256.249C361.287 254.906 363.809 252.298 363.572 247.32C363.493 246.451 362.233 246.293 361.917 247.162C360.657 250.165 359.081 251.745 356.559 253.167C348.758 256.644 345.606 260.753 343.321 265.573C343.164 265.968 342.927 266.442 342.77 266.837H349.546C350.413 265.098 351.595 263.518 353.171 262.017C353.013 263.913 353.329 265.572 353.565 266.837H359.711C358.529 262.57 356.638 260.595 360.184 256.249Z" fill="#1D1D1D"/>
<path d="M366.172 265.967C366.33 266.283 366.409 266.599 366.488 266.915H370.428C369.403 266.283 368.379 265.73 367.276 265.177C366.33 264.703 366.094 265.73 366.172 265.967Z" fill="#1D1D1D"/>
<path d="M391.624 253.167C388.236 254.51 380.277 256.407 371.767 253.325C371.294 253.167 369.246 253.562 370.191 255.379C372.634 260.12 376.416 264.229 381.38 266.994H401.868C402.813 265.809 403.444 264.308 403.759 262.491C404.704 256.881 398.164 250.638 391.624 253.167ZM393.279 264.782C387.527 265.256 383.193 263.439 379.647 259.883C383.981 261.068 387.448 260.91 391.309 258.856C393.436 257.75 395.564 259.172 396.037 260.91C396.431 262.491 395.328 264.624 393.279 264.782Z" fill="#1D1D1D"/>
<path d="M384.375 208.209C380.12 207.972 374.525 210.342 373.816 216.663C372.398 228.753 379.568 229.938 374.131 236.496C373.028 237.839 370.506 240.447 370.743 245.425C370.822 246.294 372.082 246.452 372.398 245.583C373.658 242.58 375.234 241 377.756 239.578C385.557 236.101 388.709 231.992 390.994 227.172C392.491 223.933 393.2 220.14 392.885 216.426C392.333 210.579 386.896 208.367 384.375 208.209ZM386.739 218.718C386.266 223.143 384.532 227.33 380.986 230.649C381.144 228.12 380.592 225.908 380.277 224.644C379.568 221.957 379.568 220.772 379.726 218.086C379.883 215.794 382.326 213.898 384.69 215.083C386.423 215.952 386.896 217.217 386.739 218.718Z" fill="#1D1D1D"/>
<path d="M370.034 186.402C367.039 182.609 361.366 180.002 355.692 182.056C349.231 184.347 347.103 188.693 346.709 195.172C346.552 207.656 352.462 220.456 367.039 227.646C367.985 228.12 368.3 227.172 368.142 226.856C364.675 218.007 366.251 204.811 370.664 200.703C373.422 196.91 373.422 190.826 370.034 186.402ZM364.36 198.49C361.129 202.441 358.608 208.13 360.499 216.268C355.22 210.421 351.989 200.387 353.644 193.118C354.589 190.352 357.584 187.982 361.602 189.167C364.675 190.036 367.906 194.303 364.36 198.49Z" fill="#1D1D1D"/>
<path d="M339.696 222.431C335.835 222.273 331.344 224.96 330.477 230.412C329.61 235.943 336.151 242.185 342.691 239.656C346.079 238.313 354.038 236.417 362.548 239.498C363.021 239.656 365.069 239.261 364.124 237.444C359.869 229.226 351.516 222.826 339.696 222.431ZM342.927 233.967C340.8 235.073 338.672 233.651 338.199 231.913C337.805 230.254 338.987 228.199 340.957 228.041C346.709 227.567 351.043 229.384 354.589 232.94C350.334 231.755 346.867 231.992 342.927 233.967Z" fill="#1D1D1D"/>
<path d="M319.603 260.278C315.821 260.041 310.935 261.937 309.438 266.915H317.633C318.106 266.757 318.658 266.757 319.209 266.915H327.719C326.537 262.253 321.888 260.357 319.603 260.278Z" fill="#1D1D1D"/>
<path d="M305.262 238.471C302.268 234.678 296.594 232.071 290.842 234.125C284.381 236.416 282.253 240.762 281.859 247.241C281.78 254.037 283.514 260.911 287.454 266.995H294.624C290.054 261.069 287.375 251.982 288.872 245.266C289.818 242.501 292.812 240.13 296.831 241.315C299.825 242.184 303.056 246.451 299.589 250.56C296.515 254.274 294.151 259.568 295.491 266.995H301.48C301.637 260.911 303.213 255.222 305.892 252.772C308.65 248.98 308.65 242.896 305.262 238.471Z" fill="#1D1D1D"/>
<path d="M196.6 253.167C198.097 249.928 198.806 246.135 198.491 242.421C198.018 236.574 192.581 234.362 189.981 234.204C185.726 233.967 180.131 236.337 179.422 242.659C178.004 254.748 185.174 255.933 179.737 262.491C179.028 263.36 177.767 264.703 176.979 266.837H181.392C181.944 266.363 182.574 265.968 183.362 265.494C191.163 262.175 194.315 257.987 196.6 253.167ZM185.411 244.16C185.568 241.868 188.011 239.972 190.375 241.157C192.03 242.026 192.581 243.212 192.424 244.713C191.951 249.138 190.217 253.325 186.672 256.644C186.829 254.116 186.278 251.903 185.962 250.639C185.332 248.032 185.253 246.846 185.411 244.16Z" fill="#1D1D1D"/>
<path d="M161.299 208.051C154.837 210.342 152.71 214.688 152.316 221.167C152.158 233.651 158.068 246.451 172.646 253.641C173.591 254.115 173.906 253.167 173.749 252.851C170.282 244.001 171.858 230.806 176.27 226.698C179.028 222.905 179.028 216.821 175.64 212.397C172.646 208.683 166.972 206.076 161.299 208.051ZM170.045 224.485C166.814 228.436 164.293 234.125 166.184 242.263C160.905 236.416 157.674 226.382 159.329 219.113C160.274 216.347 163.269 213.977 167.287 215.162C170.282 216.11 173.512 220.298 170.045 224.485Z" fill="#1D1D1D"/>
<path d="M460.02 126.273C459.154 131.804 465.694 138.046 472.234 135.518C475.622 134.175 483.581 132.278 492.091 135.36C492.564 135.518 494.613 135.123 493.667 133.306C489.412 125.009 481.138 118.609 469.24 118.214C465.3 118.135 460.887 120.821 460.02 126.273ZM470.579 123.982C476.332 123.508 480.665 125.325 484.211 128.881C479.877 127.696 476.41 127.854 472.549 129.908C470.422 131.014 468.294 129.592 467.821 127.854C467.349 126.194 468.531 124.14 470.579 123.982Z" fill="#1D1D1D"/>
<path d="M425.034 204.18C426.137 202.836 428.659 200.229 428.423 195.251C428.344 194.382 427.083 194.224 426.768 195.093C425.507 198.096 423.931 199.676 421.41 201.098C413.609 204.575 410.457 208.683 408.172 213.503C406.674 216.743 405.965 220.536 406.28 224.249C406.753 230.096 412.19 232.309 414.791 232.467C419.046 232.704 424.64 230.333 425.349 224.012C426.768 211.923 419.518 210.817 425.034 204.18ZM419.282 222.59C419.124 224.881 416.682 226.778 414.318 225.593C412.663 224.723 412.111 223.538 412.269 222.037C412.742 217.612 414.475 213.424 418.021 210.106C417.864 212.634 418.415 214.847 418.73 216.111C419.44 218.797 419.44 219.903 419.282 222.59Z" fill="#1D1D1D"/>
<path d="M432.047 213.187C431.102 212.713 430.787 213.661 430.944 213.977C434.411 222.826 432.835 236.021 428.423 240.13C425.665 243.923 425.665 250.006 429.053 254.431C432.047 258.224 437.721 260.831 443.394 258.777C449.856 256.486 451.983 252.14 452.377 245.661C452.613 233.098 446.704 220.298 432.047 213.187ZM445.364 247.636C444.419 250.402 441.424 252.772 437.406 251.587C434.411 250.718 431.181 246.451 434.648 242.342C437.878 238.392 440.4 232.703 438.509 224.565C443.788 230.332 447.019 240.367 445.364 247.636Z" fill="#1D1D1D"/>
<path d="M468.609 210.343C469.476 204.812 462.936 198.569 456.396 201.098C453.007 202.441 445.049 204.337 436.539 201.256C436.066 201.098 434.017 201.493 434.963 203.31C439.218 211.607 447.492 218.007 459.39 218.402C463.33 218.481 467.743 215.874 468.609 210.343ZM458.051 212.713C452.298 213.187 447.964 211.37 444.419 207.814C448.752 208.999 452.219 208.841 456.081 206.787C458.208 205.681 460.336 207.103 460.808 208.841C461.281 210.501 460.099 212.555 458.051 212.713Z" fill="#1D1D1D"/>
<path d="M437.169 193.592C438.43 190.59 440.006 189.01 442.527 187.587C450.328 184.111 453.48 180.002 455.765 175.182C457.263 171.943 457.972 168.15 457.657 164.436C457.184 158.589 451.747 156.377 449.146 156.219C444.891 155.982 439.297 158.352 438.588 164.673C437.169 176.762 444.34 177.948 438.903 184.506C437.8 185.849 435.278 188.457 435.514 193.434C435.514 194.225 436.854 194.383 437.169 193.592ZM444.576 166.096C444.734 163.804 447.177 161.908 449.54 163.093C451.195 163.962 451.747 165.147 451.589 166.649C451.116 171.073 449.383 175.261 445.837 178.58C445.995 176.051 445.443 173.839 445.128 172.575C444.419 169.888 444.34 168.782 444.576 166.096Z" fill="#1D1D1D"/>
<path d="M434.805 134.332C431.811 130.54 426.137 127.932 420.385 129.987C413.924 132.278 411.796 136.624 411.402 143.103C411.245 155.587 417.155 168.387 431.732 175.577C432.678 176.051 432.993 175.103 432.835 174.787C429.368 165.937 430.944 152.742 435.357 148.634C438.193 144.841 438.193 138.757 434.805 134.332ZM429.132 146.421C425.901 150.372 423.379 156.061 425.271 164.199C419.991 158.352 416.761 148.318 418.415 141.049C419.361 138.283 422.355 135.913 426.374 137.098C429.447 138.046 432.678 142.234 429.132 146.421Z" fill="#1D1D1D"/>
<path d="M427.319 187.508C427.792 187.666 429.841 187.271 428.895 185.454C424.64 177.157 416.367 170.757 404.468 170.362C400.607 170.204 396.116 172.891 395.249 178.343C394.382 183.873 400.922 190.116 407.462 187.587C410.851 186.244 418.809 184.348 427.319 187.508ZM403.05 179.844C402.656 178.184 403.838 176.13 405.808 175.972C411.56 175.498 415.894 177.315 419.44 180.871C415.106 179.686 411.639 179.844 407.778 181.898C405.571 183.004 403.444 181.582 403.05 179.844Z" fill="#1D1D1D"/>
<path d="M363.572 117.266C363.493 116.397 362.233 116.239 361.917 117.108C360.657 120.11 359.081 121.691 356.559 123.113C348.758 126.589 345.606 130.698 343.321 135.518C341.824 138.758 341.115 142.55 341.43 146.264C341.903 152.111 347.34 154.323 349.94 154.481C354.195 154.719 359.79 152.348 360.499 146.027C361.917 133.938 354.747 132.753 360.184 126.194C361.366 124.772 363.887 122.165 363.572 117.266ZM354.51 144.526C354.353 146.817 351.91 148.713 349.546 147.528C347.891 146.659 347.34 145.474 347.497 143.973C347.97 139.548 349.704 135.36 353.25 132.041C353.092 134.57 353.644 136.782 353.959 138.047C354.668 140.733 354.668 141.839 354.51 144.526Z" fill="#1D1D1D"/>
<path d="M378.701 180.634C385.163 178.342 387.29 173.997 387.684 167.518C387.842 155.034 381.932 142.234 367.354 135.044C366.409 134.57 366.094 135.518 366.251 135.834C369.718 144.683 368.142 157.878 363.73 161.987C360.972 165.779 360.972 171.863 364.36 176.288C367.354 180.081 373.028 182.688 378.701 180.634ZM369.876 164.199C373.107 160.249 375.628 154.56 373.737 146.421C379.016 152.268 382.247 162.303 380.592 169.572C379.647 172.337 376.653 174.708 372.634 173.523C369.64 172.574 366.409 168.387 369.876 164.199Z" fill="#1D1D1D"/>
<path d="M403.838 132.278C404.705 126.747 398.164 120.505 391.624 123.034C388.236 124.377 380.277 126.273 371.767 123.192C371.294 123.034 369.246 123.429 370.191 125.246C374.446 133.543 382.72 139.943 394.618 140.338C398.558 140.417 402.971 137.809 403.838 132.278ZM393.279 134.649C387.527 135.123 383.193 133.306 379.647 129.75C383.981 130.935 387.448 130.777 391.309 128.723C393.436 127.616 395.564 129.039 396.037 130.777C396.431 132.357 395.328 134.412 393.279 134.649Z" fill="#1D1D1D"/>
<path d="M373.737 86.5302C372.319 98.6193 379.489 99.8045 374.052 106.363C372.949 107.706 370.428 110.313 370.664 115.291C370.743 116.16 372.004 116.318 372.319 115.449C373.579 112.447 375.155 110.867 377.677 109.444C385.478 105.968 388.63 101.859 390.915 97.039C392.412 93.7995 393.121 90.0068 392.806 86.2931C392.333 80.4461 386.896 78.2337 384.296 78.0756C380.12 77.8386 374.525 80.13 373.737 86.5302ZM386.739 88.5845C386.266 93.0093 384.532 97.1971 380.986 100.516C381.144 97.9872 380.592 95.7748 380.277 94.5106C379.568 91.8241 379.568 90.6389 379.726 87.9524C379.883 85.661 382.326 83.7647 384.69 84.9499C386.423 85.819 386.896 87.0833 386.739 88.5845Z" fill="#1D1D1D"/>
<path d="M367.039 97.4336C367.985 97.9076 368.3 96.9595 368.142 96.6434C364.675 87.7941 366.251 74.599 370.664 70.4904C373.422 66.6978 373.422 60.6138 370.034 56.1891C367.039 52.3965 361.366 49.7891 355.692 51.8434C349.231 54.1348 347.103 58.4805 346.709 64.9595C346.473 77.5225 352.383 90.2434 367.039 97.4336ZM353.644 62.9842C354.589 60.2187 357.583 57.8484 361.602 59.0336C364.596 59.9027 367.827 64.1694 364.36 68.278C361.129 72.2286 358.608 77.9175 360.499 86.0558C355.22 80.2879 351.989 70.2533 353.644 62.9842Z" fill="#1D1D1D"/>
<path d="M330.477 100.199C329.61 105.73 336.151 111.972 342.691 109.444C346.079 108.101 354.038 106.204 362.548 109.286C363.021 109.444 365.069 109.049 364.124 107.232C359.869 98.9351 351.595 92.535 339.696 92.1399C335.757 92.1399 331.344 94.7473 330.477 100.199ZM341.036 97.9079C346.788 97.4338 351.122 99.2512 354.668 102.807C350.334 101.622 346.867 101.78 343.006 103.834C340.878 104.94 338.751 103.518 338.278 101.78C337.805 100.12 338.987 98.0659 341.036 97.9079Z" fill="#1D1D1D"/>
<path d="M295.412 178.185C296.515 176.841 299.037 174.234 298.801 169.256C298.722 168.387 297.461 168.229 297.146 169.098C295.885 172.1 294.309 173.681 291.788 175.103C283.987 178.58 280.835 182.688 278.55 187.508C277.052 190.748 276.343 194.541 276.658 198.254C277.131 204.101 282.568 206.314 285.169 206.472C289.424 206.709 295.018 204.338 295.727 198.017C297.146 185.928 289.975 184.743 295.412 178.185ZM289.739 196.595C289.581 198.886 287.138 200.783 284.775 199.597C283.12 198.728 282.568 197.543 282.726 196.042C283.199 191.617 284.932 187.429 288.478 184.111C288.32 186.639 288.872 188.852 289.187 190.116C289.896 192.723 289.896 193.908 289.739 196.595Z" fill="#1D1D1D"/>
<path d="M302.504 187.113C301.558 186.639 301.243 187.587 301.401 187.903C304.868 196.752 303.292 209.947 298.879 214.056C296.121 217.848 296.121 223.932 299.51 228.357C302.504 232.15 308.177 234.757 313.93 232.703C320.391 230.411 322.519 226.066 322.913 219.587C322.991 207.024 317.16 194.303 302.504 187.113ZM315.821 221.562C314.875 224.328 311.881 226.698 307.862 225.513C304.868 224.644 301.637 220.377 305.104 216.268C308.335 212.318 310.857 206.629 308.965 198.49C314.245 204.337 317.476 214.372 315.821 221.562Z" fill="#1D1D1D"/>
<path d="M339.066 184.347C339.933 178.816 333.393 172.574 326.852 175.103C323.464 176.446 315.506 178.342 306.995 175.261C306.523 175.103 304.474 175.498 305.42 177.315C309.675 185.612 317.948 192.012 329.847 192.407C333.787 192.486 338.199 189.799 339.066 184.347ZM328.507 186.639C322.755 187.113 318.421 185.296 314.875 181.74C319.209 182.925 322.676 182.767 326.537 180.713C328.665 179.607 330.792 181.029 331.265 182.767C331.659 184.426 330.556 186.481 328.507 186.639Z" fill="#1D1D1D"/>
<path d="M307.626 167.518C308.887 164.516 310.463 162.936 312.984 161.513C320.785 158.037 323.937 153.928 326.222 149.108C327.719 145.869 328.428 142.076 328.113 138.362C327.64 132.515 322.203 130.303 319.603 130.145C315.348 129.908 309.753 132.278 309.044 138.599C307.626 150.688 314.796 151.874 309.359 158.432C308.256 159.775 305.735 162.383 305.971 167.36C305.971 168.23 307.311 168.388 307.626 167.518ZM315.033 140.101C315.19 137.809 317.633 135.913 319.997 137.098C321.652 137.967 322.203 139.152 322.046 140.654C321.573 145.078 319.84 149.266 316.294 152.585C316.451 150.056 315.9 147.844 315.584 146.58C314.875 143.893 314.796 142.708 315.033 140.101Z" fill="#1D1D1D"/>
<path d="M305.262 108.337C302.268 104.545 296.594 101.937 290.842 103.992C284.381 106.283 282.253 110.629 281.859 117.108C281.701 129.592 287.611 142.392 302.189 149.582C303.134 150.056 303.45 149.108 303.292 148.792C299.825 139.942 301.401 126.747 305.814 122.639C308.65 118.846 308.65 112.762 305.262 108.337ZM299.589 120.347C296.358 124.298 293.836 129.987 295.727 138.125C290.448 132.278 287.217 122.244 288.872 114.974C289.818 112.209 292.812 109.839 296.831 111.024C299.904 111.972 303.056 116.239 299.589 120.347Z" fill="#1D1D1D"/>
<path d="M297.776 161.434C298.249 161.592 300.298 161.197 299.352 159.38C295.097 151.083 286.823 144.683 274.925 144.288C271.064 144.13 266.572 146.816 265.706 152.268C264.839 157.799 271.379 164.041 277.919 161.513C281.307 160.249 289.266 158.352 297.776 161.434ZM273.428 153.849C273.034 152.189 274.216 150.135 276.186 149.977C281.938 149.503 286.272 151.32 289.818 154.876C285.484 153.691 282.017 153.849 278.156 155.903C276.028 157.009 273.9 155.587 273.428 153.849Z" fill="#1D1D1D"/>
<path d="M234.029 221.325C233.95 220.456 232.689 220.298 232.374 221.167C231.113 224.17 229.537 225.75 227.016 227.172C219.215 230.649 216.063 234.757 213.778 239.577C212.281 242.817 211.572 246.61 211.887 250.323C212.36 256.17 217.797 258.383 220.397 258.541C224.652 258.778 230.247 256.407 230.956 250.086C232.374 237.997 225.204 236.812 230.641 230.254C231.823 228.91 234.344 226.224 234.029 221.325ZM224.967 248.664C224.81 250.955 222.367 252.852 220.003 251.667C218.348 250.797 217.797 249.612 217.954 248.111C218.427 243.686 220.161 239.498 223.706 236.18C223.549 238.708 224.1 240.921 224.416 242.185C225.125 244.792 225.125 245.978 224.967 248.664Z" fill="#1D1D1D"/>
<path d="M237.732 239.182C236.787 238.708 236.472 239.656 236.629 239.972C240.096 248.822 238.52 262.017 234.108 266.126C233.871 266.363 233.714 266.679 233.556 266.995H241.436C244.115 263.123 245.927 257.829 244.194 250.56C247.976 254.748 250.734 261.069 251.364 266.995H257.905C256.644 256.012 250.498 245.424 237.732 239.182Z" fill="#1D1D1D"/>
<path d="M262.081 227.093C258.693 228.436 250.734 230.332 242.224 227.251C241.751 227.093 239.702 227.488 240.648 229.305C244.903 237.602 253.177 244.002 265.075 244.397C268.936 244.555 273.428 241.869 274.295 236.417C275.161 230.886 268.621 224.564 262.081 227.093ZM263.736 238.708C257.983 239.182 253.649 237.365 250.104 233.809C254.437 234.994 257.905 234.836 261.766 232.782C263.893 231.676 266.021 233.098 266.494 234.836C266.888 236.496 265.784 238.55 263.736 238.708Z" fill="#1D1D1D"/>
<path d="M241.199 219.43C241.278 220.299 242.539 220.457 242.854 219.588C244.115 216.585 245.691 215.005 248.212 213.582C256.013 210.106 259.165 205.997 261.45 201.177C262.948 197.938 263.657 194.145 263.342 190.431C262.869 184.584 257.432 182.372 254.831 182.214C250.576 181.977 244.982 184.347 244.273 190.668C242.854 202.758 250.025 203.943 244.588 210.501C243.406 211.844 240.884 214.531 241.199 219.43ZM250.182 192.091C250.34 189.799 252.783 187.903 255.147 189.088C256.801 189.957 257.353 191.142 257.195 192.644C256.723 197.069 254.989 201.256 251.443 204.575C251.601 202.046 251.049 199.834 250.734 198.57C250.104 195.962 250.025 194.777 250.182 192.091Z" fill="#1D1D1D"/>
<path d="M241.042 174.629C243.8 170.836 243.8 164.752 240.412 160.328C237.417 156.535 231.744 153.928 226.07 155.982C219.609 158.273 217.481 162.619 217.087 169.098C216.93 181.582 222.84 194.382 237.417 201.572C238.363 202.046 238.678 201.098 238.52 200.782C235.132 191.933 236.708 178.737 241.042 174.629ZM234.817 172.416C231.586 176.367 229.065 182.056 230.956 190.194C225.676 184.347 222.446 174.313 224.1 167.044C225.046 164.278 228.04 161.908 232.059 163.093C235.132 164.041 238.284 168.229 234.817 172.416Z" fill="#1D1D1D"/>
<path d="M210.153 196.357C206.292 196.199 201.801 198.886 200.934 204.338C200.067 209.869 206.607 216.111 213.148 213.582C216.536 212.239 224.494 210.343 233.005 213.424C233.477 213.582 235.526 213.187 234.58 211.37C230.325 203.152 221.973 196.831 210.153 196.357ZM213.384 207.972C211.256 209.078 209.129 207.656 208.656 205.918C208.262 204.259 209.444 202.204 211.414 202.046C217.166 201.572 221.5 203.389 225.046 206.945C220.791 205.76 217.324 205.997 213.384 207.972Z" fill="#1D1D1D"/>
<path d="M169.257 143.261C169.178 142.392 167.918 142.234 167.603 143.103C166.342 146.105 164.766 147.686 162.244 149.108C154.443 152.585 151.291 156.693 149.006 161.513C147.509 164.753 146.8 168.545 147.115 172.259C147.588 178.106 153.025 180.319 155.625 180.477C159.88 180.714 165.475 178.343 166.184 172.022C167.603 159.933 160.432 158.748 165.869 152.189C167.051 150.767 169.494 148.16 169.257 143.261ZM160.196 170.521C160.038 172.812 157.595 174.709 155.231 173.523C153.577 172.654 153.025 171.469 153.183 169.968C153.655 165.543 155.389 161.355 158.935 158.037C158.777 160.565 159.329 162.777 159.644 164.042C160.353 166.728 160.353 167.913 160.196 170.521Z" fill="#1D1D1D"/>
<path d="M172.961 161.118C172.015 160.644 171.7 161.592 171.858 161.908C175.325 170.757 173.749 183.952 169.336 188.061C166.578 191.853 166.578 197.937 169.966 202.362C172.961 206.155 178.634 208.762 184.386 206.708C190.848 204.416 192.975 200.071 193.369 193.592C193.448 181.029 187.617 168.308 172.961 161.118ZM186.278 195.567C185.332 198.332 182.338 200.703 178.319 199.518C175.325 198.648 172.094 194.382 175.561 190.273C178.792 186.323 181.313 180.634 179.422 172.495C184.702 178.263 187.932 188.298 186.278 195.567Z" fill="#1D1D1D"/>
<path d="M209.523 158.352C210.39 152.821 203.849 146.579 197.309 149.108C193.921 150.451 185.962 152.347 177.452 149.266C176.979 149.108 174.931 149.503 175.876 151.32C180.131 159.617 188.405 166.017 200.303 166.412C204.165 166.412 208.656 163.804 209.523 158.352ZM198.964 160.644C193.212 161.118 188.878 159.301 185.332 155.745C189.666 156.93 193.133 156.772 196.994 154.718C199.122 153.612 201.249 155.034 201.722 156.772C202.116 158.431 201.013 160.486 198.964 160.644Z" fill="#1D1D1D"/>
<path d="M178.004 141.523C179.265 138.521 180.841 136.941 183.362 135.518C191.163 132.042 194.315 127.933 196.6 123.113C198.097 119.873 198.806 116.081 198.491 112.367C198.018 106.52 192.581 104.308 189.981 104.15C185.726 103.913 180.131 106.283 179.422 112.604C178.004 124.693 185.174 125.879 179.737 132.437C178.634 133.78 176.113 136.387 176.349 141.365C176.428 142.155 177.767 142.313 178.004 141.523ZM185.411 114.026C185.568 111.735 188.011 109.839 190.375 111.024C192.03 111.893 192.581 113.078 192.424 114.58C191.951 119.004 190.217 123.192 186.672 126.511C186.829 123.982 186.278 121.77 185.962 120.506C185.332 117.819 185.253 116.713 185.411 114.026Z" fill="#1D1D1D"/>
<path d="M175.719 82.2634C172.724 78.4708 167.051 75.8634 161.299 77.9177C154.837 80.209 152.71 84.5547 152.316 91.0337C152.158 103.518 158.068 116.318 172.646 123.508C173.591 123.982 173.906 123.034 173.749 122.718C170.282 113.868 171.858 100.673 176.27 96.5646C179.107 92.851 179.107 86.6881 175.719 82.2634ZM170.045 94.3523C166.814 98.3029 164.293 103.992 166.184 112.13C160.905 106.283 157.674 96.2485 159.329 88.9794C160.274 86.214 163.269 83.8436 167.287 85.0288C170.282 85.9769 173.512 90.1646 170.045 94.3523Z" fill="#1D1D1D"/>
<path d="M428.344 65.1967C428.265 64.3275 427.004 64.1695 426.689 65.0387C425.428 68.0412 423.852 69.6215 421.331 71.0437C413.53 74.5204 410.378 78.6291 408.093 83.449C406.596 86.6885 405.886 90.4812 406.202 94.1949C406.674 100.042 412.111 102.254 414.712 102.412C418.967 102.649 424.561 100.279 425.271 93.9578C426.689 81.8687 419.518 80.6835 424.955 74.1253C426.137 72.703 428.659 70.0956 428.344 65.1967ZM419.282 92.4566C419.124 94.748 416.682 96.6443 414.318 95.4591C412.663 94.59 412.111 93.4047 412.269 91.9035C412.742 87.4787 414.475 83.2909 418.021 79.9723C417.864 82.5008 418.415 84.7132 418.73 85.9774C419.44 88.6639 419.44 89.7701 419.282 92.4566Z" fill="#1D1D1D"/>
<path d="M428.423 109.918C425.665 113.71 425.665 119.794 429.053 124.219C432.047 128.011 437.721 130.619 443.394 128.565C449.856 126.273 451.983 121.928 452.377 115.449C452.535 102.965 446.625 90.1646 432.047 82.9745C431.102 82.5004 430.787 83.4485 430.944 83.7646C434.411 92.614 432.835 105.809 428.423 109.918ZM434.648 112.13C437.878 108.179 440.4 102.491 438.509 94.3522C443.788 100.199 447.019 110.234 445.364 117.503C444.419 120.268 441.424 122.639 437.406 121.453C434.411 120.505 431.181 116.318 434.648 112.13Z" fill="#1D1D1D"/>
<path d="M459.39 88.1896C463.251 88.3477 467.743 85.6612 468.609 80.2092C469.476 74.6782 462.936 68.4361 456.396 70.9646C453.007 72.3078 445.049 74.2041 436.539 71.1226C436.066 70.9646 434.017 71.3596 434.963 73.1769C439.218 81.3944 447.492 87.7946 459.39 88.1896ZM456.159 76.6536C458.287 75.5474 460.414 76.9696 460.887 78.7079C461.281 80.3672 460.099 82.4216 458.129 82.5796C452.377 83.0537 448.043 81.2364 444.497 77.6808C448.752 78.787 452.219 78.6289 456.159 76.6536Z" fill="#1D1D1D"/>
<path d="M437.169 63.4598C438.43 60.4573 440.006 58.877 442.527 57.4547C450.328 53.9781 453.48 49.8694 455.765 45.0495C457.263 41.8099 457.972 38.0172 457.657 34.3036C457.184 28.4565 451.747 26.2441 449.146 26.0861C444.891 25.8491 439.297 28.2195 438.588 34.5406C437.169 46.6298 444.34 47.815 438.903 54.3732C437.8 55.7164 435.278 58.3239 435.514 63.3018C435.514 64.0919 436.854 64.2499 437.169 63.4598ZM444.576 35.9629C444.734 33.6715 447.177 31.7751 449.54 32.9603C451.195 33.8295 451.747 35.0147 451.589 36.516C451.116 40.9408 449.383 45.1285 445.837 48.4471C445.995 45.9187 445.443 43.7063 445.128 42.442C444.419 39.7556 444.34 38.6494 444.576 35.9629Z" fill="#1D1D1D"/>
<path d="M411.402 12.9694C411.245 25.4534 417.155 38.2534 431.732 45.4435C432.678 45.9176 432.993 44.9694 432.835 44.6534C429.368 35.804 430.944 22.6089 435.357 18.5003C438.115 14.7077 438.115 8.62372 434.726 4.19903C433.623 2.77681 432.126 1.59162 430.471 0.722487H418.415C413.53 3.17187 411.796 7.2015 411.402 12.9694ZM418.415 10.9151C419.361 8.14965 422.355 5.77928 426.374 6.96446C429.368 7.8336 432.599 12.1003 429.132 16.2089C425.901 20.1595 423.38 25.8484 425.271 33.9867C419.991 28.2188 416.761 18.1842 418.415 10.9151Z" fill="#1D1D1D"/>
<path d="M407.462 57.4537C410.851 56.1105 418.809 54.2141 427.319 57.2957C427.792 57.4537 429.841 57.0586 428.895 55.2413C424.64 46.9448 416.367 40.5447 404.468 40.1496C400.607 39.9916 396.116 42.678 395.249 48.13C394.382 53.661 400.922 59.9822 407.462 57.4537ZM405.808 45.8386C411.56 45.3645 415.894 47.1819 419.44 50.7375C415.106 49.5523 411.639 49.7103 407.778 51.7647C405.65 52.8709 403.523 51.4486 403.05 49.7103C402.577 48.13 403.759 45.9966 405.808 45.8386Z" fill="#1D1D1D"/>
<path d="M378.701 50.5004C385.163 48.209 387.29 43.8633 387.684 37.3843C387.842 24.9004 381.932 12.1004 367.354 4.91026C366.409 4.43618 366.094 5.38433 366.251 5.70038C369.718 14.5498 368.142 27.7448 363.73 31.8535C360.972 35.6461 360.972 41.73 364.36 46.1547C367.354 49.8683 373.028 52.4757 378.701 50.5004ZM369.876 34.0658C373.107 30.1152 375.628 24.4263 373.737 16.288C379.016 22.135 382.247 32.1695 380.592 39.4387C379.647 42.2041 376.653 44.5745 372.634 43.3893C369.64 42.4411 366.409 38.2535 369.876 34.0658Z" fill="#1D1D1D"/>
<path d="M298.801 39.1233C298.722 38.2542 297.461 38.0962 297.146 38.9653C295.885 41.9678 294.309 43.5481 291.788 44.9704C283.987 48.447 280.835 52.5557 278.55 57.3756C277.052 60.6152 276.343 64.4079 276.658 68.1215C277.131 73.9686 282.568 76.181 285.169 76.339C289.424 76.5761 295.018 74.2056 295.727 67.8845C297.146 55.7953 289.975 54.6101 295.412 48.0519C296.594 46.7087 299.116 44.1012 298.801 39.1233ZM289.739 66.4622C289.581 68.7537 287.138 70.65 284.775 69.4648C283.12 68.5956 282.568 67.4104 282.726 65.9091C283.199 61.4843 284.932 57.2966 288.478 53.978C288.32 56.5065 288.872 58.7189 289.187 59.9831C289.896 62.5906 289.896 63.7758 289.739 66.4622Z" fill="#1D1D1D"/>
<path d="M298.879 83.9226C296.121 87.7152 296.121 93.7991 299.51 98.2238C302.504 102.016 308.177 104.624 313.93 102.57C320.391 100.278 322.519 95.9325 322.913 89.4535C323.07 76.9695 317.16 64.1695 302.583 56.9794C301.637 56.5053 301.322 57.4534 301.48 57.7695C304.868 66.6189 303.292 79.8139 298.879 83.9226ZM305.104 86.1349C308.335 82.1843 310.857 76.4954 308.965 68.3572C314.245 74.2041 317.476 84.2386 315.821 91.5078C314.875 94.2732 311.881 96.6436 307.862 95.4584C304.868 94.5102 301.637 90.3226 305.104 86.1349Z" fill="#1D1D1D"/>
<path d="M329.847 62.1946C333.708 62.3526 338.199 59.6661 339.066 54.2141C339.933 48.6831 333.393 42.441 326.852 44.9695C323.464 46.3127 315.506 48.209 306.995 45.1275C306.523 44.9695 304.474 45.3645 305.42 47.1819C309.675 55.3993 317.948 61.7995 329.847 62.1946ZM326.616 50.5795C328.744 49.4733 330.871 50.8955 331.344 52.6338C331.738 54.2931 330.556 56.3475 328.586 56.5055C322.834 56.9796 318.5 55.1623 314.954 51.6067C319.209 52.7919 322.676 52.5548 326.616 50.5795Z" fill="#1D1D1D"/>
<path d="M234.029 91.1918C233.95 90.3226 232.689 90.1646 232.374 91.0338C231.113 94.0363 229.537 95.6166 227.016 97.0388C219.215 100.515 216.063 104.624 213.778 109.444C212.281 112.684 211.572 116.476 211.887 120.19C212.36 126.037 217.797 128.249 220.397 128.407C224.652 128.645 230.247 126.274 230.956 119.953C232.374 107.864 225.204 106.679 230.641 100.12C231.823 98.6981 234.344 96.0907 234.029 91.1918ZM224.967 118.531C224.81 120.822 222.367 122.718 220.003 121.533C218.348 120.664 217.797 119.479 217.954 117.978C218.427 113.553 220.161 109.365 223.706 106.046C223.549 108.575 224.1 110.787 224.416 112.052C225.125 114.659 225.125 115.844 224.967 118.531Z" fill="#1D1D1D"/>
<path d="M249.158 154.639C255.619 152.347 257.747 148.002 258.141 141.523C258.299 129.039 252.389 116.239 237.811 109.048C236.866 108.574 236.55 109.523 236.708 109.839C240.175 118.688 238.599 131.883 234.186 135.992C231.429 139.784 231.429 145.868 234.817 150.293C237.811 154.007 243.485 156.614 249.158 154.639ZM240.333 138.204C243.563 134.253 246.085 128.565 244.194 120.426C249.473 126.273 252.704 136.308 251.049 143.577C250.104 146.342 247.109 148.713 243.091 147.528C240.096 146.579 236.866 142.392 240.333 138.204Z" fill="#1D1D1D"/>
<path d="M242.224 97.1176C241.751 96.9596 239.702 97.3546 240.648 99.172C244.903 107.468 253.177 113.869 265.075 114.264C268.936 114.422 273.428 111.735 274.295 106.283C275.161 100.752 268.621 94.5101 262.081 97.0386C258.693 98.3028 250.734 100.199 242.224 97.1176ZM266.494 104.703C266.888 106.362 265.706 108.417 263.736 108.575C257.983 109.049 253.649 107.231 250.104 103.676C254.437 104.861 257.905 104.703 261.766 102.649C263.893 101.621 266.1 102.965 266.494 104.703Z" fill="#1D1D1D"/>
<path d="M244.509 80.3676C243.406 81.7108 240.884 84.3183 241.121 89.2962C241.199 90.1653 242.46 90.3234 242.775 89.4542C244.036 86.4517 245.612 84.8714 248.134 83.4491C255.935 79.9725 259.087 75.8638 261.372 71.0439C262.869 67.8043 263.578 64.0117 263.263 60.298C262.79 54.4509 257.353 52.2386 254.753 52.0805C250.498 51.8435 244.903 54.2139 244.194 60.535C242.775 72.6242 250.025 73.8094 244.509 80.3676ZM250.182 61.9573C250.34 59.6659 252.783 57.7695 255.147 58.9548C256.801 59.8239 257.353 61.0091 257.195 62.5104C256.723 66.9352 254.989 71.1229 251.443 74.4415C251.601 71.9131 251.049 69.7007 250.734 68.4365C250.104 65.829 250.025 64.6438 250.182 61.9573Z" fill="#1D1D1D"/>
<path d="M237.417 71.4391C238.363 71.9132 238.678 70.9651 238.52 70.649C235.053 61.7996 236.629 48.6046 241.042 44.4959C243.8 40.7033 243.8 34.6194 240.412 30.1947C237.417 26.4021 231.744 23.7947 226.07 25.849C219.609 28.1404 217.481 32.4861 217.087 38.9651C216.93 51.528 222.84 64.249 237.417 71.4391ZM224.1 36.9898C225.046 34.2243 228.04 31.854 232.059 33.0391C235.053 33.9083 238.284 38.1749 234.817 42.2836C231.586 46.2342 229.065 51.9231 230.956 60.0614C225.676 54.2935 222.446 44.1799 224.1 36.9898Z" fill="#1D1D1D"/>
<path d="M200.934 74.2041C200.067 79.7351 206.607 85.9772 213.148 83.4488C216.536 82.1055 224.494 80.2092 233.005 83.2908C233.477 83.4488 235.526 83.0537 234.58 81.2364C230.325 72.9399 222.052 66.5398 210.153 66.1447C206.213 66.0657 201.801 68.7522 200.934 74.2041ZM211.493 71.9127C217.245 71.4386 221.579 73.256 225.125 76.8116C220.791 75.6264 217.324 75.7844 213.463 77.8388C211.335 78.945 209.208 77.5227 208.735 75.7844C208.262 74.1251 209.444 72.0708 211.493 71.9127Z" fill="#1D1D1D"/>
<path d="M155.625 50.3435C159.88 50.5805 165.475 48.2101 166.184 41.889C167.603 29.7998 160.432 28.6146 165.869 22.0564C166.972 20.7132 169.494 18.1057 169.257 13.1278C169.179 12.2586 167.918 12.1006 167.603 12.9698C166.342 15.9723 164.766 17.5526 162.244 18.9748C154.443 22.4515 151.291 26.5602 149.006 31.3801C147.509 34.6197 146.8 38.4123 147.115 42.126C147.588 47.973 153.104 50.1854 155.625 50.3435ZM153.183 39.8346C153.655 35.4098 155.389 31.222 158.935 27.9034C158.777 30.4319 159.329 32.6443 159.644 33.9085C160.353 36.595 160.353 37.7802 160.196 40.4667C160.038 42.7581 157.595 44.6544 155.231 43.4692C153.577 42.6001 153.025 41.3359 153.183 39.8346Z" fill="#1D1D1D"/>
<path d="M169.966 72.1505C172.961 75.9431 178.634 78.5505 184.386 76.4962C190.848 74.2048 192.975 69.8591 193.369 63.3801C193.527 50.8961 187.617 38.0961 173.04 30.906C172.094 30.4319 171.779 31.3801 171.936 31.6961C175.403 40.5455 173.828 53.7406 169.415 57.8492C166.578 61.6418 166.578 67.7258 169.966 72.1505ZM175.561 60.0616C178.792 56.111 181.313 50.4221 179.422 42.2838C184.702 48.1307 187.932 58.1653 186.278 65.4344C185.332 68.1999 182.338 70.5702 178.319 69.385C175.325 68.5159 172.094 64.2492 175.561 60.0616Z" fill="#1D1D1D"/>
<path d="M148.376 5.3844C151.764 4.04116 159.723 2.14482 168.233 5.22638C168.706 5.3844 170.754 4.98933 169.809 3.17201C169.336 2.30285 168.863 1.4337 168.312 0.643555H137.029C138.92 4.43623 143.648 7.20173 148.376 5.3844Z" fill="#1D1D1D"/>
<path d="M17.5719 16.1302C18.0446 21.9773 23.4817 24.1897 26.082 24.3477C30.3371 24.5848 35.9317 22.2143 36.6409 15.8932C37.6652 7.28066 34.2769 4.19911 34.2769 0.722487H22.2997C21.1965 2.22376 20.3298 3.80404 19.5418 5.38432C18.0446 8.6239 17.2567 12.4166 17.5719 16.1302ZM23.6393 13.8388C24.1121 9.41404 25.8456 5.22629 29.3915 1.9077C29.2339 4.43615 29.7855 6.64855 30.1007 7.91278C30.8099 10.5993 30.8099 11.7845 30.6523 14.471C30.4947 16.7624 28.0519 18.6587 25.688 17.4735C24.0333 16.5253 23.4817 15.3401 23.6393 13.8388Z" fill="#1D1D1D"/>
<path d="M70.7603 10.1253C74.6213 10.2833 79.1128 7.5968 79.9796 2.14482C80.0584 1.67074 80.0584 1.19665 80.0584 0.643555H72.2574C72.5726 2.22384 71.4694 4.27821 69.4995 4.43623C64.2989 4.91032 60.2802 3.48806 57.0495 0.722569H50.1153C54.8431 6.09553 61.7773 9.8092 70.7603 10.1253Z" fill="#1D1D1D"/>
<path d="M4.17627 8.22891C3.93988 4.91031 2.04874 2.77693 0.078795 1.5127V22.7675C0.945569 21.5033 1.65475 20.2391 2.28513 18.8958C3.78228 15.7353 4.49146 11.8636 4.17627 8.22891Z" fill="#1D1D1D"/>
<path d="M145.382 248.426C141.52 248.268 137.029 250.955 136.162 256.407C135.295 261.938 141.836 268.18 148.376 265.651C151.764 264.308 159.723 262.412 168.233 265.493C168.706 265.651 170.754 265.256 169.809 263.439C165.554 255.221 157.201 248.821 145.382 248.426ZM148.612 260.041C146.485 261.148 144.357 259.725 143.884 257.987C143.49 256.328 144.672 254.273 146.642 254.115C152.395 253.641 156.728 255.459 160.274 259.014C156.019 257.829 152.552 257.987 148.612 260.041Z" fill="#1D1D1D"/>
<path d="M96.5271 260.12C92.5084 261.542 90.1445 263.834 88.8049 266.915H112.365C111.971 266.046 111.499 265.256 110.868 264.466C107.874 260.673 102.201 258.066 96.5271 260.12Z" fill="#1D1D1D"/>
<path d="M36.3257 256.249C37.4289 254.906 39.9504 252.298 39.714 247.32C39.6352 246.451 38.3744 246.293 38.0593 247.162C36.7985 250.165 35.2225 251.745 32.701 253.167C24.9001 256.644 21.7482 260.753 19.463 265.573C19.3054 265.968 19.069 266.442 18.9114 266.837H25.688C26.5548 265.098 27.7368 263.518 29.3127 262.017C29.1551 263.913 29.4703 265.572 29.7067 266.837H35.8529C34.671 262.57 32.701 260.595 36.3257 256.249Z" fill="#1D1D1D"/>
<path d="M42.3143 265.967C42.4719 266.283 42.5507 266.599 42.6295 266.915H46.5694C45.545 266.283 44.5206 265.73 43.4175 265.177C42.4719 264.703 42.1567 265.73 42.3143 265.967Z" fill="#1D1D1D"/>
<path d="M67.766 253.167C64.3777 254.51 56.4191 256.407 47.909 253.325C47.4362 253.167 45.3875 253.562 46.333 255.379C48.7757 260.12 52.558 264.229 57.5223 266.994H78.0097C78.9552 265.809 79.5856 264.308 79.9008 262.491C80.8464 256.881 74.3062 250.638 67.766 253.167ZM69.4207 264.782C63.6685 265.256 59.3346 263.439 55.7887 259.883C60.1226 261.068 63.5897 260.91 67.4508 258.856C69.5783 257.75 71.7058 259.172 72.1786 260.91C72.5726 262.491 71.3907 264.624 69.4207 264.782Z" fill="#1D1D1D"/>
<path d="M60.4378 208.209C56.1827 207.972 50.5881 210.342 49.8789 216.663C48.4605 228.753 55.6311 229.938 50.1941 236.496C49.0909 237.839 46.5694 240.447 46.8058 245.425C46.8846 246.294 48.1453 246.452 48.4605 245.583C49.7213 242.58 51.2972 241 53.8188 239.578C61.6197 236.101 64.7716 231.992 67.0568 227.172C68.5539 223.933 69.2631 220.14 68.9479 216.426C68.4751 210.579 63.0381 208.367 60.4378 208.209ZM62.8805 218.718C62.4077 223.143 60.6741 227.33 57.1283 230.649C57.2859 228.12 56.7343 225.908 56.4191 224.644C55.7099 221.957 55.7099 220.772 55.8675 218.086C56.0251 215.794 58.4678 213.898 60.8317 215.083C62.5653 215.952 63.0381 217.217 62.8805 218.718Z" fill="#1D1D1D"/>
<path d="M46.0966 186.402C43.1023 182.609 37.4288 180.002 31.6766 182.056C25.2152 184.347 23.0877 188.693 22.6937 195.172C22.5361 207.656 28.4459 220.456 43.0235 227.646C43.969 228.12 44.2842 227.172 44.1266 226.856C40.6595 218.007 42.2355 204.811 46.6482 200.703C49.5637 196.91 49.5637 190.826 46.0966 186.402ZM40.5019 198.49C37.2712 202.441 34.7497 208.13 36.6409 216.268C31.3614 210.421 28.1307 200.387 29.7855 193.118C30.731 190.352 33.7254 187.982 37.744 189.167C40.7383 190.036 43.969 194.303 40.5019 198.49Z" fill="#1D1D1D"/>
<path d="M15.7595 222.431C11.8984 222.273 7.40695 224.96 6.54018 230.412C5.67341 235.943 12.2136 242.185 18.7538 239.656C22.1421 238.313 30.1007 236.417 38.6108 239.498C39.0836 239.656 41.1323 239.261 40.1868 237.444C36.0105 229.226 27.6579 222.826 15.7595 222.431ZM19.069 233.967C16.9415 235.073 14.8139 233.651 14.3411 231.913C13.9472 230.254 15.1291 228.199 17.0991 228.041C22.8513 227.567 27.1852 229.384 30.731 232.94C26.476 231.755 23.0089 231.992 19.069 233.967Z" fill="#1D1D1D"/>
<path d="M0.078795 261.779V266.915H3.93988C3.3095 264.545 1.73354 262.886 0.078795 261.779Z" fill="#1D1D1D"/>
<path d="M136.162 126.273C135.295 131.804 141.836 138.046 148.376 135.518C151.764 134.175 159.723 132.278 168.233 135.36C168.706 135.518 170.754 135.123 169.809 133.306C165.554 125.009 157.28 118.609 145.382 118.214C141.442 118.135 137.029 120.821 136.162 126.273ZM146.721 123.982C152.473 123.508 156.807 125.325 160.353 128.881C156.019 127.696 152.552 127.854 148.691 129.908C146.564 131.014 144.436 129.592 143.963 127.854C143.49 126.194 144.672 124.14 146.721 123.982Z" fill="#1D1D1D"/>
<path d="M101.097 204.18C102.2 202.836 104.722 200.229 104.486 195.251C104.407 194.382 103.146 194.224 102.831 195.093C101.57 198.096 99.9941 199.676 97.4726 201.098C89.6716 204.575 86.5197 208.683 84.2346 213.503C82.7375 216.743 82.0283 220.536 82.3435 224.249C82.8163 230.096 88.2533 232.309 90.8536 232.467C95.1087 232.704 100.703 230.333 101.412 224.012C102.831 211.923 95.6603 210.817 101.097 204.18ZM95.4239 222.59C95.2663 224.881 92.8236 226.778 90.4596 225.593C88.8049 224.723 88.2533 223.538 88.4109 222.037C88.8837 217.612 90.6172 213.424 94.1631 210.106C94.0055 212.634 94.5571 214.847 94.8723 216.111C95.5815 218.797 95.5815 219.903 95.4239 222.59Z" fill="#1D1D1D"/>
<path d="M108.189 213.187C107.244 212.713 106.928 213.661 107.086 213.977C110.553 222.826 108.977 236.021 104.564 240.13C101.807 243.923 101.807 250.006 105.195 254.431C108.189 258.224 113.863 260.831 119.536 258.777C125.997 256.486 128.125 252.14 128.519 245.661C128.677 233.098 122.767 220.298 108.189 213.187ZM121.506 247.636C120.56 250.402 117.566 252.772 113.547 251.587C110.553 250.718 107.322 246.451 110.789 242.342C114.02 238.392 116.542 232.703 114.651 224.565C119.93 230.332 123.161 240.367 121.506 247.636Z" fill="#1D1D1D"/>
<path d="M144.751 210.343C145.618 204.812 139.078 198.569 132.538 201.098C129.149 202.441 121.191 204.337 112.681 201.256C112.208 201.098 110.159 201.493 111.105 203.31C115.36 211.607 123.633 218.007 135.532 218.402C139.393 218.481 143.884 215.874 144.751 210.343ZM134.192 212.713C128.44 213.187 124.106 211.37 120.56 207.814C124.894 208.999 128.361 208.841 132.222 206.787C134.35 205.681 136.477 207.103 136.95 208.841C137.344 210.501 136.162 212.555 134.192 212.713Z" fill="#1D1D1D"/>
<path d="M113.232 193.592C114.493 190.59 116.069 189.01 118.59 187.587C126.391 184.111 129.543 180.002 131.828 175.182C133.326 171.943 134.035 168.15 133.72 164.436C133.247 158.589 127.81 156.377 125.209 156.219C120.954 155.982 115.36 158.352 114.65 164.673C113.232 176.762 120.403 177.948 114.966 184.506C113.863 185.849 111.341 188.457 111.577 193.434C111.656 194.225 112.996 194.383 113.232 193.592ZM120.639 166.096C120.797 163.804 123.239 161.908 125.603 163.093C127.258 163.962 127.81 165.147 127.652 166.649C127.179 171.073 125.446 175.261 121.9 178.58C122.057 176.051 121.506 173.839 121.191 172.575C120.56 169.888 120.482 168.782 120.639 166.096Z" fill="#1D1D1D"/>
<path d="M110.868 134.332C107.874 130.54 102.201 127.932 96.4483 129.987C89.9869 132.278 87.8594 136.624 87.4654 143.103C87.3078 155.587 93.2176 168.387 107.795 175.577C108.741 176.051 109.056 175.103 108.898 174.787C105.431 165.937 107.007 152.742 111.42 148.634C114.335 144.841 114.335 138.757 110.868 134.332ZM105.274 146.421C102.043 150.372 99.5214 156.061 101.413 164.199C96.1331 158.352 92.9024 148.318 94.5572 141.049C95.5027 138.283 98.497 135.913 102.516 137.098C105.51 138.046 108.741 142.234 105.274 146.421Z" fill="#1D1D1D"/>
<path d="M103.461 187.508C103.934 187.666 105.983 187.271 105.037 185.454C100.782 177.157 92.5084 170.757 80.61 170.362C76.7489 170.204 72.2574 172.891 71.3907 178.343C70.5239 183.873 77.0641 190.116 83.6043 187.587C86.9926 186.244 94.9511 184.348 103.461 187.508ZM79.1128 179.844C78.7188 178.184 79.9008 176.13 81.8707 175.972C87.623 175.498 91.9568 177.315 95.5027 180.871C91.1689 179.686 87.7018 179.844 83.8407 181.898C81.7131 183.004 79.5856 181.582 79.1128 179.844Z" fill="#1D1D1D"/>
<path d="M39.714 117.266C39.6352 116.397 38.3744 116.239 38.0593 117.108C36.7985 120.11 35.2225 121.691 32.701 123.113C24.9 126.589 21.7481 130.698 19.463 135.518C17.9659 138.758 17.2567 142.55 17.5719 146.264C18.0447 152.111 23.4817 154.323 26.082 154.481C30.3371 154.719 35.9317 152.348 36.6409 146.027C38.0593 133.938 30.8887 132.753 36.3257 126.194C37.5077 124.772 39.9504 122.165 39.714 117.266ZM30.6523 144.526C30.4947 146.817 28.052 148.713 25.688 147.528C24.0333 146.659 23.4817 145.474 23.6393 143.973C24.1121 139.548 25.8456 135.36 29.3915 132.041C29.2339 134.57 29.7855 136.782 30.1007 138.047C30.8099 140.733 30.8099 141.839 30.6523 144.526Z" fill="#1D1D1D"/>
<path d="M54.7643 180.634C61.2257 178.342 63.3533 173.997 63.7473 167.518C63.9049 155.034 57.995 142.234 43.4175 135.044C42.4719 134.57 42.1567 135.518 42.3143 135.834C45.7814 144.683 44.2055 157.878 39.7928 161.987C37.0349 165.779 37.0349 171.863 40.4232 176.288C43.4175 180.081 49.0909 182.688 54.7643 180.634ZM46.0178 164.199C49.2485 160.249 51.77 154.56 49.8789 146.421C55.1583 152.268 58.389 162.303 56.7343 169.572C55.7887 172.337 52.7944 174.708 48.7757 173.523C45.7814 172.574 42.5507 168.387 46.0178 164.199Z" fill="#1D1D1D"/>
<path d="M79.9007 132.278C80.7675 126.747 74.2273 120.505 67.6871 123.034C64.2988 124.377 56.3403 126.273 47.8301 123.192C47.3573 123.034 45.3086 123.429 46.2542 125.246C50.5092 133.543 58.783 139.943 70.6814 140.338C74.6213 140.417 79.034 137.809 79.9007 132.278ZM69.4207 134.649C63.6684 135.123 59.3346 133.306 55.7887 129.75C60.1225 130.935 63.5896 130.777 67.4507 128.723C69.5783 127.616 71.7058 129.039 72.1786 130.777C72.5726 132.357 71.3906 134.412 69.4207 134.649Z" fill="#1D1D1D"/>
<path d="M49.8789 86.5302C48.4605 98.6193 55.6311 99.8045 50.1941 106.363C49.0909 107.706 46.5694 110.313 46.8058 115.291C46.8846 116.16 48.1453 116.318 48.4605 115.449C49.7213 112.447 51.2972 110.867 53.8188 109.444C61.6197 105.968 64.7716 101.859 67.0568 97.039C68.5539 93.7995 69.2631 90.0068 68.9479 86.2931C68.4751 80.4461 63.0381 78.2337 60.4378 78.0756C56.2615 77.8386 50.6669 80.13 49.8789 86.5302ZM62.8805 88.5845C62.4077 93.0093 60.6741 97.1971 57.1283 100.516C57.2859 97.9872 56.7343 95.7748 56.4191 94.5106C55.7099 91.8241 55.7099 90.6389 55.8675 87.9524C56.0251 85.661 58.4678 83.7647 60.8317 84.9499C62.5653 85.819 63.0381 87.0833 62.8805 88.5845Z" fill="#1D1D1D"/>
<path d="M43.1023 97.4336C44.0478 97.9076 44.363 96.9595 44.2054 96.6434C40.7383 87.7941 42.3143 74.599 46.7269 70.4904C49.4849 66.6978 49.4849 60.6138 46.0966 56.1891C43.1023 52.3965 37.4288 49.7891 31.6766 51.8434C25.2152 54.1348 23.0877 58.4805 22.6937 64.9595C22.6149 77.5225 28.5247 90.2434 43.1023 97.4336ZM29.7855 62.9842C30.731 60.2187 33.7253 57.8484 37.744 59.0336C40.7383 59.9027 43.969 64.1694 40.5019 68.278C37.2712 72.2286 34.7497 77.9175 36.6409 86.0558C31.3614 80.2879 28.1307 70.2533 29.7855 62.9842Z" fill="#1D1D1D"/>
<path d="M18.8326 109.523C22.2209 108.18 30.1795 106.283 38.6896 109.365C39.1624 109.523 41.2111 109.128 40.2655 107.31C36.0105 99.014 27.7367 92.6138 15.8383 92.2188C11.8984 92.1398 7.48575 94.7472 6.61897 100.199C5.7522 105.73 12.2924 112.051 18.8326 109.523ZM14.3411 101.779C13.9472 100.12 15.1291 98.0658 17.0991 97.9078C22.8513 97.4337 27.1851 99.251 30.731 102.807C26.3972 101.621 22.9301 101.779 19.069 103.834C16.9415 104.94 14.8139 103.518 14.3411 101.779Z" fill="#1D1D1D"/>
<path d="M15.1291 184.347C15.9959 178.816 9.45571 172.574 2.91551 175.103C2.12754 175.419 1.18196 175.735 0 175.972V181.819C0.866774 181.582 1.73355 181.187 2.60032 180.713C4.72786 179.607 6.85539 181.029 7.32818 182.767C7.72217 184.426 6.5402 186.481 4.57026 186.639C2.91551 186.797 1.41836 186.718 0 186.481V191.538C1.89114 191.933 3.78229 192.249 5.90982 192.328C9.8497 192.486 14.2624 189.799 15.1291 184.347Z" fill="#1D1D1D"/>
<path d="M4.17627 138.362C3.93988 135.123 2.04874 132.91 0.078795 131.646V152.901C0.945569 151.637 1.65475 150.372 2.28513 149.029C3.78228 145.869 4.49146 142.076 4.17627 138.362Z" fill="#1D1D1D"/>
<path d="M104.486 65.1967C104.407 64.3275 103.146 64.1695 102.831 65.0387C101.57 68.0412 99.9941 69.6215 97.4726 71.0437C89.6716 74.5204 86.5197 78.6291 84.2346 83.449C82.7375 86.6885 82.0283 90.4812 82.3435 94.1949C82.8163 100.042 88.2533 102.254 90.8536 102.412C95.1087 102.649 100.703 100.279 101.413 93.9578C102.831 81.8687 95.6603 80.6835 101.097 74.1253C102.279 72.703 104.722 70.0956 104.486 65.1967ZM95.4239 92.4566C95.2663 94.748 92.8236 96.6443 90.4596 95.4591C88.8049 94.59 88.2533 93.4047 88.4109 91.9035C88.8837 87.4787 90.6172 83.2909 94.1631 79.9723C94.0055 82.5008 94.5571 84.7132 94.8723 85.9774C95.5815 88.6639 95.5815 89.7701 95.4239 92.4566Z" fill="#1D1D1D"/>
<path d="M104.564 109.918C101.807 113.71 101.807 119.794 105.195 124.219C108.189 128.011 113.863 130.619 119.536 128.565C125.997 126.273 128.125 121.928 128.519 115.449C128.677 102.965 122.767 90.1646 108.189 82.9745C107.244 82.5004 106.928 83.4485 107.086 83.7646C110.553 92.614 108.977 105.809 104.564 109.918ZM110.789 112.13C114.02 108.179 116.542 102.491 114.651 94.3522C119.93 100.199 123.161 110.234 121.506 117.503C120.56 120.268 117.566 122.639 113.547 121.453C110.553 120.505 107.322 116.318 110.789 112.13Z" fill="#1D1D1D"/>
<path d="M135.532 88.1896C139.393 88.3477 143.884 85.6612 144.751 80.2092C145.618 74.6782 139.078 68.4361 132.538 70.9646C129.149 72.3078 121.191 74.2041 112.681 71.1226C112.208 70.9646 110.159 71.3596 111.105 73.1769C115.281 81.3944 123.633 87.7946 135.532 88.1896ZM132.222 76.6536C134.35 75.5474 136.477 76.9696 136.95 78.7079C137.344 80.3672 136.162 82.4216 134.192 82.5796C128.44 83.0537 124.106 81.2364 120.56 77.6808C124.894 78.787 128.361 78.6289 132.222 76.6536Z" fill="#1D1D1D"/>
<path d="M113.232 63.4599C114.493 60.4574 116.069 58.8771 118.59 57.4548C126.391 53.9782 129.543 49.8695 131.828 45.0496C133.326 41.81 134.035 38.0173 133.72 34.3037C133.247 28.3776 127.81 26.1652 125.209 26.0072C120.954 25.7701 115.36 28.1406 114.65 34.4617C113.232 46.5509 120.403 47.7361 114.966 54.2942C113.863 55.6375 111.341 58.245 111.577 63.2228C111.656 64.092 112.996 64.25 113.232 63.4599ZM120.639 35.963C120.797 33.6715 123.239 31.7752 125.603 32.9604C127.258 33.8296 127.81 35.0148 127.652 36.5161C127.179 40.9409 125.446 45.1286 121.9 48.4472C122.057 45.9187 121.506 43.7063 121.191 42.4421C120.56 39.7556 120.482 38.6494 120.639 35.963Z" fill="#1D1D1D"/>
<path d="M87.5441 12.9694C87.3865 25.4534 93.2964 38.2534 107.874 45.4435C108.819 45.9176 109.135 44.9694 108.977 44.6534C105.51 35.804 107.086 22.6089 111.499 18.5003C114.257 14.7077 114.257 8.62372 110.868 4.19903C109.765 2.77681 108.268 1.59162 106.613 0.722487H94.5571C89.6717 3.17187 87.8593 7.2015 87.5441 12.9694ZM94.5571 10.9151C95.5027 8.14965 98.497 5.77928 102.516 6.96446C105.51 7.8336 108.741 12.1003 105.274 16.2089C102.043 20.1595 99.5214 25.8484 101.413 33.9867C96.1331 28.2188 92.9024 18.1842 94.5571 10.9151Z" fill="#1D1D1D"/>
<path d="M83.6043 57.4537C86.9926 56.1105 94.9511 54.2141 103.461 57.2957C103.934 57.4537 105.983 57.0586 105.037 55.2413C100.782 46.9448 92.5084 40.5447 80.61 40.1496C76.7489 39.9916 72.2574 42.678 71.3907 48.13C70.5239 53.661 77.0641 59.9822 83.6043 57.4537ZM81.9495 45.8386C87.7018 45.3645 92.0356 47.1819 95.5815 50.7375C91.2476 49.5523 87.7806 49.7103 83.9195 51.7647C81.7919 52.8709 79.6644 51.4486 79.1916 49.7103C78.7188 48.13 79.9008 45.9966 81.9495 45.8386Z" fill="#1D1D1D"/>
<path d="M54.7643 50.5004C61.2257 48.209 63.3533 43.8633 63.7473 37.3843C63.9049 24.8214 57.995 12.1004 43.4175 4.91026C42.4719 4.43618 42.1567 5.38433 42.3143 5.70038C45.7814 14.5498 44.2055 27.7448 39.7928 31.8535C37.0349 35.6461 37.0349 41.73 40.4232 46.1547C43.4175 49.8683 49.0909 52.4757 54.7643 50.5004ZM46.0178 34.0658C49.2485 30.1152 51.77 24.4263 49.8789 16.288C55.1583 22.135 58.389 32.1695 56.7343 39.4387C55.7887 42.2041 52.7944 44.5745 48.7757 43.3893C45.7814 42.4411 42.5507 38.2535 46.0178 34.0658Z" fill="#1D1D1D"/>
<path d="M15.1291 54.2141C15.9959 48.6831 9.45571 42.441 2.91551 44.9695C2.12754 45.2855 1.18196 45.6016 0 45.8386V51.6857C0.866774 51.4486 1.73355 51.0536 2.60032 50.5795C4.72786 49.4733 6.85539 50.8955 7.32818 52.6338C7.72217 54.2931 6.5402 56.3475 4.57026 56.5055C2.91551 56.6636 1.41836 56.5845 0 56.3475V61.4044C1.89114 61.7995 3.78229 62.1155 5.90982 62.1946C9.8497 62.3526 14.2624 59.6661 15.1291 54.2141Z" fill="#1D1D1D"/>
</svg>
