<svg width="540" height="234" viewBox="0 0 540 234" fill="none" xmlns="http://www.w3.org/2000/svg">
<path d="M26.1965 0H26.0107L0 179.325V180.964L26.1965 0Z" fill="#1D1D1D"/>
<path d="M26.1965 0L0 180.964V182.603L26.4751 0H26.1965Z" fill="#1D1D1D"/>
<path d="M52.6716 0L18.8577 233.514H19.0435L52.8574 0H52.6716Z" fill="#1D1D1D"/>
<path d="M52.6716 0H52.3929L18.579 233.514H18.8577L52.6716 0Z" fill="#1D1D1D"/>
<path d="M79.0539 0L45.24 233.514H45.5187L79.3325 0H79.0539Z" fill="#1D1D1D"/>
<path d="M79.0539 0H78.8681L45.0542 233.514H45.24L79.0539 0Z" fill="#1D1D1D"/>
<path d="M105.529 0L71.7151 233.514H71.9009L105.808 0H105.529Z" fill="#1D1D1D"/>
<path d="M105.529 0H105.343L71.4364 233.514H71.7151L105.529 0Z" fill="#1D1D1D"/>
<path d="M132.004 0L98.1903 233.514H98.3761L132.19 0H132.004Z" fill="#1D1D1D"/>
<path d="M132.004 0H131.725L97.9116 233.514H98.1903L132.004 0Z" fill="#1D1D1D"/>
<path d="M158.386 0L124.573 233.514H124.851L158.665 0H158.386Z" fill="#1D1D1D"/>
<path d="M158.386 0H158.201L124.387 233.514H124.573L158.386 0Z" fill="#1D1D1D"/>
<path d="M184.862 0H184.583L150.769 233.514H151.048L184.862 0Z" fill="#1D1D1D"/>
<path d="M184.862 0L151.048 233.514H151.233L185.047 0H184.862Z" fill="#1D1D1D"/>
<path d="M211.337 0L177.523 233.514H177.709L211.522 0H211.337Z" fill="#1D1D1D"/>
<path d="M211.337 0H211.058L177.244 233.514H177.523L211.337 0Z" fill="#1D1D1D"/>
<path d="M237.719 0H237.533L203.719 233.514H203.905L237.719 0Z" fill="#1D1D1D"/>
<path d="M237.719 0L203.905 233.514H204.184L237.998 0H237.719Z" fill="#1D1D1D"/>
<path d="M264.194 0H263.915L230.102 233.514H230.38L264.194 0Z" fill="#1D1D1D"/>
<path d="M264.194 0L230.38 233.514H230.566L264.38 0H264.194Z" fill="#1D1D1D"/>
<path d="M290.669 0L256.762 233.514H257.041L290.855 0H290.669Z" fill="#1D1D1D"/>
<path d="M290.669 0H290.391L256.577 233.514H256.762L290.669 0Z" fill="#1D1D1D"/>
<path d="M317.051 0H316.866L283.052 233.514H283.238L317.051 0Z" fill="#1D1D1D"/>
<path d="M317.051 0L283.238 233.514H283.516L317.33 0H317.051Z" fill="#1D1D1D"/>
<path d="M343.527 0L309.713 233.514H309.899L343.712 0H343.527Z" fill="#1D1D1D"/>
<path d="M343.527 0H343.248L309.434 233.514H309.713L343.527 0Z" fill="#1D1D1D"/>
<path d="M369.909 0H369.723L335.909 233.514H336.095L369.909 0Z" fill="#1D1D1D"/>
<path d="M369.909 0L336.095 233.514H336.374L370.188 0H369.909Z" fill="#1D1D1D"/>
<path d="M396.384 0L362.57 233.514H362.849L396.663 0H396.384Z" fill="#1D1D1D"/>
<path d="M396.384 0H396.198L362.291 233.514H362.57L396.384 0Z" fill="#1D1D1D"/>
<path d="M422.859 0H422.58L388.767 233.514H389.045L422.859 0Z" fill="#1D1D1D"/>
<path d="M422.859 0L389.045 233.514H389.231L423.045 0H422.859Z" fill="#1D1D1D"/>
<path d="M449.241 0L415.428 233.514H415.706L449.52 0H449.241Z" fill="#1D1D1D"/>
<path d="M449.241 0H449.056L415.242 233.514H415.428L449.241 0Z" fill="#1D1D1D"/>
<path d="M475.717 0H475.438L441.624 233.514H441.903L475.717 0Z" fill="#1D1D1D"/>
<path d="M475.717 0L441.903 233.514H442.088L475.995 0H475.717Z" fill="#1D1D1D"/>
<path d="M502.192 0L468.378 233.514H468.564L502.377 0H502.192Z" fill="#1D1D1D"/>
<path d="M502.192 0H501.913L468.099 233.514H468.378L502.192 0Z" fill="#1D1D1D"/>
<path d="M528.574 0H528.388L494.574 233.514H494.76L528.574 0Z" fill="#1D1D1D"/>
<path d="M528.574 0L494.76 233.514H495.039L528.853 0H528.574Z" fill="#1D1D1D"/>
<path d="M540 103.824V102.276L520.957 233.514H521.235L540 103.824Z" fill="#1D1D1D"/>
<path d="M540 103.824L521.235 233.514L521.421 233.514L540 105.464V103.824Z" fill="#1D1D1D"/>
<path d="M12.0764 0L0 83.1505V84.7898L12.2622 0H12.0764Z" fill="#1D1D1D"/>
<path d="M12.0764 0H11.7977L0 81.5112V83.1505L12.0764 0Z" fill="#1D1D1D"/>
<path d="M38.4586 0H38.2728L4.45897 233.514H4.64476L38.4586 0Z" fill="#1D1D1D"/>
<path d="M38.4586 0L4.64476 233.514H4.92345L38.7373 0H38.4586Z" fill="#1D1D1D"/>
<path d="M64.9338 0H64.6551L30.8412 233.514H31.1199L64.9338 0Z" fill="#1D1D1D"/>
<path d="M64.9338 0L31.1199 233.514H31.3057L65.1196 0H64.9338Z" fill="#1D1D1D"/>
<path d="M91.4089 0L57.5022 233.514H57.7808L91.5947 0H91.4089Z" fill="#1D1D1D"/>
<path d="M91.4089 0H91.1302L57.3164 233.514H57.5022L91.4089 0Z" fill="#1D1D1D"/>
<path d="M117.791 0H117.605L83.7915 233.514H83.9773L117.791 0Z" fill="#1D1D1D"/>
<path d="M117.791 0L83.9773 233.514H84.256L118.07 0H117.791Z" fill="#1D1D1D"/>
<path d="M144.266 0L110.452 233.514H110.638L144.452 0H144.266Z" fill="#1D1D1D"/>
<path d="M144.266 0H143.988L110.174 233.514H110.452L144.266 0Z" fill="#1D1D1D"/>
<path d="M170.649 0H170.463L136.649 233.514H136.835L170.649 0Z" fill="#1D1D1D"/>
<path d="M170.649 0L136.835 233.514H137.113L170.927 0H170.649Z" fill="#1D1D1D"/>
<path d="M197.124 0L163.31 233.514H163.589L197.402 0H197.124Z" fill="#1D1D1D"/>
<path d="M197.124 0H196.938L163.124 233.514H163.31L197.124 0Z" fill="#1D1D1D"/>
<path d="M223.599 0L189.785 233.514H189.971L223.785 0H223.599Z" fill="#1D1D1D"/>
<path d="M223.599 0H223.32L189.506 233.514H189.785L223.599 0Z" fill="#1D1D1D"/>
<path d="M249.981 0H249.795L215.981 233.514H216.167L249.981 0Z" fill="#1D1D1D"/>
<path d="M249.981 0L216.167 233.514H216.446L250.26 0H249.981Z" fill="#1D1D1D"/>
<path d="M276.456 0L242.642 233.514H242.828L276.735 0H276.456Z" fill="#1D1D1D"/>
<path d="M276.456 0H276.27L242.364 233.514H242.642L276.456 0Z" fill="#1D1D1D"/>
<path d="M302.931 0H302.653L268.839 233.514H269.118L302.931 0Z" fill="#1D1D1D"/>
<path d="M302.931 0L269.118 233.514H269.303L303.117 0H302.931Z" fill="#1D1D1D"/>
<path d="M329.314 0L295.5 233.514H295.778L329.592 0H329.314Z" fill="#1D1D1D"/>
<path d="M329.314 0H329.128L295.314 233.514H295.5L329.314 0Z" fill="#1D1D1D"/>
<path d="M355.789 0H355.51L321.696 233.514H321.975L355.789 0Z" fill="#1D1D1D"/>
<path d="M355.789 0L321.975 233.514H322.161L355.975 0H355.789Z" fill="#1D1D1D"/>
<path d="M382.264 0L348.45 233.514H348.636L382.45 0H382.264Z" fill="#1D1D1D"/>
<path d="M382.264 0H381.985L348.171 233.514H348.45L382.264 0Z" fill="#1D1D1D"/>
<path d="M408.646 0H408.46L374.647 233.514H374.832L408.646 0Z" fill="#1D1D1D"/>
<path d="M408.646 0L374.832 233.514H375.111L408.925 0H408.646Z" fill="#1D1D1D"/>
<path d="M435.121 0L401.307 233.514H401.493L435.307 0H435.121Z" fill="#1D1D1D"/>
<path d="M435.121 0H434.843L401.029 233.514H401.307L435.121 0Z" fill="#1D1D1D"/>
<path d="M461.596 0L427.69 233.514H427.968L461.782 0H461.596Z" fill="#1D1D1D"/>
<path d="M461.596 0H461.318L427.504 233.514H427.69L461.596 0Z" fill="#1D1D1D"/>
<path d="M487.979 0L454.165 233.514H454.444L488.257 0H487.979Z" fill="#1D1D1D"/>
<path d="M487.979 0H487.793L453.979 233.514H454.165L487.979 0Z" fill="#1D1D1D"/>
<path d="M514.454 0L480.64 233.514H480.826L514.64 0H514.454Z" fill="#1D1D1D"/>
<path d="M514.454 0H514.175L480.361 233.514H480.64L514.454 0Z" fill="#1D1D1D"/>
<path d="M540 6.10195L507.022 233.514H507.301L540 7.65021V6.10195Z" fill="#1D1D1D"/>
<path d="M540 6.10195V4.46262L506.836 233.514H507.022L540 6.10195Z" fill="#1D1D1D"/>
<path d="M533.497 233.514H533.776L540 190.253V188.614L533.497 233.514Z" fill="#1D1D1D"/>
<path d="M540 188.614V186.975L533.312 233.514H533.497L540 188.614Z" fill="#1D1D1D"/>
<path d="M6.50267 0L0 44.8994V46.5388L6.78135 0H6.50267Z" fill="#1D1D1D"/>
<path d="M6.50267 0H6.22398L0 43.2601V44.8994L6.50267 0Z" fill="#1D1D1D"/>
<path d="M32.9778 0H32.6991L0 225.863V227.412L32.9778 0Z" fill="#1D1D1D"/>
<path d="M32.9778 0L0 227.412V229.051L33.1636 0H32.9778Z" fill="#1D1D1D"/>
<path d="M59.3601 0H59.1743L25.3604 233.514H25.5462L59.3601 0Z" fill="#1D1D1D"/>
<path d="M59.3601 0L25.5462 233.514H25.8249L59.6387 0H59.3601Z" fill="#1D1D1D"/>
<path d="M85.8352 0H85.5565L51.7427 233.514H52.0213L85.8352 0Z" fill="#1D1D1D"/>
<path d="M85.8352 0L52.0213 233.514H52.2071L86.021 0H85.8352Z" fill="#1D1D1D"/>
<path d="M112.31 0L78.4036 233.514H78.6823L112.496 0H112.31Z" fill="#1D1D1D"/>
<path d="M112.31 0H112.032L78.2178 233.514H78.4036L112.31 0Z" fill="#1D1D1D"/>
<path d="M138.693 0H138.507L104.693 233.514H104.879L138.693 0Z" fill="#1D1D1D"/>
<path d="M138.693 0L104.879 233.514H105.157L138.971 0H138.693Z" fill="#1D1D1D"/>
<path d="M165.168 0H164.889L131.075 233.514H131.354L165.168 0Z" fill="#1D1D1D"/>
<path d="M165.168 0L131.354 233.514H131.54L165.354 0H165.168Z" fill="#1D1D1D"/>
<path d="M191.55 0H191.364L157.55 233.514H157.736L191.55 0Z" fill="#1D1D1D"/>
<path d="M191.55 0L157.736 233.514H158.015L191.829 0H191.55Z" fill="#1D1D1D"/>
<path d="M218.025 0H217.839L184.025 233.514H184.211L218.025 0Z" fill="#1D1D1D"/>
<path d="M218.025 0L184.211 233.514H184.49L218.304 0H218.025Z" fill="#1D1D1D"/>
<path d="M244.5 0L210.686 233.514H210.872L244.686 0H244.5Z" fill="#1D1D1D"/>
<path d="M244.5 0H244.222L210.408 233.514H210.686L244.5 0Z" fill="#1D1D1D"/>
<path d="M270.883 0L237.069 233.514H237.347L271.161 0H270.883Z" fill="#1D1D1D"/>
<path d="M270.883 0H270.697L236.883 233.514H237.069L270.883 0Z" fill="#1D1D1D"/>
<path d="M297.358 0H297.172L263.265 233.514H263.544L297.358 0Z" fill="#1D1D1D"/>
<path d="M297.358 0L263.544 233.514H263.73L297.636 0H297.358Z" fill="#1D1D1D"/>
<path d="M323.833 0L290.019 233.514H290.205L324.019 0H323.833Z" fill="#1D1D1D"/>
<path d="M323.833 0H323.554L289.74 233.514H290.019L323.833 0Z" fill="#1D1D1D"/>
<path d="M350.215 0L316.401 233.514H316.68L350.494 0H350.215Z" fill="#1D1D1D"/>
<path d="M350.215 0H350.029L316.215 233.514H316.401L350.215 0Z" fill="#1D1D1D"/>
<path d="M376.69 0L342.876 233.514H343.062L376.876 0H376.69Z" fill="#1D1D1D"/>
<path d="M376.69 0H376.412L342.598 233.514H342.876L376.69 0Z" fill="#1D1D1D"/>
<path d="M403.165 0L369.351 233.514H369.537L403.351 0H403.165Z" fill="#1D1D1D"/>
<path d="M403.165 0H402.887L369.073 233.514H369.351L403.165 0Z" fill="#1D1D1D"/>
<path d="M429.548 0H429.362L395.548 233.514H395.734L429.548 0Z" fill="#1D1D1D"/>
<path d="M429.548 0L395.734 233.514H396.012L429.826 0H429.548Z" fill="#1D1D1D"/>
<path d="M456.023 0L422.209 233.514H422.395L456.209 0H456.023Z" fill="#1D1D1D"/>
<path d="M456.023 0H455.744L421.93 233.514H422.209L456.023 0Z" fill="#1D1D1D"/>
<path d="M482.498 0H482.219L448.405 233.514H448.591L482.498 0Z" fill="#1D1D1D"/>
<path d="M482.498 0L448.591 233.514H448.87L482.684 0H482.498Z" fill="#1D1D1D"/>
<path d="M508.88 0L475.066 233.514H475.345L509.159 0H508.88Z" fill="#1D1D1D"/>
<path d="M508.88 0H508.694L474.88 233.514H475.066L508.88 0Z" fill="#1D1D1D"/>
<path d="M535.355 0H535.077L501.263 233.514H501.541L535.355 0Z" fill="#1D1D1D"/>
<path d="M535.355 0L501.541 233.514H501.727L535.541 0H535.355Z" fill="#1D1D1D"/>
<path d="M540 150.363V148.724L527.738 233.514H527.924L540 150.363Z" fill="#1D1D1D"/>
<path d="M540 150.363L527.924 233.514H528.202L540 152.002V150.363Z" fill="#1D1D1D"/>
<path d="M18.7648 0H18.579L0 128.05V129.689L18.7648 0Z" fill="#1D1D1D"/>
<path d="M18.7648 0L0 129.689V131.238L19.0435 0H18.7648Z" fill="#1D1D1D"/>
<path d="M45.24 0H44.9613L11.1474 233.514H11.4261L45.24 0Z" fill="#1D1D1D"/>
<path d="M45.24 0L11.4261 233.514H11.6119L45.4258 0H45.24Z" fill="#1D1D1D"/>
<path d="M71.6222 0H71.4364L37.6226 233.514H37.8084L71.6222 0Z" fill="#1D1D1D"/>
<path d="M71.6222 0L37.8084 233.514H38.0871L71.9009 0H71.6222Z" fill="#1D1D1D"/>
<path d="M98.0974 0L64.2835 233.514H64.5622L98.3761 0H98.0974Z" fill="#1D1D1D"/>
<path d="M98.0974 0H97.9116L64.0048 233.514H64.2835L98.0974 0Z" fill="#1D1D1D"/>
<path d="M124.573 0L90.7587 233.514H90.9445L124.758 0H124.573Z" fill="#1D1D1D"/>
<path d="M124.573 0H124.294L90.48 233.514H90.7587L124.573 0Z" fill="#1D1D1D"/>
<path d="M150.955 0H150.769L116.955 233.514H117.141L150.955 0Z" fill="#1D1D1D"/>
<path d="M150.955 0L117.141 233.514H117.42L151.233 0H150.955Z" fill="#1D1D1D"/>
<path d="M177.43 0L143.616 233.514H143.802L177.709 0H177.43Z" fill="#1D1D1D"/>
<path d="M177.43 0H177.151L143.337 233.514H143.616L177.43 0Z" fill="#1D1D1D"/>
<path d="M203.905 0L170.091 233.514H170.277L204.091 0H203.905Z" fill="#1D1D1D"/>
<path d="M203.905 0H203.626L169.812 233.514H170.091L203.905 0Z" fill="#1D1D1D"/>
<path d="M230.287 0H230.101L196.288 233.514H196.473L230.287 0Z" fill="#1D1D1D"/>
<path d="M230.287 0L196.473 233.514H196.752L230.566 0H230.287Z" fill="#1D1D1D"/>
<path d="M256.762 0L222.949 233.514H223.134L256.948 0H256.762Z" fill="#1D1D1D"/>
<path d="M256.762 0H256.484L222.67 233.514H222.949L256.762 0Z" fill="#1D1D1D"/>
<path d="M283.238 0L249.331 233.514H249.61L283.423 0H283.238Z" fill="#1D1D1D"/>
<path d="M283.238 0H282.959L249.145 233.514H249.331L283.238 0Z" fill="#1D1D1D"/>
<path d="M309.62 0L275.806 233.514H276.085L309.899 0H309.62Z" fill="#1D1D1D"/>
<path d="M309.62 0H309.434L275.62 233.514H275.806L309.62 0Z" fill="#1D1D1D"/>
<path d="M336.095 0H335.816L302.002 233.514H302.281L336.095 0Z" fill="#1D1D1D"/>
<path d="M336.095 0L302.281 233.514H302.467L336.281 0H336.095Z" fill="#1D1D1D"/>
<path d="M362.477 0H362.291L328.478 233.514H328.663L362.477 0Z" fill="#1D1D1D"/>
<path d="M362.477 0L328.663 233.514H328.942L362.756 0H362.477Z" fill="#1D1D1D"/>
<path d="M388.952 0H388.767L354.953 233.514H355.138L388.952 0Z" fill="#1D1D1D"/>
<path d="M388.952 0L355.138 233.514H355.417L389.231 0H388.952Z" fill="#1D1D1D"/>
<path d="M415.428 0L381.614 233.514H381.799L415.613 0H415.428Z" fill="#1D1D1D"/>
<path d="M415.428 0H415.149L381.335 233.514H381.614L415.428 0Z" fill="#1D1D1D"/>
<path d="M441.81 0L407.996 233.514H408.275L442.088 0H441.81Z" fill="#1D1D1D"/>
<path d="M441.81 0H441.624L407.81 233.514H407.996L441.81 0Z" fill="#1D1D1D"/>
<path d="M468.285 0L434.471 233.514H434.657L468.564 0H468.285Z" fill="#1D1D1D"/>
<path d="M494.76 0H494.481L460.667 233.514H460.946L494.76 0Z" fill="#1D1D1D"/>
<path d="M494.76 0L460.946 233.514H461.132L494.946 0H494.76Z" fill="#1D1D1D"/>
<path d="M521.142 0L487.328 233.514H487.607L521.421 0H521.142Z" fill="#1D1D1D"/>
<path d="M521.142 0H520.957L487.143 233.514H487.328L521.142 0Z" fill="#1D1D1D"/>
<path d="M540 52.5497V50.9103L513.525 233.514H513.804L540 52.5497Z" fill="#1D1D1D"/>
<path d="M540 52.5497L513.804 233.514H513.989L540 54.189V52.5497Z" fill="#1D1D1D"/>
</svg>
